<?xml version="1.0" standalone="no"?>
<!DOCTYPE svg PUBLIC "-//W3C//DTD SVG 1.1//EN" "http://www.w3.org/Graphics/SVG/1.1/DTD/svg11.dtd" >
<svg xmlns="http://www.w3.org/2000/svg" xmlns:xlink="http://www.w3.org/1999/xlink" version="1.1">
<metadata>
Created by FontForge 20200427 at Fri Nov 13 13:19:17 2015
 By www
Copyright (c) 2015 by . All rights reserved.
</metadata>
<defs>
<font id="AnoStencilW00-Regular" horiz-adv-x="551" >
  <font-face 
    font-family="AnoStencilW00-Regular"
    font-weight="400"
    font-stretch="normal"
    units-per-em="1000"
    panose-1="1 0 0 0 0 0 0 0 0 0"
    ascent="800"
    descent="-200"
    x-height="450"
    cap-height="750"
    bbox="-55 -292 1259 1003"
    underline-thickness="50"
    underline-position="-125"
    unicode-range="U+0020-F8FF"
  />
<missing-glyph horiz-adv-x="500" 
d="M438 0h-375v800h375v-800zM125 738v-675h250v675h-250z" />
    <glyph glyph-name=".notdef" horiz-adv-x="500" 
d="M438 0h-375v800h375v-800zM125 738v-675h250v675h-250z" />
    <glyph glyph-name=".null" horiz-adv-x="0" 
 />
    <glyph glyph-name="nonmarkingreturn" horiz-adv-x="333" 
 />
    <glyph glyph-name="space" unicode=" " horiz-adv-x="204" 
 />
    <glyph glyph-name="exclam" unicode="!" horiz-adv-x="281" 
d="M181 750v-524h-80v524h80zM200 44q0 -24 -17.5 -42t-41.5 -18t-42 18t-18 42t18 42t42 18t41.5 -18t17.5 -42z" />
    <glyph glyph-name="quotedbl" unicode="&#x22;" horiz-adv-x="388" 
d="M314 750v-266h-80v266h80zM154 750v-266h-80v266h80z" />
    <glyph glyph-name="numbersign" unicode="#" horiz-adv-x="646" 
d="M480 502h110v-70h-487v70h117l53 257l77 -13l-51 -244h102l54 257l77 -13zM540 317v-70h-116l-54 -257l-77 13l52 245h-103l-54 -258l-76 13l51 245h-110v69h487z" />
    <glyph glyph-name="dollar" unicode="$" horiz-adv-x="611" 
d="M541 592l-65 -25q-20 65 -69.5 99.5t-106.5 34.5q-28 0 -63.5 -12t-61 -45t-25.5 -81q0 -44 27.5 -79t78.5 -48l15 -4l-19 -71l-16 4q-29 7 -58.5 22.5t-56 44t-38 64.5t-11.5 65q0 55 23.5 97.5t67 71.5t102.5 37v123h80v-124q49 -8 89.5 -33t67 -60t39.5 -81zM551 207
q0 -56 -24.5 -102t-70 -78.5t-107.5 -42.5v-124h-80v123q-51 6 -98.5 33.5t-75 66.5t-41.5 79l67 27q23 -69 73.5 -104.5t108.5 -35.5q41 0 82 19t64.5 56.5t23.5 80.5q0 32 -16.5 60.5t-45 45.5t-55.5 24l-17 4l19 71l26 -6q81 -21 124 -75t43 -122z" />
    <glyph glyph-name="percent" unicode="%" horiz-adv-x="870" 
d="M839 213h-68q-13 37 -45 61t-71 24t-71 -24t-46 -61h-67q14 63 65.5 104.5t118.5 41.5q32 0 69.5 -13.5t70.5 -50t44 -82.5zM410 624h-68q-13 36 -45.5 60t-70.5 24q-39 0 -71 -24t-45 -60h-68q7 29 28 62.5t63 58.5t93 25q41 0 77 -16.5t66 -50.5t41 -79zM618 770
l63 -35l-419 -755l-62 35zM771 126h68q-7 -29 -29 -63t-64.5 -58t-90.5 -24q-33 0 -70.5 13.5t-70.5 50t-43 81.5h67q14 -36 46 -60t71 -24q38 0 70.5 24t45.5 60zM342 537h68q-11 -46 -44 -82.5t-70.5 -50t-69.5 -13.5q-67 0 -118.5 41.5t-65.5 104.5h67q14 -37 46 -61
t71 -24t71 24t45 61z" />
    <glyph glyph-name="ampersand" unicode="&#x26;" horiz-adv-x="618" 
d="M494 588l-67 -22q-7 40 -26 68.5t-50 46.5t-68 18q-45 0 -78 -24.5t-45.5 -56t-12.5 -56.5q0 -22 8 -45t22 -38l-62 -38q-21 25 -33 58t-12 67q0 40 15.5 77t44.5 65.5t68.5 44.5t84.5 16q79 0 139 -49t72 -132zM588 304v-70h-225v70h225zM436 180l77 -10
q-5 -42 -25.5 -77.5t-52 -60.5t-71 -38.5t-81.5 -13.5q-37 0 -77.5 11t-79 42t-57.5 77t-19 92q0 41 15 81t44.5 71.5t74 50t99.5 18.5h41v-70h-41q-42 0 -79.5 -20.5t-56.5 -57t-19 -73.5q0 -33 15.5 -68t54.5 -59t85 -24q26 0 59 11.5t60.5 42t33.5 75.5z" />
    <glyph glyph-name="quotesingle" unicode="'" horiz-adv-x="228" 
d="M154 750v-266h-80v266h80z" />
    <glyph glyph-name="parenleft" unicode="(" horiz-adv-x="403" 
d="M349 12l-22 -74q-50 14 -100 47.5t-94.5 96.5t-65 142t-20.5 151t20.5 151t65 142t94.5 96.5t100 47.5l22 -74q-50 -14 -92 -48.5t-71 -83t-44 -108.5t-15 -123t15 -123t44 -108.5t71 -83t92 -48.5z" />
    <glyph glyph-name="parenright" unicode=")" horiz-adv-x="403" 
d="M353 375q0 -72 -18 -142t-48.5 -121.5t-66.5 -87t-75.5 -56.5t-71.5 -30l-22 74q50 14 92 48.5t71 83t44 108.5t15 123t-15 123t-44 108.5t-71 83t-92 48.5l22 74q32 -9 71.5 -30t75.5 -56.5t66.5 -87t48.5 -121.5t18 -142z" />
    <glyph glyph-name="asterisk" unicode="*" horiz-adv-x="554" 
d="M503 614l25 -76l-136 -43l-25 76zM374 433l85 -117l-65 -47l-85 117zM238 750h80v-264l-157 -216l-64 47l141 195v238zM51 615l136 -44l-24 -76l-137 44z" />
    <glyph glyph-name="plus" unicode="+" horiz-adv-x="618" 
d="M578 410v-70h-229v-240h-80v240h-229v70h229v240h80v-240h229z" />
    <glyph glyph-name="comma" unicode="," horiz-adv-x="262" 
d="M123 175l76 -31l-131 -295l-76 31z" />
    <glyph glyph-name="hyphen" unicode="-" horiz-adv-x="352" 
d="M312 310v-70h-272v70h272z" />
    <glyph glyph-name="period" unicode="." horiz-adv-x="228" 
d="M174 44q0 -24 -18 -42t-42 -18t-42 18t-18 42t18 42t42 18t42 -18t18 -42z" />
    <glyph glyph-name="slash" unicode="/" horiz-adv-x="499" 
d="M418 817l73 -33l-411 -854l-72 33z" />
    <glyph glyph-name="zero" unicode="0" horiz-adv-x="590" 
d="M540 525v-106h-80v106q0 72 -48.5 123.5t-116.5 51.5t-116.5 -51.5t-48.5 -123.5v-106h-80v106q0 49 19 94t53 79t79 53t94 19t94 -19t79 -53t53 -79t19 -94zM540 332v-107q0 -49 -19 -94t-53 -79t-79 -53t-94 -19t-94 19t-79 53t-53 79t-19 94v107h80v-107
q0 -72 48.5 -123.5t116.5 -51.5t116.5 51.5t48.5 123.5v107h80z" />
    <glyph glyph-name="one" unicode="1" horiz-adv-x="471" 
d="M366 750v-750h-80v641l-173 -163l-50 49l223 223h80z" />
    <glyph glyph-name="two" unicode="2" horiz-adv-x="532" 
d="M485 560q0 -37 -13.5 -74t-38.5 -69l-239 -296l-64 49l238 294q17 21 26.5 48.5t9.5 52.5q0 30 -13.5 61t-46 52.5t-73.5 21.5q-25 0 -57.5 -12.5t-60 -46t-33.5 -78.5l-67 21q4 31 18.5 64t45.5 63t72.5 44.5t79.5 14.5q43 0 82.5 -15t69.5 -43t47 -67t17 -85zM477 70
v-70h-429v70h429z" />
    <glyph glyph-name="three" unicode="3" horiz-adv-x="560" 
d="M491 566q0 -34 -12 -67t-33 -58l-62 38q13 15 21 38.5t8 44.5q0 25 -11.5 54.5t-33.5 48.5t-45.5 26.5t-45.5 7.5q-37 0 -68 -18t-50 -46.5t-26 -68.5l-67 22q12 83 72 132t139 49q45 0 85 -16t68.5 -44.5t44.5 -65.5t16 -77zM510 202q0 -47 -17 -88t-48.5 -71
t-74.5 -46.5t-92 -16.5q-52 0 -104 22.5t-85 68t-42 100.5l70 22q11 -67 56 -104.5t104 -37.5q46 0 81.5 21.5t54.5 54.5t19 75q0 45 -22 79.5t-56 53t-77 18.5h-89v70h89q55 0 99.5 -18.5t74 -50t44.5 -71.5t15 -81z" />
    <glyph glyph-name="four" unicode="4" horiz-adv-x="606" 
d="M566 221v-70h-114v-151h-80v151h-332v62l222 360l56 -41l-192 -311h246v529h80v-529h114z" />
    <glyph glyph-name="five" unicode="5" horiz-adv-x="574" 
d="M487 750v-70h-273l-18 -174l-75 5l24 239h342zM527 223q0 -41 -13.5 -84t-45 -78t-79 -58t-105.5 -23q-39 0 -77 12.5t-70.5 38t-56 64.5t-33.5 89l68 21q7 -38 23.5 -67.5t39 -48.5t51 -29t55.5 -10q31 0 61 11.5t54 34t37.5 55t13.5 72.5q0 26 -8 55t-30.5 58.5
t-57.5 45t-71 15.5q-33 0 -65 -13.5t-56 -39.5l-53 47q34 37 80.5 56.5t94.5 19.5q38 0 79.5 -12.5t82 -46.5t61 -84.5t20.5 -100.5z" />
    <glyph glyph-name="six" unicode="6" horiz-adv-x="586" 
d="M536 223q0 -36 -12.5 -76.5t-47 -82t-84.5 -63t-99 -21.5q-36 0 -77 12.5t-82 46.5t-62.5 84t-21.5 99q0 33 10 68t26 61l254 410l69 -35l-254 -409q-10 -16 -18.5 -40.5t-8.5 -56.5q0 -33 12 -64t34.5 -55t53 -37.5t65.5 -13.5q25 0 52.5 9t52.5 30.5t43 55.5t18 78
q0 64 -40 112t-99 58v72q44 -5 79 -23t63 -44t51 -72t23 -103z" />
    <glyph glyph-name="seven" unicode="7" horiz-adv-x="494" 
d="M459 750v-70h-425v70h425zM349 623l69 -31l-284 -601l-69 30z" />
    <glyph glyph-name="eight" unicode="8" horiz-adv-x="577" 
d="M504 573q0 -39 -16.5 -76.5t-44.5 -65.5l-55 45q17 17 27.5 43t10.5 51q0 29 -13 58.5t-47.5 50t-76.5 20.5t-76.5 -20.5t-47.5 -50t-13 -58.5q0 -25 10.5 -51t27.5 -43l-54 -45q-29 28 -45.5 65t-16.5 77q0 31 11 65t38 63t69 48.5t97 19.5q44 0 83.5 -14t69 -40.5
t46 -63t16.5 -78.5zM527 197q0 -82 -54 -140t-138 -73v72q37 9 65 33t38.5 53.5t10.5 54.5q0 24 -8.5 49.5t-28.5 47t-51.5 36.5t-72.5 15q-32 0 -58 -9.5t-47 -25t-38.5 -44.5t-17.5 -69q0 -25 10.5 -54t38 -52.5t64.5 -33.5v-72q-61 11 -103.5 43t-64.5 75t-22 94
q0 34 12.5 71t42.5 69.5t77 55t106 22.5q47 0 96.5 -18.5t83.5 -55t46.5 -73.5t12.5 -71z" />
    <glyph glyph-name="nine" unicode="9" horiz-adv-x="568" 
d="M518 538q0 -31 -10 -66.5t-27 -63.5l-252 -408h-91l275 447q12 19 19 44t7 48t-7 49t-25 50.5t-49 42.5t-74 18q-39 0 -77 -21.5t-58.5 -61t-20.5 -80.5q0 -59 36 -103.5t90 -54.5v-73q-31 4 -65.5 18t-65 43t-52 72.5t-21.5 97.5q0 47 18 90t50.5 75.5t75.5 50.5t90 18
q38 0 78.5 -12.5t75 -42.5t57.5 -75.5t23 -101.5z" />
    <glyph glyph-name="colon" unicode=":" horiz-adv-x="228" 
d="M174 406q0 -24 -18 -42t-42 -18t-42 18t-18 42t18 42t42 18t42 -18t18 -42zM174 44q0 -24 -18 -42t-42 -18t-42 18t-18 42t18 42t42 18t42 -18t18 -42z" />
    <glyph glyph-name="semicolon" unicode=";" horiz-adv-x="260" 
d="M186 406q0 -24 -18 -42t-42 -18t-42 18t-18 42t18 42t42 18t42 -18t18 -42zM123 175l76 -31l-131 -295l-76 31z" />
    <glyph glyph-name="less" unicode="&#x3c;" horiz-adv-x="409" 
d="M132 371l240 -239l-50 -50l-289 289l289 290l50 -50z" />
    <glyph glyph-name="equal" unicode="=" horiz-adv-x="618" 
d="M578 510v-70h-538v70h538zM578 310v-70h-538v70h538z" />
    <glyph glyph-name="greater" unicode="&#x3e;" horiz-adv-x="409" 
d="M87 661l289 -290l-289 -289l-50 50l239 239l-239 240z" />
    <glyph glyph-name="question" unicode="?" horiz-adv-x="587" 
d="M536 551q0 -52 -26.5 -105.5t-72.5 -92.5l-161 -134l-50 57l160 134q33 27 52.5 66t19.5 78q0 64 -45 105.5t-115 41.5q-59 0 -109.5 -35t-70.5 -99l-66 25q15 55 49.5 94t85 62t111.5 23q38 0 79.5 -11.5t80.5 -42t58.5 -76t19.5 -90.5zM325 44q0 -24 -18 -42t-42 -18
t-41.5 18t-17.5 42t17.5 42t41.5 18t42 -18t18 -42z" />
    <glyph glyph-name="at" unicode="@" horiz-adv-x="890" 
d="M840 315q0 -65 -19.5 -111t-53.5 -72.5t-78 -26.5q-30 0 -60 13.5t-49 48t-19 75.5v118q0 59 -34 85.5t-85 26.5q-28 0 -63 -9t-57 -22l-16 64q29 16 67.5 26t72.5 10q48 0 95 -19.5t73.5 -62.5t26.5 -99v-118q0 -29 15 -47t37 -18q21 0 37 16t24.5 46t8.5 76
q0 59 -20.5 114.5t-58 99.5t-88.5 72t-108 36v70q72 -8 137 -41.5t113 -86.5t75 -121.5t27 -142.5zM594 26l30 -61q-84 -45 -179 -45q-79 0 -151.5 30.5t-127.5 85.5t-85.5 127.5t-30.5 151.5q0 74 26.5 142t74.5 121.5t103.5 82.5t93.5 37t52 10v-71q-27 -4 -61.5 -15.5
t-69.5 -36t-63 -56.5t-46.5 -71.5t-25.5 -76.5t-7 -66q0 -65 24.5 -125t68.5 -105t102.5 -70t122.5 -25q38 0 77.5 9.5t71.5 26.5zM497 206l27 -56q-21 -15 -52 -24t-59 -9q-67 0 -111 37t-44 95q0 9 5 33.5t24 47t50.5 38t77.5 15.5q35 0 70 -11l-3 -68q-31 12 -62 12
q-39 0 -61.5 -20.5t-22.5 -46.5q0 -29 22.5 -48.5t58.5 -19.5q20 0 44 7.5t36 17.5z" />
    <glyph glyph-name="A" unicode="A" horiz-adv-x="734" 
d="M403 762l303 -749l-76 -27l-303 750zM435 279v-70h-242l-89 -223l-76 27l229 573l76 -27l-113 -280h215z" />
    <glyph glyph-name="B" unicode="B" horiz-adv-x="635" 
d="M566 548q0 -29 -11 -60.5t-29 -54.5l-64 37q10 14 16.5 35t6.5 40q0 56 -37.5 95.5t-91.5 39.5h-109v70h115q30 0 64 -10.5t69 -39t53 -70t18 -82.5zM582 208q0 -51 -27 -101.5t-76.5 -78.5t-100.5 -28h-131v70h126q54 0 91.5 39t37.5 96t-37.5 96t-91.5 39h-213v-340
h-80v750h80v-340h219q33 0 69 -13t66.5 -38.5t49 -64t18.5 -86.5z" />
    <glyph glyph-name="C" unicode="C" horiz-adv-x="839" 
d="M774 524l-73 -31q-13 37 -36 74t-57.5 66.5t-80.5 48t-100 18.5q-51 0 -100.5 -18.5t-90 -55t-67.5 -89.5t-34 -118h-80q4 39 17.5 87t42 93.5t73.5 84.5t108.5 62.5t129.5 23.5q54 0 107 -15.5t99.5 -46.5t83 -78t58.5 -106zM700 256l74 -31q-22 -59 -59 -105.5
t-83.5 -77.5t-99 -46.5t-106.5 -15.5q-66 0 -130 23.5t-115.5 68.5t-80 102.5t-36.5 99.5t-9 58h80q7 -65 33.5 -118.5t67.5 -89.5t90.5 -55t100.5 -19q65 0 119.5 27t93.5 72t60 107z" />
    <glyph glyph-name="D" unicode="D" horiz-adv-x="760" 
d="M707 375q0 -53 -17 -115t-59 -119t-96.5 -89t-102.5 -42t-87 -10h-98v70h88q64 0 118.5 24.5t93 67.5t59 98.5t20.5 114.5t-20.5 114.5t-59 98.5t-93 67.5t-118.5 24.5h-88v70h98q60 0 114.5 -17.5t97.5 -49.5t74.5 -74.5t50 -93t22 -88.5t3.5 -52zM80 750h80v-750h-80
v750z" />
    <glyph glyph-name="E" unicode="E" horiz-adv-x="589" 
d="M462 410v-70h-215v70h215zM519 70v-70h-439v750h439v-70h-359v-610h359z" />
    <glyph glyph-name="F" unicode="F" horiz-adv-x="567" 
d="M507 750v-70h-260v70h260zM462 410v-70h-302v-340h-80v750h80v-340h302z" />
    <glyph glyph-name="G" unicode="G" horiz-adv-x="857" 
d="M809 410v-71h-364v71h364zM713 267l73 -30q-14 -45 -42 -90.5t-72.5 -82t-104 -60t-130.5 -23.5q-104 0 -192.5 50.5t-141.5 143t-53 200.5t52 201t140.5 143.5t191.5 50.5q79 0 153 -32.5t128 -91.5l-53 -53q-43 51 -103 79t-124 28q-66 0 -122.5 -26t-97 -71.5
t-62.5 -105t-22 -122.5t22.5 -122t63.5 -104.5t98 -71.5t123 -26q93 0 169.5 57.5t105.5 158.5z" />
    <glyph glyph-name="H" unicode="H" horiz-adv-x="718" 
d="M638 750v-750h-80v340h-311v70h311v340h80zM160 750v-750h-80v750h80z" />
    <glyph glyph-name="I" unicode="I" horiz-adv-x="240" 
d="M160 750v-750h-80v750h80z" />
    <glyph glyph-name="J" unicode="J" horiz-adv-x="568" 
d="M488 750v-553q0 -77 -50 -137.5t-127 -75.5v73q44 14 70.5 53t26.5 86v554h80zM224 56v-72q-32 6 -71 27t-68 63.5t-36 97.5l64 26q5 -27 17.5 -57t37.5 -53t56 -32z" />
    <glyph glyph-name="K" unicode="K" horiz-adv-x="610" 
d="M299 374l271 -346l-64 -42l-300 388l300 389l64 -42zM160 750v-750h-80v750h80z" />
    <glyph glyph-name="L" unicode="L" horiz-adv-x="576" 
d="M160 750v-750h-80v750h80zM519 70v-70h-272v70h272z" />
    <glyph glyph-name="M" unicode="M" horiz-adv-x="897" 
d="M802 484v-484h-80v484h80zM758 767l65 -46l-374 -525l-375 525l65 46l310 -438zM174 484v-484h-80v484h80z" />
    <glyph glyph-name="N" unicode="N" horiz-adv-x="741" 
d="M655 750v-500h-80v500h80zM143 768l518 -744l-64 -42l-519 744zM170 500v-500h-80v500h80z" />
    <glyph glyph-name="O" unicode="O" horiz-adv-x="870" 
d="M815 419h-80q-5 46 -24.5 95t-62.5 95t-101 68.5t-112 22.5q-40 0 -86.5 -13t-96.5 -50.5t-80.5 -96.5t-37.5 -121h-80q8 78 41.5 144t86.5 112.5t119 71t135 24.5q51 0 110.5 -16.5t115.5 -57.5t89.5 -94t47 -99.5t16.5 -84.5zM735 332h80q-7 -78 -40.5 -144.5
t-85.5 -113t-118 -71t-135 -24.5t-135.5 24.5t-119 71t-86.5 113t-41 144.5h80q7 -62 34 -115t68 -90t93 -57t106 -20t105.5 20t93 57t68 90t33.5 115z" />
    <glyph glyph-name="P" unicode="P" horiz-adv-x="619" 
d="M564 545q0 -41 -16 -79t-44.5 -66t-66 -44t-78.5 -16h-112v70h109q20 0 42 7t41 23.5t32 43.5t13 61q0 40 -21 73.5t-50 47.5t-57 14h-109v70h112q41 0 78.5 -16t66 -44.5t44.5 -66t16 -78.5zM160 750v-750h-80v750h80z" />
    <glyph glyph-name="Q" unicode="Q" horiz-adv-x="883" 
d="M826 376q0 -109 -52 -202l-58 67q13 29 21 65t8 69q0 61 -21.5 120t-61.5 105t-96.5 73t-122.5 27q-54 0 -106 -20t-93.5 -57t-68.5 -89.5t-34 -114.5h-80q8 78 41.5 144t86.5 112.5t119 71t135 24.5q41 0 92 -11t100.5 -40t87 -71t62 -92.5t33 -98t8.5 -82.5zM534 329
l298 -325l-58 -48l-298 325zM565 79l51 -58q-81 -42 -173 -42q-69 0 -135.5 24.5t-119 71t-86.5 113t-41 144.5h80q7 -62 34 -115t68 -90t93 -57t106 -20q32 0 65 8t58 21z" />
    <glyph glyph-name="R" unicode="R" horiz-adv-x="618" 
d="M550 541q0 -44 -18.5 -85.5t-47.5 -66t-56 -35.5l-36 64q18 7 36.5 23t30 43t11.5 57q0 26 -10.5 55.5t-32 49t-45 27t-46.5 7.5h-89v70h92q34 0 70 -11t71 -41t52.5 -73t17.5 -84zM300 390l270 -359l-66 -47l-270 359zM160 750v-750h-80v750h80z" />
    <glyph glyph-name="S" unicode="S" horiz-adv-x="605" 
d="M546 592l-65 -25q-19 64 -71 99t-113 35q-29 0 -66.5 -12t-64.5 -45.5t-27 -81.5q0 -26 11.5 -53.5t37 -46.5t57.5 -26l24 -6l-19 -71l-22 5q-79 19 -123 74t-44 122q0 62 29.5 108t83.5 74t123 28q51 0 104.5 -19.5t91.5 -62t53 -96.5zM555 204q0 -22 -6 -50t-22 -57
t-45.5 -55.5t-76 -44t-100.5 -17.5q-53 0 -108.5 19.5t-96 62.5t-58.5 99l68 28q10 -34 34 -66.5t67.5 -52.5t90.5 -20q25 0 54 6.5t56 24t46.5 47.5t19.5 73q0 51 -31.5 86.5t-89.5 47.5l-20 4l19 71l29 -6q81 -17 125.5 -70.5t44.5 -129.5z" />
    <glyph glyph-name="T" unicode="T" horiz-adv-x="602" 
d="M574 750v-70h-546v70h546zM341 593v-593h-80v593h80z" />
    <glyph glyph-name="U" unicode="U" horiz-adv-x="748" 
d="M668 750v-490q0 -52 -19 -99.5t-53.5 -85t-80.5 -61.5t-98 -31v72q45 9 86 37.5t63 74t22 93.5v490h80zM330 55v-72q-52 7 -98 31.5t-80 61.5t-53 84.5t-19 99.5v490h80v-490q0 -47 19.5 -88.5t58 -73.5t92.5 -43z" />
    <glyph glyph-name="V" unicode="V" horiz-adv-x="746" 
d="M636 762l76 -26l-228 -573l-77 26zM110 762l304 -749l-77 -27l-303 750z" />
    <glyph glyph-name="W" unicode="W" horiz-adv-x="1064" 
d="M952 761l78 -24l-159 -533l-78 23zM636 544l159 -534l-79 -23l-158 534zM492 761l78 -24l-159 -533l-78 23zM112 760l223 -750l-79 -23l-222 750z" />
    <glyph glyph-name="X" unicode="X" horiz-adv-x="710" 
d="M611 763l63 -43l-223 -282l-63 42zM97 763l579 -733l-64 -43l-578 733zM257 312l63 -42l-223 -283l-63 43z" />
    <glyph glyph-name="Y" unicode="Y" horiz-adv-x="710" 
d="M611 765l65 -43l-280 -395v-327h-80v348zM100 765l209 -296l-65 -43l-210 296z" />
    <glyph glyph-name="Z" unicode="Z" horiz-adv-x="623" 
d="M565 750v-70h-511v70h511zM441 625l63 -42l-327 -464l-62 42zM565 70v-70h-511v70h511z" />
    <glyph glyph-name="bracketleft" unicode="[" horiz-adv-x="331" 
d="M271 -50v-70h-203v870h203v-70h-123v-730h123z" />
    <glyph glyph-name="backslash" unicode="\" horiz-adv-x="498" 
d="M81 817l410 -853l-73 -34l-410 853z" />
    <glyph glyph-name="bracketright" unicode="]" horiz-adv-x="331" 
d="M263 750v-870h-203v70h123v730h-123v70h203z" />
    <glyph glyph-name="asciicircum" unicode="^" horiz-adv-x="646" 
d="M155 254l-75 30l136 305l76 -29zM275 730l75 30l216 -477l-76 -29z" />
    <glyph glyph-name="underscore" unicode="_" horiz-adv-x="455" 
d="M427 -64v-70h-399v70h399z" />
    <glyph glyph-name="grave" unicode="`" horiz-adv-x="590" 
d="M196 788l240 -139l-36 -56l-240 139z" />
    <glyph glyph-name="a" unicode="a" horiz-adv-x="545" 
d="M471 299v-299h-80v290q0 28 -12.5 53t-44.5 39.5t-71 14.5q-37 0 -75.5 -11t-63.5 -28l-27 67q35 20 79.5 31t89.5 11q63 0 108.5 -20t71 -57t25.5 -91zM299 71l15 -65q-50 -14 -87 -14q-52 0 -90 19t-61 53t-23 78t23 78t61 53t90 19q37 0 87 -14l-15 -65q-36 12 -70 12
q-22 0 -45.5 -8.5t-38 -29t-14.5 -44.5t14.5 -45.5t38 -30t45.5 -8.5q34 0 70 12z" />
    <glyph glyph-name="b" unicode="b" horiz-adv-x="610" 
d="M556 222q0 -35 -12 -75t-45 -80.5t-81 -61.5t-95 -21q-53 0 -101 23l22 69q36 -22 77 -22q39 0 76 22t57.5 63t20.5 83t-20.5 83t-57.5 63t-76 22q-41 0 -77 -22l-23 68q50 24 102 24q35 0 74 -12.5t78.5 -46t60 -82.5t20.5 -97zM154 750v-750h-80v750h80z" />
    <glyph glyph-name="c" unicode="c" horiz-adv-x="558" 
d="M507 347l-67 -38q-23 42 -61.5 66.5t-81.5 24.5q-23 0 -50 -8.5t-52 -29.5t-43 -56t-18 -81q0 -37 16.5 -77.5t57.5 -69t89 -28.5q43 0 81.5 24.5t60.5 66.5l68 -39q-16 -27 -45 -56t-73.5 -47.5t-91.5 -18.5t-91.5 18t-78.5 51t-53.5 79t-19.5 97q0 38 13 80t48 83
t85 61.5t97 20.5q64 0 120.5 -33t89.5 -90z" />
    <glyph glyph-name="d" unicode="d" horiz-adv-x="610" 
d="M536 750v-750h-80v750h80zM387 436l-23 -68q-36 22 -76 22q-39 0 -76.5 -22t-58 -63t-20.5 -83t20.5 -83t58 -63t76.5 -22q40 0 76 22l22 -69q-48 -23 -101 -23q-35 0 -74 12.5t-78.5 46t-60 82.5t-20.5 97q0 35 12 75t45 80.5t81 61.5t95 21q52 0 102 -24z" />
    <glyph glyph-name="e" unicode="e" 
d="M504 298l-253 -141l-34 58l185 107q-17 33 -50 52t-69 19q-4 0 -17 -1t-40 -10.5t-54.5 -39t-38.5 -73.5h-81q6 34 23 68.5t50.5 66t76.5 46.5t82 15q31 0 66 -10t65 -31.5t53 -53t36 -72.5zM424 141l67 -39q-33 -56 -89 -86t-117 -30q-40 0 -78.5 13t-70 38t-54 62
t-30.5 82h81q7 -28 26 -58t53.5 -48.5t71.5 -18.5q41 0 80 22.5t60 62.5z" />
    <glyph glyph-name="f" unicode="f" horiz-adv-x="321" 
d="M288 750v-70h-97v-143h-80v213h177zM288 450v-70h-97v-380h-80v380h-77v70h254z" />
    <glyph glyph-name="g" unicode="g" horiz-adv-x="610" 
d="M387 436l-23 -68q-36 22 -76 22q-39 0 -76.5 -22t-58 -63t-20.5 -83t20.5 -83t58 -63t76.5 -22q40 0 76 22l22 -69q-48 -23 -101 -23q-35 0 -74 12.5t-78.5 46t-60 82.5t-20.5 97q0 35 12 75t45 80.5t81 61.5t95 21q52 0 102 -24zM536 450v-493q0 -38 -13 -79t-47.5 -80
t-84.5 -58.5t-97 -19.5t-92 18.5t-74 47.5t-45 56l68 40q22 -42 60.5 -66.5t82.5 -24.5q48 0 85 23.5t57 60t20 82.5v493h80z" />
    <glyph glyph-name="h" unicode="h" horiz-adv-x="558" 
d="M484 303v-303h-80v296q0 22 -10 45.5t-35 37.5t-55 14q-29 0 -58 -12l-15 67q36 15 77 15q30 0 62.5 -9.5t58 -30t40.5 -51t15 -69.5zM154 750v-750h-80v750h80z" />
    <glyph glyph-name="i" unicode="i" horiz-adv-x="234" 
d="M173 697q0 -23 -16.5 -39.5t-39.5 -16.5q-24 0 -40.5 16.5t-16.5 39.5q0 24 16.5 40.5t40.5 16.5q23 0 39.5 -16.5t16.5 -40.5zM157 450v-450h-80v450h80z" />
    <glyph glyph-name="j" unicode="j" horiz-adv-x="234" 
d="M173 697q0 -23 -16.5 -39.5t-39.5 -16.5q-24 0 -40.5 16.5t-16.5 39.5q0 24 16.5 40.5t40.5 16.5q23 0 39.5 -16.5t16.5 -40.5zM156 450v-719h-80v719h80z" />
    <glyph glyph-name="k" unicode="k" horiz-adv-x="487" 
d="M284 229l176 -199l-58 -48l-214 248l213 238l58 -47zM154 750v-750h-80v750h80z" />
    <glyph glyph-name="l" unicode="l" horiz-adv-x="228" 
d="M154 750v-750h-80v750h80z" />
    <glyph glyph-name="m" unicode="m" horiz-adv-x="784" 
d="M710 318v-318h-80v311q0 28 -14 48t-33 27t-34 7q-16 0 -39 -7l-18 63q33 14 66 14q27 0 63 -13.5t62.5 -48.5t26.5 -83zM432 318v-318h-80v311q0 19 -9 39t-30 32t-45 12q-14 0 -25 -4l-12 65q22 7 48 7q28 0 64 -13.5t62.5 -48.5t26.5 -82zM154 450v-450h-80v450h80z
" />
    <glyph glyph-name="n" unicode="n" horiz-adv-x="558" 
d="M484 303v-303h-80v296q0 22 -10 45.5t-35 37.5t-55 14q-29 0 -58 -12l-15 67q36 15 77 15q30 0 62.5 -9.5t58 -30t40.5 -51t15 -69.5zM154 450v-450h-80v450h80z" />
    <glyph glyph-name="o" unicode="o" horiz-adv-x="593" 
d="M539 225q0 -30 -9.5 -65.5t-32.5 -69.5t-62.5 -62.5t-94.5 -38.5v76q40 10 69.5 39t40 62.5t10.5 58.5q0 56 -32.5 101t-87.5 59v76q33 -6 67.5 -22.5t63.5 -46.5t48.5 -72.5t19.5 -94.5zM253 65v-76q-33 6 -67.5 22.5t-63.5 46.5t-48.5 72.5t-19.5 94.5q0 30 9.5 65.5
t32.5 69.5t62.5 62.5t94.5 38.5v-76q-40 -10 -69.5 -39t-40 -62.5t-10.5 -58.5q0 -56 32.5 -101t87.5 -59z" />
    <glyph glyph-name="p" unicode="p" horiz-adv-x="610" 
d="M556 222q0 -35 -12 -75t-45 -80.5t-81 -61.5t-95 -21q-53 0 -101 23l22 69q36 -22 77 -22q39 0 76 22t57.5 63t20.5 83t-20.5 83t-57.5 63t-76 22q-41 0 -77 -22l-23 68q50 24 102 24q35 0 74 -12.5t78.5 -46t60 -82.5t20.5 -97zM154 450v-719h-80v719h80z" />
    <glyph glyph-name="q" unicode="q" horiz-adv-x="610" 
d="M536 450v-719h-80v719h80zM387 436l-23 -68q-36 22 -76 22q-39 0 -76.5 -22t-58 -63t-20.5 -83t20.5 -83t58 -63t76.5 -22q40 0 76 22l22 -69q-48 -23 -101 -23q-35 0 -74 12.5t-78.5 46t-60 82.5t-20.5 97q0 35 12 75t45 80.5t81 61.5t95 21q52 0 102 -24z" />
    <glyph glyph-name="r" unicode="r" horiz-adv-x="351" 
d="M317 450v-70h-243v70h243zM154 300v-300h-80v300h80z" />
    <glyph glyph-name="s" unicode="s" horiz-adv-x="465" 
d="M419 354l-64 -29q-7 18 -24 37t-44 30.5t-54 11.5q-28 0 -52 -11.5t-33.5 -29t-9.5 -33.5q0 -21 14.5 -37t41.5 -21l8 -2l-18 -67l-9 2q-50 10 -81.5 42t-31.5 83q0 41 23 74.5t64.5 49.5t82.5 16q61 0 114 -30.5t73 -85.5zM420 124q0 -25 -10 -51t-37 -49.5t-65.5 -34
t-70.5 -10.5q-64 0 -118.5 32.5t-74.5 92.5l65 23q8 -19 25 -38.5t45.5 -31t57.5 -11.5q31 0 57.5 12.5t37.5 31.5t11 36q0 21 -16 37t-45 21l-10 2l18 67l15 -3q52 -10 83.5 -41.5t31.5 -84.5z" />
    <glyph glyph-name="t" unicode="t" horiz-adv-x="308" 
d="M194 750v-220h-80v166zM274 450v-70h-80v-380h-80v380h-80v70h240z" />
    <glyph glyph-name="u" unicode="u" horiz-adv-x="558" 
d="M484 450v-450h-80v450h80zM312 69l14 -67q-34 -15 -77 -15q-30 0 -66.5 11t-62.5 36.5t-36 54t-10 57.5v304h80v-297q0 -22 10 -45.5t35 -37.5t55 -14q27 0 58 13z" />
    <glyph glyph-name="v" unicode="v" horiz-adv-x="523" 
d="M434 465l69 -35l-145 -308l-69 36zM93 466l209 -452l-73 -28l-209 451z" />
    <glyph glyph-name="w" unicode="w" horiz-adv-x="747" 
d="M654 464l76 -29l-98 -266l-75 29zM341 464l76 -29l-98 -266l-75 29zM473 288l98 -274l-76 -25l-99 273zM95 465l163 -452l-77 -24l-163 451z" />
    <glyph glyph-name="x" unicode="x" horiz-adv-x="489" 
d="M404 470l57 -45l-122 -145l-57 45zM89 468l372 -439l-58 -44l-371 439zM154 175l58 -45l-123 -145l-57 45z" />
    <glyph glyph-name="y" unicode="y" horiz-adv-x="523" 
d="M433 464l70 -34l-141 -297l-68 35zM93 465l211 -457l-133 -284l-69 35l117 249l-199 429z" />
    <glyph glyph-name="z" unicode="z" horiz-adv-x="501" 
d="M274 450v-70h-213v70h213zM410 464l58 -49l-375 -430l-57 49zM447 70v-70h-215v70h215z" />
    <glyph glyph-name="braceleft" unicode="{" horiz-adv-x="351" 
d="M325 750v-70h-28q-45 0 -70 -25t-25 -73v-128q0 -31 -7 -52l-78 16q5 13 5 36v128q0 77 48 122.5t127 45.5h28zM170 350v-70h-150v70h150zM325 -50v-70h-28q-79 0 -127 45.5t-48 122.5v128q0 22 -5 36l78 16q7 -21 7 -52v-128q0 -48 25 -73t70 -25h28z" />
    <glyph glyph-name="bar" unicode="|" horiz-adv-x="297" 
d="M189 750v-870h-80v870h80z" />
    <glyph glyph-name="braceright" unicode="}" horiz-adv-x="351" 
d="M234 418l-78 -16q-7 21 -7 52v128q0 48 -25 73t-70 25h-28v70h28q79 0 127 -45.5t48 -122.5v-128q0 -23 5 -36zM331 350v-70h-150v70h150zM156 228l78 -16q-5 -14 -5 -36v-128q0 -77 -48 -122.5t-127 -45.5h-28v70h28q45 0 69.5 25t24.5 73v128q2 33 8 52z" />
    <glyph glyph-name="asciitilde" unicode="~" horiz-adv-x="590" 
d="M475 360h82q0 -44 -18 -78.5t-53 -57t-84 -22.5q-37 0 -65.5 10.5t-57 34t-38.5 31t-24 12t-28 4.5q-31 0 -52 -20.5t-21 -58.5h-83q0 70 45 113.5t111 43.5q32 0 60 -9t57 -33t40.5 -32.5t26.5 -13t29 -4.5q32 0 52.5 21t20.5 59z" />
    <glyph glyph-name="uni007F" horiz-adv-x="1000" 
 />
    <glyph glyph-name="exclamdown" unicode="&#xa1;" horiz-adv-x="281" 
d="M200 427q0 -24 -17.5 -42t-41.5 -18t-42 18t-18 42t18 41.5t42 17.5t41.5 -17.5t17.5 -41.5zM181 244v-523h-80v523h80z" />
    <glyph glyph-name="cent" unicode="&#xa2;" 
d="M500 347l-67 -38q-23 42 -61.5 66.5t-81.5 24.5q-23 0 -50 -8.5t-52 -29.5t-43 -56t-18 -81q0 -37 16.5 -77.5t57.5 -69t89 -28.5q43 0 81.5 24.5t60.5 66.5l68 -39q-28 -48 -73 -78.5t-98 -38.5v-125h-80v125q-41 7 -78 27.5t-64.5 52t-43.5 73t-16 87.5q0 34 10.5 72
t39 76.5t70 61.5t82.5 30v124h80v-124q53 -8 98.5 -39t72.5 -79z" />
    <glyph glyph-name="sterling" unicode="&#xa3;" horiz-adv-x="576" 
d="M506 585l-71 -22q-9 61 -47.5 99t-91.5 38q-30 0 -58 -12.5t-44 -44t-16 -70.5q0 -23 5 -51l11 -47l-75 -15l-13 60q-6 30 -6 58q0 29 9 61.5t34.5 65t67.5 49t87 16.5q36 0 70 -11t63 -34t48.5 -58.5t26.5 -81.5zM440 410v-70h-216l46 -204l-75 -16l-49 220h-76v70h370z
M494 70v-70h-424v70h424z" />
    <glyph glyph-name="yen" unicode="&#xa5;" horiz-adv-x="695" 
d="M596 775l63 -47l-174 -226l-63 47zM102 775l173 -226l-63 -47l-173 226zM606 458v-70h-517v70h517zM607 280v-70h-219v-210h-80v210h-219v70h518z" />
    <glyph glyph-name="section" unicode="&#xa7;" horiz-adv-x="465" 
d="M436 632l-65 -24q-8 19 -26 38.5t-46.5 31t-57.5 11.5q-33 0 -59.5 -13.5t-36.5 -33t-10 -36.5q0 -22 14 -42t40 -33l214 -105l-35 -63l-223 109q-42 21 -64 56.5t-22 75.5q0 23 9 48.5t30.5 48.5t57.5 39.5t86 16.5q64 0 119 -33t75 -92zM421 132q0 -23 -9 -48.5
t-30.5 -48.5t-58 -39.5t-85.5 -16.5q-65 0 -119.5 32.5t-74.5 92.5l65 23q7 -19 25 -38.5t47 -31t58 -11.5q34 0 60 14t35.5 33.5t9.5 36.5q0 22 -13.5 42t-39.5 33l-214 105l35 63l223 -110q42 -21 64 -56.5t22 -74.5z" />
    <glyph glyph-name="dieresis" unicode="&#xa8;" horiz-adv-x="589" 
d="M455 710q0 -21 -15.5 -36t-36.5 -15t-36 15t-15 36t15 36.5t36 15.5t36.5 -15.5t15.5 -36.5zM238 710q0 -21 -15 -36t-36 -15t-36.5 15t-15.5 36t15.5 36.5t36.5 15.5t36 -15.5t15 -36.5z" />
    <glyph glyph-name="copyright" unicode="&#xa9;" horiz-adv-x="890" 
d="M838 419h-80q-8 58 -35 110t-69.5 90t-96 59.5t-111.5 21.5t-112 -21.5t-96.5 -59.5t-69.5 -90t-35 -110h-81q8 72 42 137t87 113t121.5 74.5t142.5 26.5t142.5 -26.5t121.5 -74.5t87 -113t42 -137zM644 482l-64 -39q-19 41 -53.5 65t-76.5 24q-25 0 -54.5 -10.5
t-53.5 -38t-33 -64.5h-81q11 60 45 101t79.5 62t97.5 21q55 0 107 -28.5t87 -92.5zM580 307l64 -39q-30 -56 -80.5 -88.5t-113.5 -32.5q-85 0 -147 52t-76 133h82q5 -24 21.5 -51t49 -45t70.5 -18q42 0 76.5 24.5t53.5 64.5zM758 332h80q-8 -72 -41.5 -137t-87 -113
t-122 -75t-142.5 -27t-142.5 27t-122 75t-87 113t-41.5 137h81q8 -58 35 -110t69.5 -90.5t96.5 -60t112 -21.5t111.5 21.5t96 60t69.5 90.5t35 110z" />
    <glyph glyph-name="guillemotleft" unicode="&#xab;" horiz-adv-x="521" 
d="M359 252l132 -132l-50 -49l-181 180l181 181l50 -50zM129 252l132 -132l-50 -49l-181 180l181 181l50 -50z" />
    <glyph glyph-name="registered" unicode="&#xae;" horiz-adv-x="890" 
d="M838 419h-80q-8 58 -35 110t-69.5 90t-96 59.5t-111.5 21.5t-112 -21.5t-96.5 -59.5t-69.5 -90t-35 -110h-81q8 72 42 137t87 113t121.5 74.5t142.5 26.5t142.5 -26.5t121.5 -74.5t87 -113t42 -137zM622 468q0 -22 -12 -51t-46 -49.5t-87 -20.5h-48v67h55q28 0 44 15.5
t16 38.5t-16 38.5t-44 15.5h-55v67h48q44 0 76.5 -15t50.5 -43.5t18 -62.5zM530 321l91 -120l-65 -48l-91 120zM376 589v-422h-80v422h80zM758 332h80q-8 -72 -41.5 -137t-87 -113t-122 -75t-142.5 -27t-142.5 27t-122 75t-87 113t-41.5 137h81q8 -58 35 -110t69.5 -90.5
t96.5 -60t112 -21.5t111.5 21.5t96 60t69.5 90.5t35 110z" />
    <glyph glyph-name="macron" unicode="&#xaf;" horiz-adv-x="590" 
d="M458 740v-71h-329v71h329z" />
    <glyph glyph-name="degree" unicode="&#xb0;" horiz-adv-x="471" 
d="M425 580q0 -66 -42 -118t-105 -66v64q36 14 59 47.5t23 72.5q0 29 -13.5 56t-32.5 42.5t-36 21.5v65q29 -7 63 -28.5t59 -63.5t25 -93zM191 461v-65q-29 7 -63 29t-58 64.5t-24 90.5q0 34 14.5 71.5t50 69.5t80.5 43v-65q-35 -14 -57.5 -47t-22.5 -72t22.5 -72t57.5 -47z
" />
    <glyph glyph-name="uni00B2" unicode="&#xb2;" horiz-adv-x="432" 
d="M369 629q0 -57 -46 -102l-119 -115l-52 51l109 103q13 12 20.5 30t7.5 34q0 27 -19 46.5t-53 19.5q-33 0 -52.5 -19.5t-19.5 -46.5v-18h-81v17q0 42 25 73.5t61.5 43.5t66.5 12t66 -12t61 -43.5t25 -73.5zM366 371v-71h-304v71h304z" />
    <glyph glyph-name="uni00B3" unicode="&#xb3;" horiz-adv-x="430" 
d="M363 627q0 -9 -3 -24t-6 -23l-73 29q4 9 4 21q0 29 -20 47t-50 18t-49.5 -17.5t-19.5 -47.5v-15h-78v12q0 47 25.5 78t60 42t61.5 11t61.5 -11t60.5 -42t26 -78zM368 427q0 -59 -43 -98t-111 -39t-111.5 39t-43.5 98v13h78v-14q0 -16 8 -33.5t27.5 -28.5t41.5 -11
t41.5 11t27.5 28.5t8 33.5q0 32 -22 52.5t-56 20.5h-39v64h39q28 0 55.5 -7.5t53 -28t36 -49t10.5 -51.5z" />
    <glyph glyph-name="acute" unicode="&#xb4;" horiz-adv-x="590" 
d="M392 788l36 -56l-240 -139l-36 56z" />
    <glyph glyph-name="paragraph" unicode="&#xb6;" horiz-adv-x="694" 
d="M652 750v-70h-358q-24 0 -49 -8t-48 -28.5t-35 -51t-12 -57.5q0 -18 4.5 -36t14 -36.5t32 -39.5t61.5 -29l-22 -69q-29 6 -59 21t-57.5 45t-40.5 69t-13 75q0 52 26.5 104t80 81.5t115.5 29.5h360zM582 590v-690h-80v690h80zM404 590v-690h-80v690h80z" />
    <glyph glyph-name="periodcentered" unicode="&#xb7;" horiz-adv-x="228" 
d="M174 275q0 -24 -18 -42t-42 -18t-42 18t-18 42t18 42t42 18t42 -18t18 -42z" />
    <glyph glyph-name="cedilla" unicode="&#xb8;" 
d="M369 -139q0 -20 -10 -42.5t-35 -38t-54 -15.5q-28 0 -52.5 14.5t-38.5 41.5l44 26q8 -12 21.5 -21.5t26.5 -9.5q19 0 32 13t13 31q0 16 -11.5 28t-27.5 12q-19 0 -32 -17l-44 33l88 112l45 -34l-40 -49q36 -6 55.5 -30t19.5 -54z" />
    <glyph glyph-name="uni00B9" unicode="&#xb9;" horiz-adv-x="404" 
d="M312 750v-450h-80v354l-129 -120l-47 48l176 168h80z" />
    <glyph glyph-name="guillemotright" unicode="&#xbb;" horiz-adv-x="521" 
d="M310 432l181 -181l-181 -180l-50 49l131 131l-131 131zM80 432l181 -181l-181 -180l-50 49l131 131l-131 131z" />
    <glyph glyph-name="onequarter" unicode="&#xbc;" horiz-adv-x="976" 
d="M914 144v-70h-80v-74h-80v75h-225v65l118 186l58 -37l-92 -145h141v306h80v-306h80zM674 770l62 -34l-434 -751l-62 34zM318 750v-450h-80v354l-129 -120l-47 48l176 168h80z" />
    <glyph glyph-name="onehalf" unicode="&#xbd;" horiz-adv-x="986" 
d="M924 329q0 -57 -46 -102l-119 -115l-52 51l109 103q13 12 20.5 30t7.5 34q0 27 -19 46.5t-53 19.5q-33 0 -52.5 -19.5t-19.5 -46.5v-18h-81v17q0 42 25 73.5t61.5 43.5t66.5 12t66 -12t61 -43.5t25 -73.5zM674 770l62 -34l-434 -751l-62 34zM921 71v-71h-304v71h304z
M318 750v-450h-80v354l-129 -120l-47 48l176 168h80z" />
    <glyph glyph-name="threequarters" unicode="&#xbe;" horiz-adv-x="995" 
d="M933 144v-70h-80v-74h-80v75h-225v65l118 186l58 -37l-92 -145h141v306h80v-306h80zM692 770l63 -34l-434 -751l-62 34zM358 627q0 -9 -3 -24t-6 -23l-73 29q4 9 4 21q0 29 -20 47t-50 18t-49.5 -17.5t-19.5 -47.5v-15h-78v12q0 47 25.5 78t60 42t61.5 11t61.5 -11
t60.5 -42t26 -78zM363 427q0 -59 -43 -98t-111 -39t-111.5 39t-43.5 98v13h78v-14q0 -16 8 -33.5t27.5 -28.5t41.5 -11t41.5 11t27.5 28.5t8 33.5q0 32 -22 52.5t-56 20.5h-39v64h39q28 0 55.5 -7.5t53 -28t36 -49t10.5 -51.5z" />
    <glyph glyph-name="questiondown" unicode="&#xbf;" horiz-adv-x="533" 
d="M370 435q0 -24 -18 -42t-42 -18t-41.5 18t-17.5 42t17.5 41.5t41.5 17.5t42 -17.5t18 -41.5zM458 -88l65 -25q-15 -55 -49 -94t-84.5 -62t-111.5 -23q-52 0 -96.5 17t-76 47t-48.5 70t-17 85q0 53 26.5 106.5t72.5 92.5l160 133l51 -56l-160 -134q-33 -27 -52.5 -66
t-19.5 -78q0 -64 45 -105.5t114 -41.5q59 0 110 34.5t71 99.5z" />
    <glyph glyph-name="Agrave" unicode="&#xc0;" horiz-adv-x="734" 
d="M403 762l303 -749l-76 -27l-303 750zM435 279v-70h-242l-89 -223l-76 27l229 573l76 -27l-113 -280h215zM276 998l240 -139l-36 -56l-240 139z" />
    <glyph glyph-name="Aacute" unicode="&#xc1;" horiz-adv-x="734" 
d="M403 762l303 -749l-76 -27l-303 750zM435 279v-70h-242l-89 -223l-76 27l229 573l76 -27l-113 -280h215zM462 998l36 -56l-240 -139l-36 56z" />
    <glyph glyph-name="Acircumflex" unicode="&#xc2;" horiz-adv-x="734" 
d="M403 762l303 -749l-76 -27l-303 750zM435 279v-70h-242l-89 -223l-76 27l229 573l76 -27l-113 -280h215zM375 978l168 -146l-46 -48l-122 106l-123 -106l-45 48z" />
    <glyph glyph-name="Atilde" unicode="&#xc3;" horiz-adv-x="734" 
d="M403 762l303 -749l-76 -27l-303 750zM435 279v-70h-242l-89 -223l-76 27l229 573l76 -27l-113 -280h215zM473 960h58q-1 -20 -11.5 -44t-35.5 -40t-55 -16q-14 0 -27.5 2.5t-25 9t-33 25t-41.5 18.5q-17 0 -29.5 -12.5t-14.5 -33.5h-58q3 43 32.5 71.5t69.5 28.5
q14 0 27.5 -2.5t25 -9t33 -25t41.5 -18.5q17 0 29.5 12.5t14.5 33.5z" />
    <glyph glyph-name="Adieresis" unicode="&#xc4;" horiz-adv-x="734" 
d="M403 762l303 -749l-76 -27l-303 750zM435 279v-70h-242l-89 -223l-76 27l229 573l76 -27l-113 -280h215zM519 904q0 -21 -15.5 -36t-36.5 -15t-36 15t-15 36t15 36.5t36 15.5t36.5 -15.5t15.5 -36.5zM302 904q0 -21 -15 -36t-36 -15t-36.5 15t-15.5 36t15.5 36.5
t36.5 15.5t36 -15.5t15 -36.5z" />
    <glyph glyph-name="Aring" unicode="&#xc5;" horiz-adv-x="734" 
d="M403 762l303 -749l-76 -27l-303 750zM435 279v-70h-242l-89 -223l-76 27l229 573l76 -27l-113 -280h215zM467 895q0 -30 -16 -55.5t-42 -39.5l-20 48q11 7 18.5 20t7.5 28q0 23 -16.5 39.5t-39.5 16.5t-39.5 -16.5t-16.5 -39.5q0 -14 7.5 -27.5t18.5 -20.5l-20 -47
q-26 14 -41.5 39t-15.5 55q0 21 10.5 46t37.5 43.5t59 18.5q21 0 46 -10.5t43.5 -38t18.5 -59.5z" />
    <glyph glyph-name="AE" unicode="&#xc6;" horiz-adv-x="1031" 
d="M920 410v-70h-231v70h231zM961 70v-70h-439v556h80v-486h359zM961 750v-70h-434l-253 -401h161v-70h-205l-141 -224l-71 40l458 725h485z" />
    <glyph glyph-name="Ccedilla" unicode="&#xc7;" horiz-adv-x="839" 
d="M774 524l-73 -31q-13 37 -36 74t-57.5 66.5t-80.5 48t-100 18.5q-51 0 -100.5 -18.5t-90 -55t-67.5 -89.5t-34 -118h-80q4 39 17.5 87t42 93.5t73.5 84.5t108.5 62.5t129.5 23.5q54 0 107 -15.5t99.5 -46.5t83 -78t58.5 -106zM700 256l74 -31q-22 -59 -59 -105.5
t-83.5 -77.5t-99 -46.5t-106.5 -15.5q-66 0 -130 23.5t-115.5 68.5t-80 102.5t-36.5 99.5t-9 58h80q7 -65 33.5 -118.5t67.5 -89.5t90.5 -55t100.5 -19q65 0 119.5 27t93.5 72t60 107zM539 -139q0 -20 -10 -42.5t-35 -38t-54 -15.5q-28 0 -52.5 14.5t-38.5 41.5l44 26
q8 -12 21.5 -21.5t26.5 -9.5q19 0 32 13t13 31q0 16 -11.5 28t-27.5 12q-19 0 -32 -17l-44 33l88 112l45 -34l-40 -49q36 -6 55.5 -30t19.5 -54z" />
    <glyph glyph-name="Egrave" unicode="&#xc8;" horiz-adv-x="589" 
d="M462 410v-70h-215v70h215zM519 70v-70h-439v750h439v-70h-359v-610h359zM216 998l240 -139l-36 -56l-240 139z" />
    <glyph glyph-name="Eacute" unicode="&#xc9;" horiz-adv-x="589" 
d="M462 410v-70h-215v70h215zM519 70v-70h-439v750h439v-70h-359v-610h359zM422 998l36 -56l-240 -139l-36 56z" />
    <glyph glyph-name="Ecircumflex" unicode="&#xca;" horiz-adv-x="589" 
d="M462 410v-70h-215v70h215zM519 70v-70h-439v750h439v-70h-359v-610h359zM305 978l168 -146l-46 -48l-122 106l-123 -106l-45 48z" />
    <glyph glyph-name="Edieresis" unicode="&#xcb;" horiz-adv-x="589" 
d="M462 410v-70h-215v70h215zM519 70v-70h-439v750h439v-70h-359v-610h359zM459 904q0 -21 -15.5 -36t-36.5 -15t-36 15t-15 36t15 36.5t36 15.5t36.5 -15.5t15.5 -36.5zM242 904q0 -21 -15 -36t-36 -15t-36.5 15t-15.5 36t15.5 36.5t36.5 15.5t36 -15.5t15 -36.5z" />
    <glyph glyph-name="Igrave" unicode="&#xcc;" horiz-adv-x="260" 
d="M160 750v-750h-80v750h80zM28 998l240 -139l-36 -56l-240 139z" />
    <glyph glyph-name="Iacute" unicode="&#xcd;" horiz-adv-x="260" 
d="M160 750v-750h-80v750h80zM233 998l36 -56l-240 -139l-36 56z" />
    <glyph glyph-name="Icircumflex" unicode="&#xce;" horiz-adv-x="260" 
d="M161 750v-750h-80v750h80zM131 978l168 -146l-46 -48l-122 106l-123 -106l-45 48z" />
    <glyph glyph-name="Idieresis" unicode="&#xcf;" horiz-adv-x="260" 
d="M161 750v-750h-80v750h80zM292 904q0 -21 -15.5 -36t-36.5 -15t-36 15t-15 36t15 36.5t36 15.5t36.5 -15.5t15.5 -36.5zM75 904q0 -21 -15 -36t-36 -15t-36.5 15t-15.5 36t15.5 36.5t36.5 15.5t36 -15.5t15 -36.5z" />
    <glyph glyph-name="Eth" unicode="&#xd0;" horiz-adv-x="771" 
d="M721 375q0 -53 -17 -115t-59 -119t-96.5 -89t-102.5 -42t-87 -10h-98v70h88q64 0 118.5 24.5t93 67.5t59 98.5t20.5 114.5t-20.5 114.5t-59 98.5t-93 67.5t-118.5 24.5h-88v70h98q60 0 114.5 -17.5t97.5 -49.5t74.5 -74.5t50 -93t22 -88.5t3.5 -52zM282 414v-70h-108
v-344h-80v344h-105v70h105v336h80v-336h108z" />
    <glyph glyph-name="Ntilde" unicode="&#xd1;" horiz-adv-x="741" 
d="M655 750v-500h-80v500h80zM143 768l518 -744l-64 -42l-519 744zM170 500v-500h-80v500h80zM473 960h58q-1 -20 -11.5 -44t-35.5 -40t-55 -16q-14 0 -27.5 2.5t-25 9t-33 25t-41.5 18.5q-17 0 -29.5 -12.5t-14.5 -33.5h-58q3 43 32.5 71.5t69.5 28.5q14 0 27.5 -2.5t25 -9
t33 -25t41.5 -18.5q17 0 29.5 12.5t14.5 33.5z" />
    <glyph glyph-name="Ograve" unicode="&#xd2;" horiz-adv-x="870" 
d="M815 419h-80q-5 46 -24.5 95t-62.5 95t-101 68.5t-112 22.5q-40 0 -86.5 -13t-96.5 -50.5t-80.5 -96.5t-37.5 -121h-80q8 78 41.5 144t86.5 112.5t119 71t135 24.5q51 0 110.5 -16.5t115.5 -57.5t89.5 -94t47 -99.5t16.5 -84.5zM735 332h80q-7 -78 -40.5 -144.5
t-85.5 -113t-118 -71t-135 -24.5t-135.5 24.5t-119 71t-86.5 113t-41 144.5h80q7 -62 34 -115t68 -90t93 -57t106 -20t105.5 20t93 57t68 90t33.5 115zM356 998l240 -139l-36 -56l-240 139z" />
    <glyph glyph-name="Oacute" unicode="&#xd3;" horiz-adv-x="870" 
d="M815 419h-80q-5 46 -24.5 95t-62.5 95t-101 68.5t-112 22.5q-40 0 -86.5 -13t-96.5 -50.5t-80.5 -96.5t-37.5 -121h-80q8 78 41.5 144t86.5 112.5t119 71t135 24.5q51 0 110.5 -16.5t115.5 -57.5t89.5 -94t47 -99.5t16.5 -84.5zM735 332h80q-7 -78 -40.5 -144.5
t-85.5 -113t-118 -71t-135 -24.5t-135.5 24.5t-119 71t-86.5 113t-41 144.5h80q7 -62 34 -115t68 -90t93 -57t106 -20t105.5 20t93 57t68 90t33.5 115zM537 998l36 -56l-240 -139l-36 56z" />
    <glyph glyph-name="Ocircumflex" unicode="&#xd4;" horiz-adv-x="870" 
d="M815 419h-80q-5 46 -24.5 95t-62.5 95t-101 68.5t-112 22.5q-40 0 -86.5 -13t-96.5 -50.5t-80.5 -96.5t-37.5 -121h-80q8 78 41.5 144t86.5 112.5t119 71t135 24.5q51 0 110.5 -16.5t115.5 -57.5t89.5 -94t47 -99.5t16.5 -84.5zM735 332h80q-7 -78 -40.5 -144.5
t-85.5 -113t-118 -71t-135 -24.5t-135.5 24.5t-119 71t-86.5 113t-41 144.5h80q7 -62 34 -115t68 -90t93 -57t106 -20t105.5 20t93 57t68 90t33.5 115zM436 978l168 -146l-46 -48l-122 106l-123 -106l-45 48z" />
    <glyph glyph-name="Otilde" unicode="&#xd5;" horiz-adv-x="870" 
d="M815 419h-80q-5 46 -24.5 95t-62.5 95t-101 68.5t-112 22.5q-40 0 -86.5 -13t-96.5 -50.5t-80.5 -96.5t-37.5 -121h-80q8 78 41.5 144t86.5 112.5t119 71t135 24.5q51 0 110.5 -16.5t115.5 -57.5t89.5 -94t47 -99.5t16.5 -84.5zM735 332h80q-7 -78 -40.5 -144.5
t-85.5 -113t-118 -71t-135 -24.5t-135.5 24.5t-119 71t-86.5 113t-41 144.5h80q7 -62 34 -115t68 -90t93 -57t106 -20t105.5 20t93 57t68 90t33.5 115zM553 960h58q-1 -20 -11.5 -44t-35.5 -40t-55 -16q-14 0 -27.5 2.5t-25 9t-33 25t-41.5 18.5q-17 0 -29.5 -12.5
t-14.5 -33.5h-58q3 43 32.5 71.5t69.5 28.5q14 0 27.5 -2.5t25 -9t33 -25t41.5 -18.5q17 0 29.5 12.5t14.5 33.5z" />
    <glyph glyph-name="Odieresis" unicode="&#xd6;" horiz-adv-x="870" 
d="M815 419h-80q-5 46 -24.5 95t-62.5 95t-101 68.5t-112 22.5q-40 0 -86.5 -13t-96.5 -50.5t-80.5 -96.5t-37.5 -121h-80q8 78 41.5 144t86.5 112.5t119 71t135 24.5q51 0 110.5 -16.5t115.5 -57.5t89.5 -94t47 -99.5t16.5 -84.5zM735 332h80q-7 -78 -40.5 -144.5
t-85.5 -113t-118 -71t-135 -24.5t-135.5 24.5t-119 71t-86.5 113t-41 144.5h80q7 -62 34 -115t68 -90t93 -57t106 -20t105.5 20t93 57t68 90t33.5 115zM601 904q0 -21 -15.5 -36t-36.5 -15t-36 15t-15 36t15 36.5t36 15.5t36.5 -15.5t15.5 -36.5zM384 904q0 -21 -15 -36
t-36 -15t-36.5 15t-15.5 36t15.5 36.5t36.5 15.5t36 -15.5t15 -36.5z" />
    <glyph glyph-name="multiply" unicode="&#xd7;" horiz-adv-x="618" 
d="M309 318l-166 -166l-57 57l166 166l-166 166l57 57l166 -166l166 166l57 -57l-166 -166l166 -166l-57 -57z" />
    <glyph glyph-name="Oslash" unicode="&#xd8;" horiz-adv-x="870" 
d="M846 376q0 -79 -30.5 -152t-85.5 -127.5t-127.5 -85t-151.5 -30.5q-32 0 -57 4l11 70q19 -4 45 -4q63 0 121 25t101.5 70t68 105t24.5 125q0 49 -14.5 97t-37.5 82t-45 55l52 54q43 -40 73.5 -93.5t41.5 -104.5t11 -90zM620 820l65 -30l-404 -860l-66 31zM506 765
l-10 -69q-30 4 -46 4q-63 0 -121 -25.5t-101.5 -70.5t-68 -104.5t-24.5 -124.5q0 -67 26 -128.5t72 -105.5l-53 -54q-43 40 -73.5 93t-41.5 104.5t-11 90.5q0 79 30.5 151.5t85.5 127.5t127.5 85.5t151.5 30.5q27 0 57 -5z" />
    <glyph glyph-name="Ugrave" unicode="&#xd9;" horiz-adv-x="748" 
d="M668 750v-490q0 -52 -19 -99.5t-53.5 -85t-80.5 -61.5t-98 -31v72q45 9 86 37.5t63 74t22 93.5v490h80zM330 55v-72q-52 7 -98 31.5t-80 61.5t-53 84.5t-19 99.5v490h80v-490q0 -47 19.5 -88.5t58 -73.5t92.5 -43zM272 998l240 -139l-36 -56l-240 139z" />
    <glyph glyph-name="Uacute" unicode="&#xda;" horiz-adv-x="748" 
d="M668 750v-490q0 -52 -19 -99.5t-53.5 -85t-80.5 -61.5t-98 -31v72q45 9 86 37.5t63 74t22 93.5v490h80zM330 55v-72q-52 7 -98 31.5t-80 61.5t-53 84.5t-19 99.5v490h80v-490q0 -47 19.5 -88.5t58 -73.5t92.5 -43zM473 998l36 -56l-240 -139l-36 56z" />
    <glyph glyph-name="Ucircumflex" unicode="&#xdb;" horiz-adv-x="748" 
d="M668 750v-490q0 -52 -19 -99.5t-53.5 -85t-80.5 -61.5t-98 -31v72q45 9 86 37.5t63 74t22 93.5v490h80zM330 55v-72q-52 7 -98 31.5t-80 61.5t-53 84.5t-19 99.5v490h80v-490q0 -47 19.5 -88.5t58 -73.5t92.5 -43zM374 978l168 -146l-46 -48l-122 106l-123 -106l-45 48z
" />
    <glyph glyph-name="Udieresis" unicode="&#xdc;" horiz-adv-x="748" 
d="M668 750v-490q0 -52 -19 -99.5t-53.5 -85t-80.5 -61.5t-98 -31v72q45 9 86 37.5t63 74t22 93.5v490h80zM330 55v-72q-52 7 -98 31.5t-80 61.5t-53 84.5t-19 99.5v490h80v-490q0 -47 19.5 -88.5t58 -73.5t92.5 -43zM534 904q0 -21 -15.5 -36t-36.5 -15t-36 15t-15 36
t15 36.5t36 15.5t36.5 -15.5t15.5 -36.5zM317 904q0 -21 -15 -36t-36 -15t-36.5 15t-15.5 36t15.5 36.5t36.5 15.5t36 -15.5t15 -36.5z" />
    <glyph glyph-name="Yacute" unicode="&#xdd;" horiz-adv-x="710" 
d="M611 765l65 -43l-280 -395v-327h-80v348zM100 765l209 -296l-65 -43l-210 296zM462 998l36 -56l-240 -139l-36 56z" />
    <glyph glyph-name="Thorn" unicode="&#xde;" horiz-adv-x="602" 
d="M564 375q0 -41 -16 -79t-44.5 -66t-66 -44t-78.5 -16h-112v70h109q20 0 42 7t41 23.5t32 43.5t13 61q0 40 -21 73.5t-50 47.5t-57 14h-109v70h112q41 0 78.5 -16t66 -44.5t44.5 -66t16 -78.5zM160 750v-750h-80v750h80z" />
    <glyph glyph-name="germandbls" unicode="&#xdf;" horiz-adv-x="611" 
d="M524 570q0 -30 -10.5 -63.5t-29.5 -59.5l-166 -232l-59 40l164 230q12 17 19 39t7 42q0 24 -11.5 54t-42.5 54t-75 24q-23 0 -50.5 -10t-46 -31t-25.5 -44.5t-7 -47.5v-185h-157v70h76v115q0 61 26 105.5t73.5 71.5t107.5 27q39 0 76.5 -13t67 -38t46.5 -63t17 -85z
M571 119q0 -49 -26 -82.5t-61 -46t-62 -12.5q-38 0 -70 15t-55 40.5t-35 61.5l65 23q14 -36 40 -54t54 -18q30 0 51.5 19.5t21.5 50.5q0 23 -14 42.5t-40 27.5l-45 13l21 65l60 -18q22 -6 45 -23t36.5 -45.5t13.5 -58.5zM111 300h80v-300h-80v300z" />
    <glyph glyph-name="agrave" unicode="&#xe0;" horiz-adv-x="545" 
d="M191 788l240 -139l-36 -56l-240 139zM471 299v-299h-80v290q0 28 -12.5 53t-44.5 39.5t-71 14.5q-37 0 -75.5 -11t-63.5 -28l-27 67q35 20 79.5 31t89.5 11q63 0 108.5 -20t71 -57t25.5 -91zM299 71l15 -65q-50 -14 -87 -14q-52 0 -90 19t-61 53t-23 78t23 78t61 53
t90 19q37 0 87 -14l-15 -65q-36 12 -70 12q-22 0 -45.5 -8.5t-38 -29t-14.5 -44.5t14.5 -45.5t38 -30t45.5 -8.5q34 0 70 12z" />
    <glyph glyph-name="aacute" unicode="&#xe1;" horiz-adv-x="545" 
d="M471 299v-299h-80v290q0 28 -12.5 53t-44.5 39.5t-71 14.5q-37 0 -75.5 -11t-63.5 -28l-27 67q35 20 79.5 31t89.5 11q63 0 108.5 -20t71 -57t25.5 -91zM299 71l15 -65q-50 -14 -87 -14q-52 0 -90 19t-61 53t-23 78t23 78t61 53t90 19q37 0 87 -14l-15 -65q-36 12 -70 12
q-22 0 -45.5 -8.5t-38 -29t-14.5 -44.5t14.5 -45.5t38 -30t45.5 -8.5q34 0 70 12zM392 788l36 -56l-240 -139l-36 56z" />
    <glyph glyph-name="acircumflex" unicode="&#xe2;" horiz-adv-x="545" 
d="M471 299v-299h-80v290q0 28 -12.5 53t-44.5 39.5t-71 14.5q-37 0 -75.5 -11t-63.5 -28l-27 67q35 20 79.5 31t89.5 11q63 0 108.5 -20t71 -57t25.5 -91zM299 71l15 -65q-50 -14 -87 -14q-52 0 -90 19t-61 53t-23 78t23 78t61 53t90 19q37 0 87 -14l-15 -65q-36 12 -70 12
q-22 0 -45.5 -8.5t-38 -29t-14.5 -44.5t14.5 -45.5t38 -30t45.5 -8.5q34 0 70 12zM290 788l168 -146l-46 -48l-122 106l-123 -106l-45 48z" />
    <glyph glyph-name="atilde" unicode="&#xe3;" horiz-adv-x="545" 
d="M471 299v-299h-80v290q0 28 -12.5 53t-44.5 39.5t-71 14.5q-37 0 -75.5 -11t-63.5 -28l-27 67q35 20 79.5 31t89.5 11q63 0 108.5 -20t71 -57t25.5 -91zM299 71l15 -65q-50 -14 -87 -14q-52 0 -90 19t-61 53t-23 78t23 78t61 53t90 19q37 0 87 -14l-15 -65q-36 12 -70 12
q-22 0 -45.5 -8.5t-38 -29t-14.5 -44.5t14.5 -45.5t38 -30t45.5 -8.5q34 0 70 12zM399 750h58q-1 -20 -11.5 -44t-35.5 -40t-55 -16q-14 0 -27.5 2.5t-25 9t-33 25t-41.5 18.5q-17 0 -29.5 -12.5t-14.5 -33.5h-58q3 43 32.5 71.5t69.5 28.5q14 0 27.5 -2.5t25 -9t33 -25
t41.5 -18.5q17 0 29.5 12.5t14.5 33.5z" />
    <glyph glyph-name="adieresis" unicode="&#xe4;" horiz-adv-x="545" 
d="M471 299v-299h-80v290q0 28 -12.5 53t-44.5 39.5t-71 14.5q-37 0 -75.5 -11t-63.5 -28l-27 67q35 20 79.5 31t89.5 11q63 0 108.5 -20t71 -57t25.5 -91zM299 71l15 -65q-50 -14 -87 -14q-52 0 -90 19t-61 53t-23 78t23 78t61 53t90 19q37 0 87 -14l-15 -65q-36 12 -70 12
q-22 0 -45.5 -8.5t-38 -29t-14.5 -44.5t14.5 -45.5t38 -30t45.5 -8.5q34 0 70 12zM445 710q0 -21 -15.5 -36t-36.5 -15t-36 15t-15 36t15 36.5t36 15.5t36.5 -15.5t15.5 -36.5zM228 710q0 -21 -15 -36t-36 -15t-36.5 15t-15.5 36t15.5 36.5t36.5 15.5t36 -15.5t15 -36.5z
" />
    <glyph glyph-name="aring" unicode="&#xe5;" horiz-adv-x="545" 
d="M471 299v-299h-80v290q0 28 -12.5 53t-44.5 39.5t-71 14.5q-37 0 -75.5 -11t-63.5 -28l-27 67q35 20 79.5 31t89.5 11q63 0 108.5 -20t71 -57t25.5 -91zM299 71l15 -65q-50 -14 -87 -14q-52 0 -90 19t-61 53t-23 78t23 78t61 53t90 19q37 0 87 -14l-15 -65q-36 12 -70 12
q-22 0 -45.5 -8.5t-38 -29t-14.5 -44.5t14.5 -45.5t38 -30t45.5 -8.5q34 0 70 12zM392 677q0 -30 -16 -55.5t-42 -39.5l-20 48q11 7 18.5 20t7.5 28q0 23 -16.5 39.5t-39.5 16.5t-39.5 -16.5t-16.5 -39.5q0 -14 7.5 -27.5t18.5 -20.5l-20 -47q-26 14 -41.5 39t-15.5 55
q0 21 10.5 46t37.5 43.5t59 18.5q21 0 46 -10.5t43.5 -38t18.5 -59.5z" />
    <glyph glyph-name="ae" unicode="&#xe6;" horiz-adv-x="889" 
d="M851 298l-253 -141l-34 58l185 107q-17 33 -50 52t-69 19q-24 0 -49.5 -10t-43.5 -27l-40 62q29 23 63.5 35t69.5 12q32 0 67 -10t65 -31.5t53 -53t36 -72.5zM771 141l67 -39q-33 -56 -89 -86t-117 -30q-52 0 -97 19.5t-77 53.5t-49.5 79t-17.5 93v49q0 29 -13 56
t-45.5 44t-71.5 17q-33 0 -71.5 -10.5t-65.5 -28.5l-27 67q35 20 79.5 31t88.5 11q61 0 107.5 -23.5t72 -64t25.5 -96.5v-56q0 -24 7.5 -52.5t29.5 -58t55.5 -45t68.5 -15.5q41 0 80 22.5t60 62.5zM318 99l60 -37q-22 -33 -62.5 -53t-90.5 -20q-76 0 -124 43.5t-48 109.5
q0 44 23 78t61 53t90 19q43 0 80 -12v-67q-36 12 -78 12q-22 0 -45.5 -9t-38 -30t-14.5 -46q0 -20 9.5 -40t32.5 -32t51 -12t54 11.5t40 31.5z" />
    <glyph glyph-name="ccedilla" unicode="&#xe7;" horiz-adv-x="558" 
d="M507 347l-67 -38q-23 42 -61.5 66.5t-81.5 24.5q-23 0 -50 -8.5t-52 -29.5t-43 -56t-18 -81q0 -37 16.5 -77.5t57.5 -69t89 -28.5q43 0 81.5 24.5t60.5 66.5l68 -39q-16 -27 -45 -56t-73.5 -47.5t-91.5 -18.5t-91.5 18t-78.5 51t-53.5 79t-19.5 97q0 38 13 80t48 83
t85 61.5t97 20.5q64 0 120.5 -33t89.5 -90zM369 -139q0 -20 -10 -42.5t-35 -38t-54 -15.5q-28 0 -52.5 14.5t-38.5 41.5l44 26q8 -12 21.5 -21.5t26.5 -9.5q19 0 32 13t13 31q0 16 -11.5 28t-27.5 12q-19 0 -32 -17l-44 33l88 112l45 -34l-40 -49q36 -6 55.5 -30t19.5 -54z
" />
    <glyph glyph-name="egrave" unicode="&#xe8;" 
d="M196 788l240 -139l-36 -56l-240 139zM504 298l-253 -141l-34 58l185 107q-17 33 -50 52t-69 19q-4 0 -17 -1t-40 -10.5t-54.5 -39t-38.5 -73.5h-81q6 34 23 68.5t50.5 66t76.5 46.5t82 15q31 0 66 -10t65 -31.5t53 -53t36 -72.5zM424 141l67 -39q-33 -56 -89 -86
t-117 -30q-40 0 -78.5 13t-70 38t-54 62t-30.5 82h81q7 -28 26 -58t53.5 -48.5t71.5 -18.5q41 0 80 22.5t60 62.5z" />
    <glyph glyph-name="eacute" unicode="&#xe9;" 
d="M504 298l-253 -141l-34 58l185 107q-17 33 -50 52t-69 19q-4 0 -17 -1t-40 -10.5t-54.5 -39t-38.5 -73.5h-81q6 34 23 68.5t50.5 66t76.5 46.5t82 15q31 0 66 -10t65 -31.5t53 -53t36 -72.5zM424 141l67 -39q-33 -56 -89 -86t-117 -30q-40 0 -78.5 13t-70 38t-54 62
t-30.5 82h81q7 -28 26 -58t53.5 -48.5t71.5 -18.5q41 0 80 22.5t60 62.5zM392 788l36 -56l-240 -139l-36 56z" />
    <glyph glyph-name="ecircumflex" unicode="&#xea;" 
d="M504 298l-253 -141l-34 58l185 107q-17 33 -50 52t-69 19q-4 0 -17 -1t-40 -10.5t-54.5 -39t-38.5 -73.5h-81q6 34 23 68.5t50.5 66t76.5 46.5t82 15q31 0 66 -10t65 -31.5t53 -53t36 -72.5zM424 141l67 -39q-33 -56 -89 -86t-117 -30q-40 0 -78.5 13t-70 38t-54 62
t-30.5 82h81q7 -28 26 -58t53.5 -48.5t71.5 -18.5q41 0 80 22.5t60 62.5zM285 788l168 -146l-46 -48l-122 106l-123 -106l-45 48z" />
    <glyph glyph-name="edieresis" unicode="&#xeb;" 
d="M504 298l-253 -141l-34 58l185 107q-17 33 -50 52t-69 19q-4 0 -17 -1t-40 -10.5t-54.5 -39t-38.5 -73.5h-81q6 34 23 68.5t50.5 66t76.5 46.5t82 15q31 0 66 -10t65 -31.5t53 -53t36 -72.5zM424 141l67 -39q-33 -56 -89 -86t-117 -30q-40 0 -78.5 13t-70 38t-54 62
t-30.5 82h81q7 -28 26 -58t53.5 -48.5t71.5 -18.5q41 0 80 22.5t60 62.5zM445 710q0 -21 -15.5 -36t-36.5 -15t-36 15t-15 36t15 36.5t36 15.5t36.5 -15.5t15.5 -36.5zM228 710q0 -21 -15 -36t-36 -15t-36.5 15t-15.5 36t15.5 36.5t36.5 15.5t36 -15.5t15 -36.5z" />
    <glyph glyph-name="igrave" unicode="&#xec;" horiz-adv-x="228" 
d="M154 450v-450h-80v450h80zM10 788l240 -139l-36 -56l-240 139z" />
    <glyph glyph-name="iacute" unicode="&#xed;" horiz-adv-x="228" 
d="M154 450v-450h-80v450h80zM216 788l36 -56l-240 -139l-36 56z" />
    <glyph glyph-name="icircumflex" unicode="&#xee;" horiz-adv-x="228" 
d="M154 450v-450h-80v450h80zM113 788l168 -146l-46 -48l-122 106l-123 -106l-45 48z" />
    <glyph glyph-name="idieresis" unicode="&#xef;" horiz-adv-x="228" 
d="M154 450v-450h-80v450h80zM275 710q0 -21 -15.5 -36t-36.5 -15t-36 15t-15 36t15 36.5t36 15.5t36.5 -15.5t15.5 -36.5zM58 710q0 -21 -15 -36t-36 -15t-36.5 15t-15.5 36t15.5 36.5t36.5 15.5t36 -15.5t15 -36.5z" />
    <glyph glyph-name="eth" unicode="&#xf0;" horiz-adv-x="590" 
d="M540 224q0 -35 -12.5 -75.5t-46.5 -82.5t-85 -64t-101 -22q-49 0 -94 19t-79 52.5t-53 78t-19 93.5q0 32 10.5 69t35.5 71.5t65.5 61.5t93.5 35l15 -64q-59 -8 -100.5 -57t-41.5 -114q0 -72 48.5 -123.5t116.5 -51.5t116.5 51.5t48.5 123.5q0 24 -7.5 50t-19.5 46
l-148 240l-121 -74l-36 54l123 77l-68 109l67 39l67 -108l122 75l36 -55l-124 -77l155 -252q13 -21 24.5 -52.5t11.5 -72.5z" />
    <glyph glyph-name="ntilde" unicode="&#xf1;" horiz-adv-x="558" 
d="M484 303v-303h-80v296q0 22 -10 45.5t-35 37.5t-55 14q-29 0 -58 -12l-15 67q36 15 77 15q30 0 62.5 -9.5t58 -30t40.5 -51t15 -69.5zM154 450v-450h-80v450h80zM384 750h58q-1 -20 -11.5 -44t-35.5 -40t-55 -16q-14 0 -27.5 2.5t-25 9t-33 25t-41.5 18.5
q-17 0 -29.5 -12.5t-14.5 -33.5h-58q3 43 32.5 71.5t69.5 28.5q14 0 27.5 -2.5t25 -9t33 -25t41.5 -18.5q17 0 29.5 12.5t14.5 33.5z" />
    <glyph glyph-name="ograve" unicode="&#xf2;" horiz-adv-x="593" 
d="M196 788l240 -139l-36 -56l-240 139zM539 225q0 -30 -9.5 -65.5t-32.5 -69.5t-62.5 -62.5t-94.5 -38.5v76q40 10 69.5 39t40 62.5t10.5 58.5q0 56 -32.5 101t-87.5 59v76q33 -6 67.5 -22.5t63.5 -46.5t48.5 -72.5t19.5 -94.5zM253 65v-76q-33 6 -67.5 22.5t-63.5 46.5
t-48.5 72.5t-19.5 94.5q0 30 9.5 65.5t32.5 69.5t62.5 62.5t94.5 38.5v-76q-40 -10 -69.5 -39t-40 -62.5t-10.5 -58.5q0 -56 32.5 -101t87.5 -59z" />
    <glyph glyph-name="oacute" unicode="&#xf3;" horiz-adv-x="593" 
d="M539 225q0 -30 -9.5 -65.5t-32.5 -69.5t-62.5 -62.5t-94.5 -38.5v76q40 10 69.5 39t40 62.5t10.5 58.5q0 56 -32.5 101t-87.5 59v76q33 -6 67.5 -22.5t63.5 -46.5t48.5 -72.5t19.5 -94.5zM253 65v-76q-33 6 -67.5 22.5t-63.5 46.5t-48.5 72.5t-19.5 94.5q0 30 9.5 65.5
t32.5 69.5t62.5 62.5t94.5 38.5v-76q-40 -10 -69.5 -39t-40 -62.5t-10.5 -58.5q0 -56 32.5 -101t87.5 -59zM392 788l36 -56l-240 -139l-36 56z" />
    <glyph glyph-name="ocircumflex" unicode="&#xf4;" horiz-adv-x="593" 
d="M539 225q0 -30 -9.5 -65.5t-32.5 -69.5t-62.5 -62.5t-94.5 -38.5v76q40 10 69.5 39t40 62.5t10.5 58.5q0 56 -32.5 101t-87.5 59v76q33 -6 67.5 -22.5t63.5 -46.5t48.5 -72.5t19.5 -94.5zM253 65v-76q-33 6 -67.5 22.5t-63.5 46.5t-48.5 72.5t-19.5 94.5q0 30 9.5 65.5
t32.5 69.5t62.5 62.5t94.5 38.5v-76q-40 -10 -69.5 -39t-40 -62.5t-10.5 -58.5q0 -56 32.5 -101t87.5 -59zM297 788l168 -146l-46 -48l-122 106l-123 -106l-45 48z" />
    <glyph glyph-name="otilde" unicode="&#xf5;" horiz-adv-x="593" 
d="M539 225q0 -30 -9.5 -65.5t-32.5 -69.5t-62.5 -62.5t-94.5 -38.5v76q40 10 69.5 39t40 62.5t10.5 58.5q0 56 -32.5 101t-87.5 59v76q33 -6 67.5 -22.5t63.5 -46.5t48.5 -72.5t19.5 -94.5zM253 65v-76q-33 6 -67.5 22.5t-63.5 46.5t-48.5 72.5t-19.5 94.5q0 30 9.5 65.5
t32.5 69.5t62.5 62.5t94.5 38.5v-76q-40 -10 -69.5 -39t-40 -62.5t-10.5 -58.5q0 -56 32.5 -101t87.5 -59zM404 750h58q-1 -20 -11.5 -44t-35.5 -40t-55 -16q-14 0 -27.5 2.5t-25 9t-33 25t-41.5 18.5q-17 0 -29.5 -12.5t-14.5 -33.5h-58q3 43 32.5 71.5t69.5 28.5
q14 0 27.5 -2.5t25 -9t33 -25t41.5 -18.5q17 0 29.5 12.5t14.5 33.5z" />
    <glyph glyph-name="odieresis" unicode="&#xf6;" horiz-adv-x="593" 
d="M539 225q0 -30 -9.5 -65.5t-32.5 -69.5t-62.5 -62.5t-94.5 -38.5v76q40 10 69.5 39t40 62.5t10.5 58.5q0 56 -32.5 101t-87.5 59v76q33 -6 67.5 -22.5t63.5 -46.5t48.5 -72.5t19.5 -94.5zM253 65v-76q-33 6 -67.5 22.5t-63.5 46.5t-48.5 72.5t-19.5 94.5q0 30 9.5 65.5
t32.5 69.5t62.5 62.5t94.5 38.5v-76q-40 -10 -69.5 -39t-40 -62.5t-10.5 -58.5q0 -56 32.5 -101t87.5 -59zM456 710q0 -21 -15.5 -36t-36.5 -15t-36 15t-15 36t15 36.5t36 15.5t36.5 -15.5t15.5 -36.5zM239 710q0 -21 -15 -36t-36 -15t-36.5 15t-15.5 36t15.5 36.5
t36.5 15.5t36 -15.5t15 -36.5z" />
    <glyph glyph-name="divide" unicode="&#xf7;" horiz-adv-x="618" 
d="M366 600q0 -23 -17 -40t-40 -17t-39.5 17t-16.5 40t16.5 40t39.5 17t40 -17t17 -40zM578 410v-70h-538v70h538zM366 150q0 -23 -16.5 -39.5t-40.5 -16.5q-23 0 -39.5 16.5t-16.5 39.5q0 24 16.5 40.5t39.5 16.5q24 0 40.5 -16.5t16.5 -40.5z" />
    <glyph glyph-name="oslash" unicode="&#xf8;" horiz-adv-x="593" 
d="M540 225q0 -60 -25.5 -109t-65.5 -79.5t-91 -39.5l-29 71q46 6 77.5 34t43 62t11.5 62q0 24 -8 51t-22 48l61 45q23 -31 35.5 -69t12.5 -76zM394 520l66 -31l-264 -559l-65 31zM236 453l29 -71q-46 -6 -77.5 -34t-43 -62t-11.5 -62q0 -24 8.5 -51t22.5 -48l-62 -45
q-23 31 -35.5 69t-12.5 76q0 60 25.5 109t65.5 79.5t91 39.5z" />
    <glyph glyph-name="ugrave" unicode="&#xf9;" horiz-adv-x="558" 
d="M186 788l240 -139l-36 -56l-240 139zM484 450v-450h-80v450h80zM312 69l14 -67q-34 -15 -77 -15q-30 0 -66.5 11t-62.5 36.5t-36 54t-10 57.5v304h80v-297q0 -22 10 -45.5t35 -37.5t55 -14q27 0 58 13z" />
    <glyph glyph-name="uacute" unicode="&#xfa;" horiz-adv-x="558" 
d="M484 450v-450h-80v450h80zM312 69l14 -67q-34 -15 -77 -15q-30 0 -66.5 11t-62.5 36.5t-36 54t-10 57.5v304h80v-297q0 -22 10 -45.5t35 -37.5t55 -14q27 0 58 13zM392 788l36 -56l-240 -139l-36 56z" />
    <glyph glyph-name="ucircumflex" unicode="&#xfb;" horiz-adv-x="558" 
d="M484 450v-450h-80v450h80zM312 69l14 -67q-34 -15 -77 -15q-30 0 -66.5 11t-62.5 36.5t-36 54t-10 57.5v304h80v-297q0 -22 10 -45.5t35 -37.5t55 -14q27 0 58 13zM288 788l168 -146l-46 -48l-122 106l-123 -106l-45 48z" />
    <glyph glyph-name="udieresis" unicode="&#xfc;" horiz-adv-x="558" 
d="M484 450v-450h-80v450h80zM312 69l14 -67q-34 -15 -77 -15q-30 0 -66.5 11t-62.5 36.5t-36 54t-10 57.5v304h80v-297q0 -22 10 -45.5t35 -37.5t55 -14q27 0 58 13zM455 710q0 -21 -15.5 -36t-36.5 -15t-36 15t-15 36t15 36.5t36 15.5t36.5 -15.5t15.5 -36.5zM238 710
q0 -21 -15 -36t-36 -15t-36.5 15t-15.5 36t15.5 36.5t36.5 15.5t36 -15.5t15 -36.5z" />
    <glyph glyph-name="yacute" unicode="&#xfd;" horiz-adv-x="523" 
d="M433 464l70 -34l-141 -297l-68 35zM93 465l211 -457l-133 -284l-69 35l117 249l-199 429zM357 788l36 -56l-240 -139l-36 56z" />
    <glyph glyph-name="thorn" unicode="&#xfe;" horiz-adv-x="610" 
d="M555 223q0 -48 -18 -91.5t-50 -76.5t-74.5 -51.5t-89.5 -18.5q-55 0 -101 23l22 69q17 -9 38.5 -15.5t40.5 -6.5q22 0 47.5 8.5t48.5 29t39.5 53.5t16.5 76q0 25 -8 53.5t-27 53.5t-49 43t-68 18q-8 0 -29.5 -3.5t-49.5 -18.5l-22 69q46 23 101 23q47 0 89.5 -18.5
t74.5 -51.5t50 -76.5t18 -90.5zM154 750v-1020h-80v1020h80z" />
    <glyph glyph-name="ydieresis" unicode="&#xff;" horiz-adv-x="523" 
d="M433 464l70 -34l-141 -297l-68 35zM93 465l211 -457l-133 -284l-69 35l117 249l-199 429zM419 710q0 -21 -15.5 -36t-36.5 -15t-36 15t-15 36t15 36.5t36 15.5t36.5 -15.5t15.5 -36.5zM202 710q0 -21 -15 -36t-36 -15t-36.5 15t-15.5 36t15.5 36.5t36.5 15.5t36 -15.5
t15 -36.5z" />
    <glyph glyph-name="Lslash" unicode="&#x141;" horiz-adv-x="587" 
d="M263 492l31 -59l-123 -72v-361h-80v313l-92 -54l-31 59l123 72v360h80v-311zM530 70v-70h-272v70h272z" />
    <glyph glyph-name="lslash" unicode="&#x142;" horiz-adv-x="327" 
d="M295 492l31 -59l-123 -72v-361h-80v313l-92 -54l-31 59l123 72v360h80v-311z" />
    <glyph glyph-name="OE" unicode="&#x152;" horiz-adv-x="1260" 
d="M1142 410v-70h-215v70h215zM1190 70v-70h-388v70h388zM1189 750v-70h-349v-307q0 -79 -30.5 -151.5t-85.5 -126.5t-127.5 -84.5t-151.5 -30.5t-151.5 30.5t-127.5 85.5t-85.5 127.5t-30.5 151.5t30.5 151.5t85.5 127.5t127.5 85.5t151.5 30.5q67 0 130.5 -23t113.5 -64
l-40 -61q-41 36 -94 57t-109 21q-63 0 -121 -25.5t-101.5 -70.5t-68 -104.5t-24.5 -124.5t24.5 -124.5t68 -104.5t101.5 -70.5t121 -25.5t121 25.5t101 70.5t67.5 104.5t24.5 124.5v375h429z" />
    <glyph glyph-name="oe" unicode="&#x153;" horiz-adv-x="944" 
d="M830 141l67 -39q-24 -41 -63 -69t-77 -37.5t-66 -9.5q-40 0 -79.5 14.5t-70.5 40.5l41 61q45 -46 108 -46q30 0 60 12.5t50 32.5t30 40zM910 298l-253 -141l-34 58l185 107q-17 34 -49.5 52.5t-69.5 18.5q-66 0 -108 -42t-48 -128q-6 -78 -39.5 -132.5t-84 -82.5
t-117.5 -28q-52 0 -97 19.5t-77 54t-49.5 79t-17.5 92.5t17.5 92.5t49.5 79t77 54t97 19.5q40 0 78.5 -13t68.5 -37l-42 -61q-20 18 -49 29t-56 11q-45 0 -80 -21t-58 -61t-23 -92q0 -43 19.5 -85t58 -65.5t83.5 -23.5q39 0 69.5 14.5t50.5 40.5t30 60t12 67q4 50 21 92.5
t47 74t72.5 48.5t94.5 17q32 0 67 -10t65 -31.5t53 -53t36 -72.5z" />
    <glyph glyph-name="Scaron" unicode="&#x160;" horiz-adv-x="605" 
d="M546 592l-65 -25q-19 64 -71 99t-113 35q-29 0 -66.5 -12t-64.5 -45.5t-27 -81.5q0 -26 11.5 -53.5t37 -46.5t57.5 -26l24 -6l-19 -71l-22 5q-79 19 -123 74t-44 122q0 62 29.5 108t83.5 74t123 28q51 0 104.5 -19.5t91.5 -62t53 -96.5zM555 204q0 -22 -6 -50t-22 -57
t-45.5 -55.5t-76 -44t-100.5 -17.5q-53 0 -108.5 19.5t-96 62.5t-58.5 99l68 28q10 -34 34 -66.5t67.5 -52.5t90.5 -20q25 0 54 6.5t56 24t46.5 47.5t19.5 73q0 51 -31.5 86.5t-89.5 47.5l-20 4l19 71l29 -6q81 -17 125.5 -70.5t44.5 -129.5zM427 998l46 -49l-168 -145
l-168 145l45 49l123 -106z" />
    <glyph glyph-name="scaron" unicode="&#x161;" horiz-adv-x="465" 
d="M419 354l-64 -29q-7 18 -24 37t-44 30.5t-54 11.5q-28 0 -52 -11.5t-33.5 -29t-9.5 -33.5q0 -21 14.5 -37t41.5 -21l8 -2l-18 -67l-9 2q-50 10 -81.5 42t-31.5 83q0 41 23 74.5t64.5 49.5t82.5 16q61 0 114 -30.5t73 -85.5zM420 124q0 -25 -10 -51t-37 -49.5t-65.5 -34
t-70.5 -10.5q-64 0 -118.5 32.5t-74.5 92.5l65 23q8 -19 25 -38.5t45.5 -31t57.5 -11.5q31 0 57.5 12.5t37.5 31.5t11 36q0 21 -16 37t-45 21l-10 2l18 67l15 -3q52 -10 83.5 -41.5t31.5 -84.5zM364 788l46 -49l-168 -145l-168 145l45 49l123 -106z" />
    <glyph glyph-name="Ydieresis" unicode="&#x178;" horiz-adv-x="710" 
d="M611 765l65 -43l-280 -395v-327h-80v348zM100 765l209 -296l-65 -43l-210 296zM523 884q0 -21 -15.5 -36t-36.5 -15t-36 15t-15 36t15 36.5t36 15.5t36.5 -15.5t15.5 -36.5zM306 884q0 -21 -15 -36t-36 -15t-36.5 15t-15.5 36t15.5 36.5t36.5 15.5t36 -15.5t15 -36.5z
" />
    <glyph glyph-name="Zcaron" unicode="&#x17d;" horiz-adv-x="623" 
d="M565 750v-70h-511v70h511zM441 625l63 -42l-327 -464l-62 42zM565 70v-70h-511v70h511zM457 998l46 -49l-168 -145l-168 145l45 49l123 -106z" />
    <glyph glyph-name="zcaron" unicode="&#x17e;" horiz-adv-x="501" 
d="M274 450v-70h-213v70h213zM410 464l58 -49l-375 -430l-57 49zM447 70v-70h-215v70h215zM364 788l46 -49l-168 -145l-168 145l45 49l123 -106z" />
    <glyph glyph-name="circumflex" unicode="&#x2c6;" horiz-adv-x="590" 
d="M295 788l168 -146l-46 -48l-122 106l-123 -106l-45 48z" />
    <glyph glyph-name="caron" unicode="&#x2c7;" horiz-adv-x="590" 
d="M417 788l46 -49l-168 -145l-168 145l45 49l123 -106z" />
    <glyph glyph-name="breve" unicode="&#x2d8;" horiz-adv-x="589" 
d="M401 761l56 -33q-28 -47 -70 -74t-92 -27q-49 0 -91.5 27t-70.5 74l56 33q18 -30 45 -50t61 -20t61 20t45 50z" />
    <glyph glyph-name="dotaccent" unicode="&#x2d9;" horiz-adv-x="590" 
d="M347 764v-110h-80v110h80z" />
    <glyph glyph-name="ring" unicode="&#x2da;" horiz-adv-x="590" 
d="M407 677q0 -30 -16 -55.5t-42 -39.5l-20 48q11 7 18.5 20t7.5 28q0 23 -16.5 39.5t-39.5 16.5t-39.5 -16.5t-16.5 -39.5q0 -14 7.5 -27.5t18.5 -20.5l-20 -47q-26 14 -41.5 39t-15.5 55q0 21 10.5 46t37.5 43.5t59 18.5q21 0 46 -10.5t43.5 -38t18.5 -59.5z" />
    <glyph glyph-name="ogonek" unicode="&#x2db;" horiz-adv-x="571" 
d="M301 53l33 -56q-30 -18 -50 -45t-20 -61t20 -61t50 -45l-33 -56q-47 28 -74 70.5t-27 91.5t27 91.5t74 70.5z" />
    <glyph glyph-name="tilde" unicode="&#x2dc;" horiz-adv-x="590" 
d="M404 750h58q-1 -20 -11.5 -44t-35.5 -40t-55 -16q-14 0 -27.5 2.5t-25 9t-33 25t-41.5 18.5q-17 0 -29.5 -12.5t-14.5 -33.5h-58q3 43 32.5 71.5t69.5 28.5q14 0 27.5 -2.5t25 -9t33 -25t41.5 -18.5q17 0 29.5 12.5t14.5 33.5z" />
    <glyph glyph-name="hungarumlaut" unicode="&#x2dd;" horiz-adv-x="598" 
d="M461 794l59 -42l-103 -149l-60 41zM211 794l59 -42l-103 -149l-59 41z" />
    <glyph glyph-name="endash" unicode="&#x2013;" horiz-adv-x="503" 
d="M451 310v-70h-399v70h399z" />
    <glyph glyph-name="emdash" unicode="&#x2014;" horiz-adv-x="854" 
d="M802 310v-70h-750v70h750z" />
    <glyph glyph-name="quoteleft" unicode="&#x2018;" horiz-adv-x="267" 
d="M102 767l131 -295l-76 -32l-131 295z" />
    <glyph glyph-name="quoteright" unicode="&#x2019;" horiz-adv-x="267" 
d="M165 767l76 -32l-131 -295l-76 32z" />
    <glyph glyph-name="quotesinglbase" unicode="&#x201a;" horiz-adv-x="239" 
d="M123 175l76 -31l-131 -295l-76 31z" />
    <glyph glyph-name="quotedblleft" unicode="&#x201c;" horiz-adv-x="469" 
d="M304 767l131 -295l-76 -32l-131 295zM102 767l131 -295l-76 -32l-131 295z" />
    <glyph glyph-name="quotedblright" unicode="&#x201d;" horiz-adv-x="469" 
d="M367 767l76 -32l-131 -295l-76 32zM165 767l76 -32l-131 -295l-76 32z" />
    <glyph glyph-name="quotedblbase" unicode="&#x201e;" horiz-adv-x="441" 
d="M325 176l76 -32l-131 -295l-76 32zM123 176l76 -32l-131 -295l-76 32z" />
    <glyph glyph-name="dagger" unicode="&#x2020;" horiz-adv-x="520" 
d="M470 440v-71h-170v-469h-80v469h-170v71h170v210h80v-210h170z" />
    <glyph glyph-name="daggerdbl" unicode="&#x2021;" horiz-adv-x="520" 
d="M470 181v-71h-170v-210h-80v210h-170v71h170v188h-170v71h170v210h80v-210h170v-71h-170v-188h170z" />
    <glyph glyph-name="bullet" unicode="&#x2022;" horiz-adv-x="466" 
d="M426 374q0 -29 -10 -61t-34 -61t-62.5 -50t-86.5 -21q-29 0 -61.5 10t-65 37.5t-49.5 67.5t-17 78q0 49 25.5 95.5t72 72t95.5 25.5q38 0 69.5 -13t56.5 -34t46 -59t21 -87z" />
    <glyph glyph-name="ellipsis" unicode="&#x2026;" horiz-adv-x="724" 
d="M670 44q0 -24 -18 -42t-42 -18t-42 18t-18 42t18 42t42 18t42 -18t18 -42zM422 44q0 -24 -18 -42t-42 -18t-42 18t-18 42t18 42t42 18t42 -18t18 -42zM174 44q0 -24 -18 -42t-42 -18t-42 18t-18 42t18 42t42 18t42 -18t18 -42z" />
    <glyph glyph-name="perthousand" unicode="&#x2030;" horiz-adv-x="1299" 
d="M1259 213h-68q-13 37 -45 61t-71 24t-71 -24t-46 -61h-67q14 63 65.5 104.5t118.5 41.5q32 0 69.5 -13.5t70.5 -50t44 -82.5zM1191 126h68q-7 -29 -29 -63t-64.5 -58t-90.5 -24q-33 0 -70.5 13.5t-70.5 50t-43 81.5h67q14 -36 46 -60t71 -24q38 0 70.5 24t45.5 60z
M839 213h-68q-13 37 -45 61t-71 24t-71 -24t-46 -61h-67q14 63 65.5 104.5t118.5 41.5q32 0 69.5 -13.5t70.5 -50t44 -82.5zM410 624h-68q-13 36 -45.5 60t-70.5 24q-39 0 -71 -24t-45 -60h-68q7 29 28 62.5t63 58.5t93 25q41 0 77 -16.5t66 -50.5t41 -79zM618 770l63 -35
l-419 -755l-62 35zM771 126h68q-7 -29 -29 -63t-64.5 -58t-90.5 -24q-33 0 -70.5 13.5t-70.5 50t-43 81.5h67q14 -36 46 -60t71 -24q38 0 70.5 24t45.5 60zM342 537h68q-11 -46 -44 -82.5t-70.5 -50t-69.5 -13.5q-67 0 -118.5 41.5t-65.5 104.5h67q14 -37 46 -61t71 -24
t71 24t45 61z" />
    <glyph glyph-name="guilsinglleft" unicode="&#x2039;" horiz-adv-x="291" 
d="M129 252l132 -132l-50 -49l-181 180l181 181l50 -50z" />
    <glyph glyph-name="guilsinglright" unicode="&#x203a;" horiz-adv-x="291" 
d="M80 432l181 -181l-181 -180l-50 49l131 131l-131 131z" />
    <glyph glyph-name="fraction" unicode="&#x2044;" horiz-adv-x="499" 
d="M418 817l73 -33l-411 -854l-72 33z" />
    <glyph glyph-name="Euro" unicode="&#x20ac;" horiz-adv-x="956" 
d="M891 527l-72 -30q-34 92 -113 147.5t-173 55.5q-78 0 -149.5 -41.5t-111.5 -116.5l-59 48q49 84 135 132t184 48q118 0 216.5 -66.5t142.5 -176.5zM78 500h414v-70h-414v70zM819 254l72 -30q-44 -111 -142.5 -177.5t-216.5 -66.5q-98 0 -184 48.5t-135 132.5l59 48
q39 -74 109.5 -116.5t151.5 -42.5q58 0 117.5 24.5t103.5 73.5t65 106zM77 319h414v-69h-414v69z" />
    <glyph glyph-name="trademark" unicode="&#x2122;" horiz-adv-x="950" 
d="M835 766l53 -58l-213 -234l-213 234l54 58l159 -181zM880 544v-244h-80v244h80zM388 750v-70h-334v70h334zM548 544v-244h-80v244h80zM261 593v-293h-80v293h80z" />
    <glyph glyph-name="minus" unicode="&#x2212;" horiz-adv-x="618" 
d="M578 410v-70h-538v70h538z" />
    <glyph glyph-name="uniF8FF" unicode="&#xf8ff;" horiz-adv-x="1000" 
 />
    <glyph glyph-name="glyph219" 
d="M504 298l-253 -141l-34 58l185 107q-17 33 -50 52t-69 19q-34 0 -69.5 -17t-60 -59t-24.5 -92q0 -70 43.5 -119.5t111.5 -49.5q41 0 80 22.5t60 62.5l67 -39q-33 -56 -89 -86t-117 -30q-36 0 -76 12t-80 45.5t-60 83t-20 98.5q0 48 17.5 92t49.5 77t75.5 52t92.5 19
q31 0 66 -10t65 -31.5t53 -53t36 -72.5z" />
    <glyph glyph-name="glyph220" 
d="M504 298l-253 -141l-34 58l185 107q-17 33 -50 52t-69 19q-34 0 -69.5 -17t-60 -59t-24.5 -92q0 -70 43.5 -119.5t111.5 -49.5q41 0 80 22.5t60 62.5l67 -39q-33 -56 -89 -86t-117 -30q-36 0 -76 12t-80 45.5t-60 83t-20 98.5q0 48 17.5 92t49.5 77t75.5 52t92.5 19
q31 0 66 -10t65 -31.5t53 -53t36 -72.5zM392 788l36 -56l-240 -139l-36 56z" />
    <glyph glyph-name="glyph221" 
d="M504 298l-253 -141l-34 58l185 107q-17 33 -50 52t-69 19q-34 0 -69.5 -17t-60 -59t-24.5 -92q0 -70 43.5 -119.5t111.5 -49.5q41 0 80 22.5t60 62.5l67 -39q-33 -56 -89 -86t-117 -30q-36 0 -76 12t-80 45.5t-60 83t-20 98.5q0 48 17.5 92t49.5 77t75.5 52t92.5 19
q31 0 66 -10t65 -31.5t53 -53t36 -72.5zM196 788l240 -139l-36 -56l-240 139z" />
    <glyph glyph-name="glyph222" 
d="M504 298l-253 -141l-34 58l185 107q-17 33 -50 52t-69 19q-34 0 -69.5 -17t-60 -59t-24.5 -92q0 -70 43.5 -119.5t111.5 -49.5q41 0 80 22.5t60 62.5l67 -39q-33 -56 -89 -86t-117 -30q-36 0 -76 12t-80 45.5t-60 83t-20 98.5q0 48 17.5 92t49.5 77t75.5 52t92.5 19
q31 0 66 -10t65 -31.5t53 -53t36 -72.5zM285 788l168 -146l-46 -48l-122 106l-123 -106l-45 48z" />
    <glyph glyph-name="glyph223" 
d="M504 298l-253 -141l-34 58l185 107q-17 33 -50 52t-69 19q-34 0 -69.5 -17t-60 -59t-24.5 -92q0 -70 43.5 -119.5t111.5 -49.5q41 0 80 22.5t60 62.5l67 -39q-33 -56 -89 -86t-117 -30q-36 0 -76 12t-80 45.5t-60 83t-20 98.5q0 48 17.5 92t49.5 77t75.5 52t92.5 19
q31 0 66 -10t65 -31.5t53 -53t36 -72.5zM445 710q0 -21 -15.5 -36t-36.5 -15t-36 15t-15 36t15 36.5t36 15.5t36.5 -15.5t15.5 -36.5zM228 710q0 -21 -15 -36t-36 -15t-36.5 15t-15.5 36t15.5 36.5t36.5 15.5t36 -15.5t15 -36.5z" />
    </font>
</defs>
</svg>
