<?xml version="1.0" standalone="no"?>
<!DOCTYPE svg PUBLIC "-//W3C//DTD SVG 1.1//EN" "http://www.w3.org/Graphics/SVG/1.1/DTD/svg11.dtd" >
<svg xmlns="http://www.w3.org/2000/svg" xmlns:xlink="http://www.w3.org/1999/xlink" version="1.1">
<metadata>
Created by FontForge 20200427 at Fri Nov 13 13:15:48 2015
 By www
Copyright (c) 2015 by . All rights reserved.
</metadata>
<defs>
<font id="AnoStencilW00-Bold" horiz-adv-x="260" >
  <font-face 
    font-family="AnoStencilW00-Bold"
    font-weight="700"
    font-stretch="normal"
    units-per-em="1000"
    panose-1="1 0 0 0 0 0 0 0 0 0"
    ascent="800"
    descent="-200"
    x-height="449"
    cap-height="750"
    bbox="-53 -299 1299 1007"
    underline-thickness="50"
    underline-position="-125"
    unicode-range="U+0020-F8FF"
  />
<missing-glyph horiz-adv-x="500" 
d="M438 0h-375v800h375v-800zM125 738v-675h250v675h-250z" />
    <glyph glyph-name=".notdef" horiz-adv-x="500" 
d="M438 0h-375v800h375v-800zM125 738v-675h250v675h-250z" />
    <glyph glyph-name=".null" horiz-adv-x="0" 
 />
    <glyph glyph-name="nonmarkingreturn" horiz-adv-x="333" 
 />
    <glyph glyph-name="space" unicode=" " horiz-adv-x="200" 
 />
    <glyph glyph-name="exclam" unicode="!" horiz-adv-x="308" 
d="M214 750v-493h-120v493h120zM233 60q0 -32 -23.5 -55.5t-55.5 -23.5t-55.5 23.5t-23.5 55.5t23.5 55.5t55.5 23.5t55.5 -23.5t23.5 -55.5z" />
    <glyph glyph-name="quotedbl" unicode="&#x22;" horiz-adv-x="460" 
d="M390 750v-290h-120v290h120zM190 750v-290h-120v290h120z" />
    <glyph glyph-name="numbersign" unicode="#" horiz-adv-x="697" 
d="M537 522h105v-104h-546v104h127l50 241l115 -19l-46 -222h76l50 241l115 -19zM55 332h546v-104h-131l-49 -239l-115 19l45 220h-75l-50 -239l-115 19l46 220h-102v104z" />
    <glyph glyph-name="dollar" unicode="$" horiz-adv-x="639" 
d="M572 578l-97 -38q-9 32 -30 61.5t-55 47t-70 17.5q-23 0 -51.5 -10t-46 -33t-21.5 -40.5t-4 -30.5q0 -35 21.5 -63t60.5 -38l15 -4l-29 -106l-17 4q-79 21 -123 77.5t-44 126.5q0 43 14.5 80.5t40 65t59 45t70.5 25.5v125h120v-127q66 -16 117.5 -63.5t69.5 -121.5z
M579 218q0 -44 -15 -82.5t-42 -68.5t-62 -50.5t-75 -29.5v-127h-120v125q-48 10 -88.5 36t-69.5 63t-47 86l99 41q24 -64 67.5 -96t91.5 -32q26 0 59 12.5t59 44.5t26 74q0 34 -24.5 61t-71.5 39l-19 6l28 106l35 -9q82 -21 125.5 -75.5t43.5 -123.5z" />
    <glyph glyph-name="percent" unicode="%" horiz-adv-x="903" 
d="M859 213h-99q-11 27 -36 45t-54 18t-54 -18t-36 -45h-99q14 66 67 109.5t122 43.5t122 -43.5t67 -109.5zM422 616h-99q-11 27 -36 45t-54 18t-54 -18t-36 -45h-99q14 66 67 109.5t122 43.5t122 -43.5t67 -109.5zM617 770l92 -52l-426 -738l-92 52zM760 133h99
q-9 -40 -33.5 -73.5t-64.5 -56.5t-91 -23q-34 0 -72 14t-72 51.5t-45 87.5h99q11 -27 36 -45t54 -18t54 18t36 45zM323 536h99q-9 -40 -33.5 -73.5t-64.5 -56.5t-91 -23q-34 0 -72 14t-72 51.5t-45 87.5h99q11 -27 36 -45t54 -18t54 18t36 45z" />
    <glyph glyph-name="ampersand" unicode="&#x26;" horiz-adv-x="643" 
d="M518 589l-97 -40q-8 30 -23 55t-41 43t-62 18q-21 0 -47 -11t-45 -40t-19 -63q0 -32 15 -56l-94 -53q-16 23 -26 55t-10 61q0 54 30 105t84.5 79t111.5 28q81 0 143 -50t80 -131zM593 341v-105h-226v105h226zM421 191l115 -17q-4 -30 -19.5 -62.5t-50 -65.5t-81 -49.5
t-91.5 -16.5q-43 0 -86 13t-78 42.5t-57.5 74.5t-22.5 99q0 43 16 84.5t47 74t78 51.5t104 19h29v-105h-29q-53 0 -90.5 -36t-37.5 -87q0 -24 12.5 -53t45 -50.5t70.5 -21.5q47 0 82.5 30.5t43.5 75.5z" />
    <glyph glyph-name="quotesingle" unicode="'" 
d="M190 750v-290h-120v290h120z" />
    <glyph glyph-name="parenleft" unicode="(" horiz-adv-x="415" 
d="M359 48l-33 -110q-32 9 -71.5 30t-75.5 56.5t-66.5 87t-48.5 121.5t-18 142t18 142t48.5 121.5t66.5 87t75.5 56.5t71.5 30l33 -110q-31 -9 -64.5 -32t-62 -63t-47.5 -99t-19 -133q0 -44 9 -93.5t35 -101.5t66.5 -86t82.5 -46z" />
    <glyph glyph-name="parenright" unicode=")" horiz-adv-x="415" 
d="M365 375q0 -72 -20.5 -151t-65 -142t-94.5 -96.5t-100 -47.5l-33 110q42 12 78 42t61.5 73.5t39.5 98t14 113.5q0 44 -9.5 93.5t-32 95.5t-60.5 84t-91 54l33 110q50 -14 100 -47.5t94.5 -96.5t65 -142t20.5 -151z" />
    <glyph glyph-name="asterisk" unicode="*" horiz-adv-x="583" 
d="M516 629l37 -114l-124 -39l-37 114zM415 423l79 -107l-97 -70l-79 106zM353 750v-275l-164 -227l-97 70l141 196v236h120zM67 630l125 -40l-37 -114l-125 40z" />
    <glyph glyph-name="plus" unicode="+" horiz-adv-x="630" 
d="M590 427v-105h-215v-222h-120v222h-215v105h215v223h120v-223h215z" />
    <glyph glyph-name="comma" unicode="," horiz-adv-x="313" 
d="M123 191l114 -46l-131 -295l-114 46z" />
    <glyph glyph-name="hyphen" unicode="-" horiz-adv-x="395" 
d="M355 327v-105h-315v105h315z" />
    <glyph glyph-name="period" unicode="." 
d="M209 60q0 -32 -23.5 -55.5t-55.5 -23.5t-55.5 23.5t-23.5 55.5t23.5 55.5t55.5 23.5t55.5 -23.5t23.5 -55.5z" />
    <glyph glyph-name="slash" unicode="/" horiz-adv-x="504" 
d="M395 821l109 -51l-395 -846l-109 51z" />
    <glyph glyph-name="zero" unicode="0" horiz-adv-x="590" 
d="M540 525v-109h-120v109q0 27 -12.5 59.5t-44 56.5t-68.5 24q-26 0 -54.5 -14.5t-49.5 -49t-21 -76.5v-109h-120v109q0 49 19 94t53 79t79 53t94 19t94 -19t79 -53t53 -79t19 -94zM540 336v-111q0 -49 -19 -94t-53 -79t-79 -53t-94 -19t-94 19t-79 53t-53 79t-19 94v111
h120v-111q0 -27 12.5 -59.5t44 -56.5t68.5 -24q26 0 54.5 14.5t49.5 49t21 76.5v111h120z" />
    <glyph glyph-name="one" unicode="1" horiz-adv-x="497" 
d="M397 750v-750h-120v584l-136 -137l-76 73l212 230h120z" />
    <glyph glyph-name="two" unicode="2" horiz-adv-x="552" 
d="M507 549q0 -42 -16 -84t-46 -78l-205 -240l-96 72l205 240q17 20 27 47t10 51q0 27 -11.5 52t-37.5 41t-58 16q-46 0 -86 -32.5t-52 -89.5l-96 39q6 34 23 67.5t47 60t71 43t90 16.5q44 0 85.5 -14.5t74.5 -42.5t52 -70t19 -94zM496 105v-105h-450v105h450z" />
    <glyph glyph-name="three" unicode="3" horiz-adv-x="573" 
d="M510 558q0 -29 -10.5 -60.5t-26.5 -55.5l-94 53q15 24 15 56q0 34 -19 63t-45 40t-47 11q-25 0 -48 -10.5t-44.5 -36t-33.5 -69.5l-97 40q18 81 80 131t143 50q45 0 86.5 -16.5t73 -45.5t49.5 -68t18 -82zM528 209q0 -43 -16 -84t-47.5 -74t-78 -52t-103.5 -19
q-86 0 -152 51t-86 133l102 41q16 -59 52.5 -89.5t83.5 -30.5q38 0 70.5 21.5t45 50.5t12.5 53q0 51 -37.5 87t-90.5 36h-89v105h89q57 0 104 -19t78 -51.5t47 -74t16 -84.5z" />
    <glyph glyph-name="four" unicode="4" horiz-adv-x="621" 
d="M581 245v-105h-101v-140h-120v140h-320v92l196 318l82 -61l-149 -244h191v505h120v-505h101z" />
    <glyph glyph-name="five" unicode="5" horiz-adv-x="591" 
d="M499 750v-105h-261l-12 -125l-112 8l20 222h365zM546 232q0 -56 -21.5 -103t-58 -80t-82.5 -50.5t-94 -17.5q-80 0 -147 48t-98 142l97 40q9 -30 29 -60.5t52 -48t66 -17.5q26 0 59.5 13.5t58 49.5t24.5 84t-24.5 84t-58 49.5t-59.5 13.5q-30 0 -58.5 -13.5t-50.5 -39.5
l-80 69q27 32 63 53t69 28t58 7q48 0 94 -17.5t82.5 -50.5t58 -80t21.5 -103z" />
    <glyph glyph-name="six" unicode="6" horiz-adv-x="610" 
d="M560 232q0 -50 -20 -96.5t-55 -81.5t-82 -54.5t-98 -19.5q-38 0 -80.5 13t-86 48.5t-66 87.5t-22.5 103q0 32 9.5 65.5t24.5 59.5l236 406l105 -51l-237 -404q-21 -37 -21 -79q0 -41 22 -78t53.5 -51.5t62.5 -14.5q56 0 98 43.5t42 103.5q0 48 -26.5 85.5t-67.5 52.5v109
q89 -15 149 -85t60 -162z" />
    <glyph glyph-name="seven" unicode="7" horiz-adv-x="498" 
d="M31 750h437v-105h-437v105zM322 605l103 -45l-275 -570l-103 45z" />
    <glyph glyph-name="eight" unicode="8" horiz-adv-x="592" 
d="M542 201q0 -35 -13 -70.5t-39 -66.5t-65.5 -53t-88.5 -30v115q20 5 41.5 19t34.5 37t13 48q0 54 -39 85t-90 31t-89.5 -31t-38.5 -85q0 -25 13 -48t34 -37t41 -19v-115q-61 10 -106 40t-72.5 76.5t-27.5 103.5q0 40 14 79.5t46 70.5t80 50t107 19q47 0 91 -13.5
t78.5 -40.5t55 -69t20.5 -96zM523 560q0 -78 -54 -135l-83 64q21 27 21 66q0 50 -33.5 80t-77.5 30q-43 0 -76.5 -30t-33.5 -80q0 -39 21 -66l-83 -64q-54 57 -54 135q0 31 12 66t44.5 71t79 54.5t90.5 18.5q33 0 70.5 -11t76.5 -40.5t59.5 -73t20.5 -85.5z" />
    <glyph glyph-name="nine" unicode="9" horiz-adv-x="590" 
d="M540 530q0 -31 -9.5 -66t-26.5 -64l-236 -400h-135l269 457q20 33 20 76q0 24 -11 54t-41 53.5t-75 23.5q-24 0 -54.5 -13.5t-52.5 -47.5t-22 -74q0 -43 24 -78t61 -49v-111q-31 5 -65 21t-64 45.5t-51 73.5t-21 98q0 48 19 92.5t53 77.5t79 52t94 19q40 0 82 -13
t82.5 -47.5t60.5 -84t20 -95.5z" />
    <glyph glyph-name="colon" unicode=":" 
d="M209 390q0 -32 -23.5 -55.5t-55.5 -23.5t-55.5 23.5t-23.5 55.5t23.5 55.5t55.5 23.5t55.5 -23.5t23.5 -55.5zM209 60q0 -32 -23.5 -55.5t-55.5 -23.5t-55.5 23.5t-23.5 55.5t23.5 55.5t55.5 23.5t55.5 -23.5t23.5 -55.5z" />
    <glyph glyph-name="semicolon" unicode=";" horiz-adv-x="313" 
d="M229 390q0 -32 -23.5 -55.5t-55.5 -23.5t-55.5 23.5t-23.5 55.5t23.5 55.5t55.5 23.5t55.5 -23.5t23.5 -55.5zM123 191l114 -46l-131 -295l-114 46z" />
    <glyph glyph-name="less" unicode="&#x3c;" horiz-adv-x="452" 
d="M184 369l233 -233l-74 -74l-308 307l308 308l74 -74z" />
    <glyph glyph-name="equal" unicode="=" horiz-adv-x="630" 
d="M590 527v-105h-550v105h550zM590 327v-105h-550v105h550z" />
    <glyph glyph-name="greater" unicode="&#x3e;" horiz-adv-x="452" 
d="M109 677l308 -308l-308 -307l-74 74l233 233l-233 234z" />
    <glyph glyph-name="question" unicode="?" horiz-adv-x="622" 
d="M573 547q0 -48 -26 -97t-70 -83l-169 -135l-76 84l169 134q24 19 39.5 46t15.5 55q0 20 -10 44.5t-31 41t-45 23t-48 6.5q-38 0 -74.5 -17.5t-58.5 -47t-31 -61.5l-97 38q15 59 51 101t90 66.5t119 24.5q59 0 107 -19t80 -50.5t48.5 -72t16.5 -81.5zM370 60
q0 -32 -23.5 -55.5t-55.5 -23.5t-55.5 23.5t-23.5 55.5t23.5 55.5t55.5 23.5t55.5 -23.5t23.5 -55.5z" />
    <glyph glyph-name="at" unicode="@" horiz-adv-x="890" 
d="M840 275q0 -68 -21 -116t-58.5 -75t-85.5 -27q-26 0 -59 12.5t-57.5 46t-24.5 82.5v107q0 92 -110 92q-45 0 -90 -15l-18 96q57 20 120 20q67 0 115.5 -24t75 -67t26.5 -105v-103q0 -18 8.5 -27t21.5 -9q43 0 43 112q0 52 -18 101.5t-51 88.5t-78 65t-95 33v105
q73 -7 138.5 -40.5t114.5 -87t76 -122.5t27 -143zM558 4l42 -91q-34 -15 -75.5 -24t-79.5 -9q-79 0 -151.5 30.5t-127.5 85.5t-85.5 127.5t-30.5 151.5q0 74 27 143t75.5 122.5t114 87t137.5 40.5v-106q-49 -7 -93.5 -32.5t-77 -64t-51 -88t-18.5 -102.5q0 -58 22 -111.5
t60.5 -93.5t90.5 -62.5t108 -22.5q64 0 113 19zM474 185l37 -83q-19 -11 -48 -17.5t-54 -6.5q-29 0 -65.5 10.5t-63.5 41.5t-27 77q0 23 13.5 54t51 54.5t91.5 23.5q30 0 55 -7v-99q-28 7 -46 7q-22 0 -34.5 -10t-12.5 -23q0 -35 45 -35q14 0 31.5 4t26.5 9z" />
    <glyph glyph-name="A" unicode="A" horiz-adv-x="740" 
d="M426 765l294 -744l-115 -39l-294 744zM413 299v-104h-197l-81 -213l-115 39l212 552l115 -39l-90 -235h156z" />
    <glyph glyph-name="B" unicode="B" horiz-adv-x="642" 
d="M579 541q0 -25 -9.5 -55t-24.5 -51l-96 54q9 18 9 47q0 22 -9.5 47.5t-34.5 43.5t-57 18h-77v105h87q42 0 81 -16t68.5 -45t46 -67.5t16.5 -80.5zM587 219q0 -31 -11 -67.5t-41 -74t-74 -57.5t-86 -20h-95v105h86q20 0 44 10.5t40.5 37.5t16.5 61q0 22 -9.5 47t-34.5 43
t-57 18h-166v-322h-120v750h120v-323h176q30 0 66.5 -11.5t69.5 -36t54 -65.5t21 -95z" />
    <glyph glyph-name="C" unicode="C" horiz-adv-x="840" 
d="M775 522l-110 -45q-16 56 -49 97t-81 66.5t-107 25.5q-44 0 -87 -16.5t-78.5 -48.5t-58.5 -79.5t-29 -105.5h-120q7 83 40 150t85 112.5t116 69t130 23.5q55 0 109 -16t101 -48t83 -79t56 -106zM665 273l110 -47q-40 -116 -137 -181.5t-212 -65.5q-49 0 -107 15.5
t-113 55.5t-88.5 93.5t-46.5 103t-16 89.5h120q6 -59 29 -106.5t58 -80t78 -49t88 -16.5q48 0 93.5 19t84.5 61t59 109z" />
    <glyph glyph-name="D" unicode="D" horiz-adv-x="753" 
d="M698 375q0 -100 -43 -188t-124 -137.5t-186 -49.5h-65v105h50q59 0 106 22.5t78 61t46.5 87t15.5 99.5t-15.5 99.5t-46.5 87t-78 61t-106 22.5h-50v105h65q63 0 117.5 -18t96 -50.5t71 -75.5t46 -93t19.5 -87.5t3 -50.5zM80 750h120v-750h-120v750z" />
    <glyph glyph-name="E" unicode="E" horiz-adv-x="605" 
d="M486 427v-105h-206v105h206zM535 105v-105h-455v750h455v-105h-335v-540h335z" />
    <glyph glyph-name="F" unicode="F" horiz-adv-x="575" 
d="M515 750v-105h-235v105h235zM486 427v-105h-286v-322h-120v750h120v-323h286z" />
    <glyph glyph-name="G" unicode="G" horiz-adv-x="865" 
d="M815 428v-107h-370v107h370zM679 273l110 -47q-41 -117 -135.5 -181.5t-208.5 -64.5q-79 0 -151.5 30.5t-127.5 85.5t-85.5 127.5t-30.5 151.5t30 152t84 127.5t126 85.5t151 31t152 -31t127 -85l-79 -79q-39 42 -91 66t-108 24q-55 0 -105 -22.5t-87 -63t-58 -94
t-21 -111.5t21.5 -111.5t59.5 -93.5t88.5 -62.5t105.5 -22.5q48 0 97 21t84.5 66t51.5 101z" />
    <glyph glyph-name="H" unicode="H" horiz-adv-x="730" 
d="M650 750v-750h-120v322h-250v105h250v323h120zM200 750v-750h-120v750h120z" />
    <glyph glyph-name="I" unicode="I" horiz-adv-x="280" 
d="M200 750v-750h-120v750h120z" />
    <glyph glyph-name="J" unicode="J" horiz-adv-x="585" 
d="M515 750v-541q0 -30 -10 -65t-34.5 -67.5t-63 -58.5t-88.5 -35v110q33 13 54.5 45t21.5 71v541h120zM239 90v-107q-75 11 -127 64t-64 134l97 39q22 -108 94 -130z" />
    <glyph glyph-name="K" unicode="K" horiz-adv-x="640" 
d="M373 374l217 -327l-97 -62l-257 389l257 389l97 -62zM200 750v-750h-120v750h120z" />
    <glyph glyph-name="L" unicode="L" horiz-adv-x="590" 
d="M200 750v-750h-120v750h120zM535 105v-105h-255v105h255z" />
    <glyph glyph-name="M" unicode="M" horiz-adv-x="918" 
d="M814 426v-426h-120v426h120zM749 770l97 -69l-387 -529l-387 529l97 69l290 -399zM224 426v-426h-120v426h120z" />
    <glyph glyph-name="N" unicode="N" horiz-adv-x="759" 
d="M675 750v-466h-120v466h120zM177 773l502 -733l-97 -63l-502 733zM210 466v-466h-120v466h120z" />
    <glyph glyph-name="O" unicode="O" horiz-adv-x="856" 
d="M801 416h-120q-5 44 -21.5 88t-49 80t-79.5 59t-103 23q-44 0 -87 -16.5t-78.5 -48.5t-58.5 -79.5t-29 -105.5h-120q7 83 40.5 150t86 112.5t117 69t131.5 23.5q66 0 130 -23.5t116 -69t85 -112.5t40 -150zM681 336h120q-5 -62 -28.5 -125.5t-71.5 -114.5t-101.5 -76.5
t-96 -33t-73.5 -7.5q-67 0 -131.5 23.5t-110 63t-74.5 86t-42.5 95.5t-16.5 89h120q6 -59 29 -106.5t58 -80t78 -49t88 -16.5q44 0 87.5 16.5t78.5 49t58 80t29 106.5z" />
    <glyph glyph-name="P" unicode="P" horiz-adv-x="631" 
d="M576 536q0 -32 -11 -67.5t-41.5 -72t-74.5 -55.5t-87 -19h-82v105h77q32 0 56.5 18.5t33.5 44t9 46.5t-9 46.5t-33.5 44t-56.5 18.5h-77v105h82q32 0 67.5 -11t72 -41.5t55.5 -74.5t19 -87zM200 750v-750h-120v750h120z" />
    <glyph glyph-name="Q" unicode="Q" horiz-adv-x="883" 
d="M819 377q0 -108 -47 -199l-88 102q14 48 14 95q0 52 -14 97t-35 79t-51 59.5t-69.5 40.5t-84.5 15q-44 0 -87.5 -16.5t-79 -48.5t-59 -79.5t-29.5 -105.5h-120q3 40 16.5 88.5t42.5 94.5t68 80t85.5 55.5t89 29t73.5 7.5q89 0 161 -34t119 -91t71 -127.5t24 -141.5z
M549 331l281 -325l-87 -71l-280 325zM514 94l76 -87q-30 -13 -69 -20.5t-77 -7.5q-67 0 -132 23.5t-117.5 69t-86 113.5t-39.5 151h120q6 -59 29 -106.5t58 -80t78 -49t88 -16.5q35 0 72 10z" />
    <glyph glyph-name="R" unicode="R" horiz-adv-x="638" 
d="M576 536q0 -54 -26 -101.5t-70 -76.5l-62 90q18 14 28 37.5t10 50.5q0 21 -9 46.5t-33.5 44t-56.5 18.5h-77v105h82q32 0 67.5 -11t72 -41.5t55.5 -74.5t19 -87zM347 413l251 -361l-101 -71l-251 361zM200 750v-750h-120v750h120z" />
    <glyph glyph-name="S" unicode="S" horiz-adv-x="631" 
d="M574 578l-97 -38q-11 39 -34.5 66t-58 43.5t-73.5 16.5q-54 0 -93 -31.5t-39 -83.5q0 -25 12 -48t32 -35.5t38 -16.5l30 -7l-29 -106l-27 6q-30 7 -60.5 22.5t-55 41.5t-40.5 62t-16 78q0 39 14 78.5t46 71t80.5 52t108.5 20.5q54 0 110.5 -21t96.5 -67t55 -104zM581 217
q0 -44 -17.5 -86.5t-51 -76.5t-83.5 -54t-111 -20q-42 0 -84.5 11.5t-80.5 35t-67.5 59.5t-45.5 83l101 42q20 -62 68.5 -94.5t104.5 -32.5q28 0 63.5 11.5t61.5 42t26 73.5q0 35 -25 63.5t-72 39.5l-24 6l29 106l39 -9q82 -19 125.5 -74.5t43.5 -125.5z" />
    <glyph glyph-name="T" unicode="T" horiz-adv-x="602" 
d="M582 750v-105h-562v105h562zM361 565v-565h-120v565h120z" />
    <glyph glyph-name="U" unicode="U" horiz-adv-x="780" 
d="M700 750v-475q0 -41 -14 -87t-47 -88.5t-86.5 -75.5t-123.5 -42v107q62 13 106.5 64.5t44.5 121.5v475h120zM349 89v-106q-55 7 -105 32.5t-86.5 65t-57 90t-20.5 104.5v475h120v-475q0 -67 43 -119.5t106 -66.5z" />
    <glyph glyph-name="V" unicode="V" horiz-adv-x="760" 
d="M615 765l115 -39l-212 -552l-115 39zM145 765l294 -744l-115 -39l-294 744z" />
    <glyph glyph-name="W" unicode="W" horiz-adv-x="1035" 
d="M896 766l109 -37l-144 -485l-109 37zM471 766l109 -37l-144 -485l-109 37zM653 505l144 -488l-118 -35l-144 488zM148 763l220 -746l-118 -35l-220 746z" />
    <glyph glyph-name="X" unicode="X" horiz-adv-x="710" 
d="M582 763l95 -63l-202 -261l-95 63zM125 763l555 -713l-95 -63l-555 713zM232 311l95 -63l-202 -261l-95 63z" />
    <glyph glyph-name="Y" unicode="Y" horiz-adv-x="712" 
d="M583 767l99 -64l-265 -394v-309h-120v340zM129 767l196 -293l-99 -64l-196 293z" />
    <glyph glyph-name="Z" unicode="Z" horiz-adv-x="650" 
d="M580 750v-105h-520v105h520zM423 603l93 -62l-297 -405l-93 63zM580 105v-105h-520v105h520z" />
    <glyph glyph-name="bracketleft" unicode="[" horiz-adv-x="375" 
d="M315 -15v-105h-255v870h255v-105h-135v-660h135z" />
    <glyph glyph-name="backslash" unicode="\" horiz-adv-x="504" 
d="M109 821l395 -846l-109 -51l-395 846z" />
    <glyph glyph-name="bracketright" unicode="]" horiz-adv-x="375" 
d="M315 750v-870h-255v105h135v660h-135v105h255z" />
    <glyph glyph-name="asciicircum" unicode="^" horiz-adv-x="632" 
d="M180 544l115 -39l-110 -278l-115 39zM562 266l-115 -39l-192 499l115 39z" />
    <glyph glyph-name="underscore" unicode="_" horiz-adv-x="455" 
d="M435 -60v-105h-415v105h415z" />
    <glyph glyph-name="grave" unicode="`" horiz-adv-x="590" 
d="M194 800l254 -144l-52 -82l-254 144z" />
    <glyph glyph-name="a" unicode="a" horiz-adv-x="546" 
d="M476 303v-303h-120v288q0 20 -9.5 39t-33.5 29t-55 10q-30 0 -66 -8.5t-62 -21.5l-35 101q35 13 81 22t88 9t79.5 -8.5t67.5 -28t47.5 -52t17.5 -76.5zM267 99l19 -96q-32 -10 -70 -10q-29 0 -59 8.5t-54 28t-39 48.5t-15 64q0 43 22 76t58.5 51t86.5 18q38 0 70 -10
l-19 -96q-29 8 -46 8q-26 0 -41 -15t-15 -35q0 -19 15 -33.5t41 -14.5q21 0 46 8z" />
    <glyph glyph-name="b" unicode="b" horiz-adv-x="610" 
d="M560 225q0 -44 -15.5 -85.5t-46 -74.5t-77 -52t-103.5 -19q-31 0 -58 5l15 106q18 -7 40 -7t44.5 7t42 25.5t29 45t9.5 49.5q0 37 -18.5 69t-47.5 45t-59 13q-22 0 -40 -7l-15 106q27 5 58 5q57 0 103.5 -19t77 -52t46 -74.5t15.5 -85.5zM190 750v-750h-120v750h120z" />
    <glyph glyph-name="c" unicode="c" horiz-adv-x="552" 
d="M507 347l-101 -58q-16 34 -46 55t-65 21q-26 0 -54.5 -14.5t-49.5 -49t-21 -76.5q0 -27 12.5 -59.5t44 -56.5t68.5 -24q35 0 65 21t46 55l101 -59q-23 -40 -61.5 -70t-78.5 -41t-72 -11q-49 0 -94 19t-79 53t-53 79t-19 94t19 94t53 79t79 53t94 19t94.5 -19.5t74 -48.5
t43.5 -55z" />
    <glyph glyph-name="d" unicode="d" horiz-adv-x="610" 
d="M540 750v-750h-120v750h120zM335 105l15 -106q-27 -5 -58 -5q-57 0 -103.5 19t-77 52t-46 74.5t-15.5 85.5t15.5 85.5t46 74.5t77 52t103.5 19q31 0 58 -5l-15 -106q-17 7 -40 7q-30 0 -59 -13t-47.5 -45t-18.5 -69t18.5 -69t47.5 -45t59 -13q23 0 40 7z" />
    <glyph glyph-name="e" unicode="e" horiz-adv-x="553" 
d="M513 271l-228 -116l-51 87l127 65q-10 22 -31.5 34.5t-46.5 12.5q-26 0 -51.5 -13t-40 -34.5t-19.5 -41.5h-122q6 34 22.5 69t50 66.5t77.5 46.5t84 15q78 0 142 -49t87 -142zM393 161l101 -59q-15 -26 -44.5 -53t-74 -43.5t-89.5 -16.5q-41 0 -80 13t-71.5 38.5
t-54.5 62.5t-30 82h122q6 -20 20 -42t39 -35.5t53 -13.5q33 0 63.5 17.5t45.5 49.5z" />
    <glyph glyph-name="f" unicode="f" horiz-adv-x="348" 
d="M318 751v-106h-93v-115h-120v221h213zM318 450v-105h-93v-345h-120v345h-75v105h288z" />
    <glyph glyph-name="g" unicode="g" horiz-adv-x="610" 
d="M335 105l15 -106q-27 -5 -58 -5q-57 0 -103.5 19t-77 52t-46 74.5t-15.5 85.5t15.5 85.5t46 74.5t77 52t103.5 19q31 0 58 -5l-15 -106q-17 7 -40 7q-30 0 -59 -13t-47.5 -45t-18.5 -69t18.5 -69t47.5 -45t59 -13q23 0 40 7zM540 450v-495q0 -49 -19 -92.5t-53 -75.5
t-79 -49.5t-94 -17.5q-32 0 -72 11t-78.5 41t-61.5 70l101 59q16 -34 46 -55t65 -21q52 0 88.5 36.5t36.5 93.5v495h120z" />
    <glyph glyph-name="h" unicode="h" horiz-adv-x="570" 
d="M500 318v-318h-120v293q0 17 -7 32.5t-24.5 24t-38.5 8.5q-13 0 -33 -5l-20 97q38 9 67 9q30 0 62.5 -7.5t58 -25t40.5 -44.5t15 -64zM190 750v-750h-120v750h120z" />
    <glyph glyph-name="i" unicode="i" horiz-adv-x="270" 
d="M209 675q0 -30 -22 -52t-52 -22q-31 0 -53 22t-22 52q0 31 22 53t53 22q30 0 52 -22t22 -53zM195 450v-450h-120v450h120z" />
    <glyph glyph-name="j" unicode="j" horiz-adv-x="269" 
d="M209 675q0 -30 -22 -52t-52 -22q-31 0 -53 22t-22 52q0 31 22 53t53 22q30 0 52 -22t22 -53zM194 450v-719h-120v719h120z" />
    <glyph glyph-name="k" unicode="k" horiz-adv-x="529" 
d="M361 232l135 -182l-87 -71l-189 255l187 237l88 -70zM190 750v-750h-120v750h120z" />
    <glyph glyph-name="l" unicode="l" 
d="M190 750v-750h-120v750h120z" />
    <glyph glyph-name="m" unicode="m" horiz-adv-x="800" 
d="M710 318v-318h-120v303q0 25 -15.5 38t-37.5 13l-14 -1l-21 98q26 6 54 6q66 0 110 -39t44 -100zM460 318v-318h-120v303q0 22 -14 36.5t-37 14.5l-12 -1l-21 98q26 6 50 6q66 0 110 -39t44 -100zM190 450v-450h-120v450h120z" />
    <glyph glyph-name="n" unicode="n" horiz-adv-x="570" 
d="M500 318v-318h-120v293q0 17 -7 32.5t-24.5 24t-38.5 8.5q-13 0 -33 -5l-20 97q38 9 67 9q30 0 62.5 -7.5t58 -25t40.5 -44.5t15 -64zM190 450v-450h-120v450h120z" />
    <glyph glyph-name="o" unicode="o" horiz-adv-x="595" 
d="M545 225q0 -39 -14 -78t-41.5 -71.5t-66.5 -54.5t-86 -30v115q21 5 42.5 21t34 43t12.5 55t-12.5 55t-34 43t-42.5 21v115q35 -6 71.5 -22.5t66.5 -46.5t50 -72.5t20 -92.5zM257 106v-115q-35 6 -71 22.5t-66 46.5t-50 72.5t-20 92.5q0 39 14 78t41 71.5t66 54.5t86 30
v-115q-20 -5 -41.5 -21t-34 -43t-12.5 -55t12.5 -55t34 -43t41.5 -21z" />
    <glyph glyph-name="p" unicode="p" horiz-adv-x="610" 
d="M560 225q0 -44 -15.5 -85.5t-46 -74.5t-77 -52t-103.5 -19q-31 0 -58 5l15 106q18 -7 40 -7t44.5 7t42 25.5t29 45t9.5 49.5q0 37 -18.5 69t-47.5 45t-59 13q-22 0 -40 -7l-15 106q27 5 58 5q57 0 103.5 -19t77 -52t46 -74.5t15.5 -85.5zM190 450v-719h-120v719h120z" />
    <glyph glyph-name="q" unicode="q" horiz-adv-x="610" 
d="M540 450v-719h-120v719h120zM335 105l15 -106q-27 -5 -58 -5q-57 0 -103.5 19t-77 52t-46 74.5t-15.5 85.5t15.5 85.5t46 74.5t77 52t103.5 19q31 0 58 -5l-15 -106q-17 7 -40 7q-30 0 -59 -13t-47.5 -45t-18.5 -69t18.5 -69t47.5 -45t59 -13q23 0 40 7z" />
    <glyph glyph-name="r" unicode="r" horiz-adv-x="364" 
d="M334 450v-105h-264v105h264zM190 265v-265h-120v265h120z" />
    <glyph glyph-name="s" unicode="s" horiz-adv-x="473" 
d="M433 349l-96 -42q-12 31 -40 48t-58 17q-27 0 -46 -13.5t-19 -36.5q0 -13 9.5 -22.5t27.5 -13.5l6 -1l-27 -100q-67 16 -98.5 49t-31.5 89q0 35 14.5 63t40.5 47t59 28t65 9q64 0 119.5 -32t74.5 -89zM433 131q0 -44 -26 -80.5t-71.5 -54t-91.5 -17.5q-49 0 -96 19.5
t-72.5 51t-35.5 63.5l96 35q15 -33 45 -51t62 -18q30 0 52 15t22 39q0 11 -9.5 20t-27.5 13l-8 1l27 100q70 -16 102 -48t32 -88z" />
    <glyph glyph-name="t" unicode="t" horiz-adv-x="340" 
d="M231 750v-220h-120v140zM310 450v-105h-79v-345h-120v345h-81v105h280z" />
    <glyph glyph-name="u" unicode="u" horiz-adv-x="570" 
d="M500 449v-450h-120v450h120zM293 97l20 -98q-34 -8 -67 -8q-49 0 -90 16t-63.5 47.5t-22.5 76.5v318h120v-293q0 -17 7 -32.5t24 -23.5t39 -8q13 0 33 5z" />
    <glyph glyph-name="v" unicode="v" horiz-adv-x="535" 
d="M412 469l103 -53l-123 -271l-103 53zM129 470l199 -446l-109 -42l-199 446z" />
    <glyph glyph-name="w" unicode="w" horiz-adv-x="766" 
d="M638 469l113 -44l-85 -231l-113 44zM328 469l113 -44l-85 -231l-113 44zM514 268l87 -246l-116 -36l-87 246zM131 470l159 -448l-116 -36l-159 448z" />
    <glyph glyph-name="x" unicode="x" horiz-adv-x="514" 
d="M394 474l85 -66l-108 -131l-85 66zM129 472l350 -423l-86 -65l-350 423zM151 181l85 -66l-108 -131l-85 66z" />
    <glyph glyph-name="y" unicode="y" horiz-adv-x="535" 
d="M412 469l103 -53l-123 -271l-103 53zM129 470l203 -456l-131 -289l-103 53l107 235l-185 415z" />
    <glyph glyph-name="z" unicode="z" horiz-adv-x="527" 
d="M258 450v-105h-195v105h195zM414 465l85 -74l-382 -408l-85 74zM472 105v-105h-195v105h195z" />
    <glyph glyph-name="braceleft" unicode="{" horiz-adv-x="363" 
d="M333 750v-105h-37q-31 0 -49.5 -19t-18.5 -54v-121q0 -14 -4 -38l-117 22l1 16v121q0 29 9.5 59.5t32.5 57t60 44t86 17.5h37zM193 368v-105h-173v105h173zM333 -15v-105h-37q-29 0 -61 8.5t-63.5 32.5t-47.5 61t-16 76v121l-1 16l117 22q4 -24 4 -38v-121
q0 -35 18.5 -54t49.5 -19h37z" />
    <glyph glyph-name="bar" unicode="|" horiz-adv-x="375" 
d="M248 750v-870h-120v870h120z" />
    <glyph glyph-name="braceright" unicode="}" horiz-adv-x="363" 
d="M256 435l-117 -22q-4 24 -4 38v121q0 35 -18.5 54t-49.5 19h-37v105h37q29 0 61 -8.5t63.5 -32.5t47.5 -61t16 -76v-121zM343 368v-105h-173v105h173zM139 217l117 -22l-1 -16v-121q0 -29 -9.5 -59.5t-32.5 -57t-60 -44t-86 -17.5h-37v105h37q31 0 49.5 19t18.5 54v121
q0 14 4 38z" />
    <glyph glyph-name="asciitilde" unicode="~" horiz-adv-x="590" 
d="M435 366h125q0 -49 -22.5 -92t-63.5 -65t-85 -22q-33 0 -57.5 7t-40 16.5t-41.5 32.5t-49 23q-19 0 -32.5 -16t-13.5 -48h-125q0 29 9 60t33 61t59.5 44.5t69.5 14.5q33 0 63 -8.5t60 -34t40 -31t25 -5.5q19 0 32.5 16t13.5 47z" />
    <glyph glyph-name="uni007F" horiz-adv-x="1000" 
 />
    <glyph glyph-name="exclamdown" unicode="&#xa1;" horiz-adv-x="308" 
d="M233 411q0 -32 -23.5 -55.5t-55.5 -23.5t-55.5 23.5t-23.5 55.5t23.5 55.5t55.5 23.5t55.5 -23.5t23.5 -55.5zM214 213v-492h-120v492h120z" />
    <glyph glyph-name="cent" unicode="&#xa2;" horiz-adv-x="547" 
d="M502 347l-101 -58q-16 34 -46 55t-65 21q-26 0 -54.5 -14.5t-49.5 -49t-21 -76.5q0 -27 12.5 -59.5t44 -56.5t68.5 -24q35 0 65 21t46 55l101 -59q-18 -31 -45.5 -56t-55.5 -39t-51 -20v-127h-120v127q-49 12 -93.5 47t-68 87t-23.5 104q0 42 17.5 90.5t63 90.5t104.5 57
v126h120v-126q48 -13 88 -43.5t64 -72.5z" />
    <glyph glyph-name="sterling" unicode="&#xa3;" horiz-adv-x="602" 
d="M532 584l-105 -42q-14 52 -38.5 80t-46 35.5t-40.5 7.5q-22 0 -43.5 -9.5t-33 -32.5t-11.5 -52q0 -24 6 -48l6 -28l-111 -23l-11 49q-6 30 -6 57q0 84 57 138t151 54q47 0 95.5 -19.5t83 -64t47.5 -102.5zM470 427v-105h-204l35 -149l-112 -23l-39 172h-80v105h400z
M520 105v-105h-450v105h450z" />
    <glyph glyph-name="yen" unicode="&#xa5;" horiz-adv-x="725" 
d="M577 783l95 -70l-157 -203l-94 71zM151 783l157 -202l-95 -71l-156 203zM626 480v-105h-527v105h527zM629 290v-105h-206v-185h-120v185h-204v105h530z" />
    <glyph glyph-name="section" unicode="&#xa7;" horiz-adv-x="473" 
d="M451 624l-96 -35q-15 33 -46.5 51t-64.5 18q-34 0 -53 -17t-19 -40q0 -14 9 -27.5t26 -22.5l214 -107l-53 -93l-229 115q-40 20 -60.5 55.5t-20.5 75.5q0 38 22 76.5t67 61t100 22.5q31 0 73 -11t79 -42.5t52 -79.5zM433 140q0 -46 -25.5 -83t-67 -57.5t-96.5 -20.5
q-49 0 -96 19.5t-72.5 51t-35.5 63.5l96 35q15 -33 46.5 -51t64.5 -18q34 0 53 17t19 40q0 14 -9 27.5t-26 22.5l-214 107l53 92l229 -114q40 -20 60.5 -55.5t20.5 -75.5z" />
    <glyph glyph-name="dieresis" unicode="&#xa8;" horiz-adv-x="589" 
d="M471 697q0 -27 -19.5 -46.5t-46.5 -19.5t-46.5 19.5t-19.5 46.5t19.5 46.5t46.5 19.5t46.5 -19.5t19.5 -46.5zM250 697q0 -27 -19.5 -46.5t-46.5 -19.5t-46.5 19.5t-19.5 46.5t19.5 46.5t46.5 19.5t46.5 -19.5t19.5 -46.5z" />
    <glyph glyph-name="copyright" unicode="&#xa9;" horiz-adv-x="890" 
d="M838 416h-120q-9 65 -40 114t-65 75.5t-75.5 43t-91.5 16.5q-37 0 -79.5 -12.5t-82 -43t-70.5 -79.5t-40 -114h-122q8 72 41.5 137.5t87 114t122 75.5t142.5 27t142.5 -27t122 -75.5t87 -114t41.5 -137.5zM632 472l-95 -59q-13 35 -35.5 54t-52.5 19q-33 0 -56 -18.5
t-32 -51.5h-121q13 79 70 128t139 49q61 0 107.5 -32t75.5 -89zM537 337l95 -59q-20 -41 -52 -70t-67 -39.5t-64 -10.5q-83 0 -140.5 49.5t-69.5 128.5h122q8 -33 31.5 -52.5t56.5 -19.5q30 0 53 19.5t35 53.5zM719 336h119q-7 -73 -40.5 -138.5t-87 -114.5t-122.5 -76
t-143 -27t-143 27t-122.5 76t-87 114.5t-40.5 138.5h121q5 -38 22.5 -80.5t56 -85t91.5 -64t103 -21.5t97 19t84 53.5t61 80.5t31 98z" />
    <glyph glyph-name="guillemotleft" unicode="&#xab;" horiz-adv-x="589" 
d="M449 250l110 -111l-74 -74l-185 184l185 185l74 -74zM179 250l110 -111l-74 -74l-185 184l185 185l74 -74z" />
    <glyph glyph-name="registered" unicode="&#xae;" horiz-adv-x="890" 
d="M838 416h-120q-9 65 -40 114t-65 75.5t-75.5 43t-91.5 16.5q-37 0 -79.5 -12.5t-82 -43t-70.5 -79.5t-40 -114h-122q8 72 41.5 137.5t87 114t122 75.5t142.5 27t142.5 -27t122 -75.5t87 -114t41.5 -137.5zM630 456q0 -9 -4.5 -31t-22.5 -42t-48.5 -33t-78.5 -13h-20v98
h32q12 0 19 6t7 15q0 10 -7 15.5t-19 5.5h-32v98h20q29 0 57 -6.5t52.5 -23.5t34.5 -42t10 -47zM571 329l64 -110l-108 -61l-64 110zM408 575v-400h-120v400h120zM719 336h119q-7 -73 -40.5 -138.5t-87 -114.5t-122.5 -76t-143 -27t-143 27t-122.5 76t-87 114.5t-40.5 138.5
h121q5 -38 22.5 -80.5t56 -85t91.5 -64t103 -21.5t97 19t84 53.5t61 80.5t31 98z" />
    <glyph glyph-name="macron" unicode="&#xaf;" horiz-adv-x="590" 
d="M465 750v-105h-344v105h344z" />
    <glyph glyph-name="degree" unicode="&#xb0;" horiz-adv-x="486" 
d="M436 576q0 -69 -44 -122t-110 -67v95q25 12 42 38.5t17 55.5q0 30 -16.5 56t-42.5 39v94q66 -14 110 -66.5t44 -122.5zM202 483v-95q-63 14 -107.5 66t-44.5 122q0 34 14 72t51 72t87 45v-96q-25 -13 -41 -38.5t-16 -54.5t16 -54.5t41 -38.5z" />
    <glyph glyph-name="uni00B2" unicode="&#xb2;" horiz-adv-x="424" 
d="M374 621q0 -54 -43 -100l-85 -93l-79 75l69 71q7 7 12 21t5 26q0 18 -11 31t-32 13q-18 0 -32.5 -11t-14.5 -29v-35h-113v32q0 40 20.5 69.5t57.5 46.5t81 17q29 0 68 -11.5t68 -43.5t29 -79zM371 405v-105h-320v105h320z" />
    <glyph glyph-name="uni00B3" unicode="&#xb3;" horiz-adv-x="419" 
d="M368 616q0 -18 -5 -41l-110 42q0 23 -13 35.5t-31 12.5t-32 -11t-14 -29v-35h-113v32q0 40 20 70t56.5 47t79.5 17q71 0 116.5 -39t45.5 -101zM369 434q0 -33 -18.5 -67t-57.5 -53.5t-87 -19.5q-28 0 -65 11t-64 43t-27 80v32h113v-35q0 -18 14 -29t32 -11t31 12.5
t13 35.5q0 24 -15 36.5t-33 12.5h-20v92h20q48 0 84 -17.5t58 -49.5t22 -73z" />
    <glyph glyph-name="acute" unicode="&#xb4;" horiz-adv-x="590" 
d="M396 800l52 -82l-254 -144l-52 82z" />
    <glyph glyph-name="paragraph" unicode="&#xb6;" horiz-adv-x="730" 
d="M700 750v-105h-405q-58 0 -91.5 -38t-33.5 -88q0 -48 29.5 -85t82.5 -42l-32 -101q-59 8 -103 38.5t-70.5 79.5t-26.5 110q0 43 15.5 85t46 74.5t77 52t103.5 19.5h408zM630 560v-660h-120v660h120zM440 560v-660h-120v660h120z" />
    <glyph glyph-name="periodcentered" unicode="&#xb7;" 
d="M209 274q0 -32 -23.5 -55.5t-55.5 -23.5t-55.5 23.5t-23.5 55.5t23.5 55.5t55.5 23.5t55.5 -23.5t23.5 -55.5z" />
    <glyph glyph-name="cedilla" unicode="&#xb8;" horiz-adv-x="547" 
d="M379 -134q0 -35 -19 -61t-44.5 -35.5t-44.5 -9.5q-31 0 -59 17t-44 50l64 39q7 -11 18.5 -21t23.5 -10t20 9t8 19q0 9 -6 16t-14 7q-14 0 -23 -19l-66 51l101 130l65 -51l-36 -46q27 -13 41.5 -36t14.5 -49z" />
    <glyph glyph-name="uni00B9" unicode="&#xb9;" horiz-adv-x="422" 
d="M322 750v-450h-120v305l-91 -91l-71 72l162 164h120z" />
    <glyph glyph-name="guillemotright" unicode="&#xbb;" horiz-adv-x="589" 
d="M374 434l185 -185l-185 -184l-74 74l110 110l-110 111zM104 434l185 -185l-185 -184l-74 74l110 110l-110 111z" />
    <glyph glyph-name="onequarter" unicode="&#xbc;" horiz-adv-x="982" 
d="M932 164v-104h-69v-60h-120v60h-228l102 248l92 -39l-39 -105h73v286h120v-286h69zM659 770l92 -52l-426 -738l-92 52zM332 750v-450h-120v305l-91 -91l-71 72l162 164h120z" />
    <glyph glyph-name="onehalf" unicode="&#xbd;" horiz-adv-x="991" 
d="M941 321q0 -52 -42 -100l-85 -93l-79 75l68 71q8 8 13 22t5 25q0 18 -11 31t-32 13q-19 0 -33.5 -11t-14.5 -29v-34h-112v31q0 40 20.5 70t57.5 47t81 17q29 0 68 -11.5t67.5 -44t28.5 -79.5zM659 770l92 -52l-426 -738l-92 52zM939 105v-105h-320v105h320zM332 750v-450
h-120v305l-91 -91l-71 72l162 164h120z" />
    <glyph glyph-name="threequarters" unicode="&#xbe;" horiz-adv-x="982" 
d="M932 164v-104h-69v-60h-120v60h-228l102 248l92 -39l-39 -105h73v286h120v-286h69zM659 770l92 -52l-426 -738l-92 52zM358 616q0 -18 -5 -41l-110 42q0 23 -13 35.5t-31 12.5t-32 -11t-14 -29v-35h-113v32q0 40 20 70t56.5 47t79.5 17q71 0 116.5 -39t45.5 -101z
M359 434q0 -33 -18.5 -67t-57.5 -53.5t-87 -19.5q-28 0 -65 11t-64 43t-27 80v32h113v-35q0 -18 14 -29t32 -11t31 12.5t13 35.5q0 24 -15 36.5t-33 12.5h-20v92h20q48 0 84 -17.5t58 -49.5t22 -73z" />
    <glyph glyph-name="questiondown" unicode="&#xbf;" horiz-adv-x="532" 
d="M401 411q0 -32 -23.5 -55.5t-55.5 -23.5q-33 0 -56.5 23.5t-23.5 55.5t23.5 55.5t56.5 23.5q32 0 55.5 -23.5t23.5 -55.5zM455 -69l97 -38q-15 -59 -51.5 -101t-90.5 -66.5t-119 -24.5q-59 0 -107 18.5t-79.5 50.5t-48 72t-16.5 82q0 48 26 96.5t69 83.5l169 134l77 -83
l-169 -134q-24 -19 -39.5 -46t-15.5 -55q0 -33 20 -62.5t50.5 -41.5t62.5 -12q54 0 101 33t64 94z" />
    <glyph glyph-name="Agrave" unicode="&#xc0;" horiz-adv-x="740" 
d="M270 989l278 -95l-34 -89l-278 95zM426 765l294 -744l-115 -39l-294 744zM413 299v-104h-197l-81 -213l-115 39l212 552l115 -39l-90 -235h156z" />
    <glyph glyph-name="Aacute" unicode="&#xc1;" horiz-adv-x="740" 
d="M474 989l34 -89l-278 -95l-34 89zM426 765l294 -744l-115 -39l-294 744zM413 299v-104h-197l-81 -213l-115 39l212 552l115 -39l-90 -235h156z" />
    <glyph glyph-name="Acircumflex" unicode="&#xc2;" horiz-adv-x="740" 
d="M375 980l179 -90l-45 -83l-134 66l-134 -66l-46 83zM426 765l294 -744l-115 -39l-294 744zM413 299v-104h-197l-81 -213l-115 39l212 552l115 -39l-90 -235h156z" />
    <glyph glyph-name="Atilde" unicode="&#xc3;" horiz-adv-x="740" 
d="M426 765l294 -744l-115 -39l-294 744zM413 299v-104h-197l-81 -213l-115 39l212 552l115 -39l-90 -235h156zM459 960h85q0 -25 -11.5 -54t-40.5 -48.5t-64 -19.5q-29 0 -49 7.5t-41.5 27t-37.5 19.5q-13 0 -22 -11t-9 -33h-85q0 25 11.5 54.5t40.5 49t64 19.5
q29 0 49 -7.5t41.5 -27t37.5 -19.5q13 0 22 11t9 32z" />
    <glyph glyph-name="Adieresis" unicode="&#xc4;" horiz-adv-x="740" 
d="M426 765l294 -744l-115 -39l-294 744zM413 299v-104h-197l-81 -213l-115 39l212 552l115 -39l-90 -235h156zM535 891q0 -27 -19.5 -46.5t-46.5 -19.5t-46.5 19.5t-19.5 46.5t19.5 46.5t46.5 19.5t46.5 -19.5t19.5 -46.5zM314 891q0 -27 -19.5 -46.5t-46.5 -19.5
t-46.5 19.5t-19.5 46.5t19.5 46.5t46.5 19.5t46.5 -19.5t19.5 -46.5z" />
    <glyph glyph-name="Aring" unicode="&#xc5;" horiz-adv-x="740" 
d="M426 765l294 -744l-115 -39l-294 744zM413 299v-104h-197l-81 -213l-115 39l212 552l115 -39l-90 -235h156zM466 895q0 -31 -16.5 -58t-43.5 -41l-34 67q8 4 14 13.5t6 18.5q0 15 -11 26t-26 11t-26 -11t-11 -26q0 -9 6 -18.5t14 -13.5l-34 -67q-27 14 -43.5 41t-16.5 58
q0 21 11 47.5t39 45.5t61 19t61 -19t39 -45.5t11 -47.5z" />
    <glyph glyph-name="AE" unicode="&#xc6;" horiz-adv-x="1075" 
d="M956 427v-105h-206v105h206zM1005 105v-105h-455v555h120v-450h335zM1005 750v-105h-449l-219 -346h133v-104h-199l-135 -213l-106 60l449 708h526z" />
    <glyph glyph-name="Ccedilla" unicode="&#xc7;" horiz-adv-x="840" 
d="M775 522l-110 -45q-16 56 -49 97t-81 66.5t-107 25.5q-44 0 -87 -16.5t-78.5 -48.5t-58.5 -79.5t-29 -105.5h-120q7 83 40 150t85 112.5t116 69t130 23.5q55 0 109 -16t101 -48t83 -79t56 -106zM665 273l110 -47q-40 -116 -137 -181.5t-212 -65.5q-49 0 -107 15.5
t-113 55.5t-88.5 93.5t-46.5 103t-16 89.5h120q6 -59 29 -106.5t58 -80t78 -49t88 -16.5q48 0 93.5 19t84.5 61t59 109zM549 -134q0 -35 -19 -61t-44.5 -35.5t-44.5 -9.5q-31 0 -59 17t-44 50l64 39q7 -11 18.5 -21t23.5 -10t20 9t8 19q0 9 -6 16t-14 7q-14 0 -23 -19
l-66 51l101 130l65 -51l-36 -46q27 -13 41.5 -36t14.5 -49z" />
    <glyph glyph-name="Egrave" unicode="&#xc8;" horiz-adv-x="605" 
d="M180 989l278 -95l-34 -89l-278 95zM486 427v-105h-206v105h206zM535 105v-105h-455v750h455v-105h-335v-540h335z" />
    <glyph glyph-name="Eacute" unicode="&#xc9;" horiz-adv-x="605" 
d="M404 989l34 -89l-278 -95l-34 89zM486 427v-105h-206v105h206zM535 105v-105h-455v750h455v-105h-335v-540h335z" />
    <glyph glyph-name="Ecircumflex" unicode="&#xca;" horiz-adv-x="605" 
d="M305 980l179 -90l-45 -83l-134 66l-134 -66l-46 83zM486 427v-105h-206v105h206zM535 105v-105h-455v750h455v-105h-335v-540h335z" />
    <glyph glyph-name="Edieresis" unicode="&#xcb;" horiz-adv-x="605" 
d="M486 427v-105h-206v105h206zM535 105v-105h-455v750h455v-105h-335v-540h335zM475 891q0 -27 -19.5 -46.5t-46.5 -19.5t-46.5 19.5t-19.5 46.5t19.5 46.5t46.5 19.5t46.5 -19.5t19.5 -46.5zM254 891q0 -27 -19.5 -46.5t-46.5 -19.5t-46.5 19.5t-19.5 46.5t19.5 46.5
t46.5 19.5t46.5 -19.5t19.5 -46.5z" />
    <glyph glyph-name="Igrave" unicode="&#xcc;" 
d="M8 989l278 -95l-34 -89l-278 95zM200 750v-750h-120v750h120z" />
    <glyph glyph-name="Iacute" unicode="&#xcd;" 
d="M252 989l34 -89l-278 -95l-34 89zM200 750v-750h-120v750h120z" />
    <glyph glyph-name="Icircumflex" unicode="&#xce;" 
d="M131 980l179 -90l-45 -83l-134 66l-135 -66l-46 83zM201 750v-750h-120v750h120z" />
    <glyph glyph-name="Idieresis" unicode="&#xcf;" 
d="M201 750v-750h-120v750h120zM308 891q0 -27 -19.5 -46.5t-46.5 -19.5t-46.5 19.5t-19.5 46.5t19.5 46.5t46.5 19.5t46.5 -19.5t19.5 -46.5zM87 891q0 -27 -19.5 -46.5t-46.5 -19.5t-46.5 19.5t-19.5 46.5t19.5 46.5t46.5 19.5t46.5 -19.5t19.5 -46.5z" />
    <glyph glyph-name="Eth" unicode="&#xd0;" horiz-adv-x="743" 
d="M693 375q0 -100 -43 -188t-124 -137.5t-186 -49.5h-65v105h50q59 0 106 22.5t78 61t46.5 87t15.5 99.5t-15.5 99.5t-46.5 87t-78 61t-106 22.5h-50v105h65q63 0 117.5 -18t96 -50.5t71 -75.5t46 -93t19.5 -87.5t3 -50.5zM292 431v-105h-97v-326h-120v326h-93v105h93v319
h120v-319h97z" />
    <glyph glyph-name="Ntilde" unicode="&#xd1;" horiz-adv-x="759" 
d="M675 750v-466h-120v466h120zM177 773l502 -733l-97 -63l-502 733zM210 466v-466h-120v466h120zM480 960h85q0 -25 -11.5 -54t-40.5 -48.5t-64 -19.5q-29 0 -49 7.5t-41.5 27t-37.5 19.5q-13 0 -22 -11t-9 -33h-85q0 25 11.5 54.5t40.5 49t64 19.5q29 0 49 -7.5t41.5 -27
t37.5 -19.5q13 0 22 11t9 32z" />
    <glyph glyph-name="Ograve" unicode="&#xd2;" horiz-adv-x="856" 
d="M330 989l278 -95l-34 -89l-278 95zM801 416h-120q-5 44 -21.5 88t-49 80t-79.5 59t-103 23q-44 0 -87 -16.5t-78.5 -48.5t-58.5 -79.5t-29 -105.5h-120q7 83 40.5 150t86 112.5t117 69t131.5 23.5q66 0 130 -23.5t116 -69t85 -112.5t40 -150zM681 336h120
q-5 -62 -28.5 -125.5t-71.5 -114.5t-101.5 -76.5t-96 -33t-73.5 -7.5q-67 0 -131.5 23.5t-110 63t-74.5 86t-42.5 95.5t-16.5 89h120q6 -59 29 -106.5t58 -80t78 -49t88 -16.5q44 0 87.5 16.5t78.5 49t58 80t29 106.5z" />
    <glyph glyph-name="Oacute" unicode="&#xd3;" horiz-adv-x="856" 
d="M554 989l34 -89l-278 -95l-34 89zM801 416h-120q-5 44 -21.5 88t-49 80t-79.5 59t-103 23q-44 0 -87 -16.5t-78.5 -48.5t-58.5 -79.5t-29 -105.5h-120q7 83 40.5 150t86 112.5t117 69t131.5 23.5q66 0 130 -23.5t116 -69t85 -112.5t40 -150zM681 336h120
q-5 -62 -28.5 -125.5t-71.5 -114.5t-101.5 -76.5t-96 -33t-73.5 -7.5q-67 0 -131.5 23.5t-110 63t-74.5 86t-42.5 95.5t-16.5 89h120q6 -59 29 -106.5t58 -80t78 -49t88 -16.5q44 0 87.5 16.5t78.5 49t58 80t29 106.5z" />
    <glyph glyph-name="Ocircumflex" unicode="&#xd4;" horiz-adv-x="856" 
d="M433 980l179 -90l-45 -83l-134 66l-134 -66l-46 83zM801 416h-120q-5 44 -21.5 88t-49 80t-79.5 59t-103 23q-44 0 -87 -16.5t-78.5 -48.5t-58.5 -79.5t-29 -105.5h-120q7 83 40.5 150t86 112.5t117 69t131.5 23.5q66 0 130 -23.5t116 -69t85 -112.5t40 -150zM681 336
h120q-5 -62 -28.5 -125.5t-71.5 -114.5t-101.5 -76.5t-96 -33t-73.5 -7.5q-67 0 -131.5 23.5t-110 63t-74.5 86t-42.5 95.5t-16.5 89h120q6 -59 29 -106.5t58 -80t78 -49t88 -16.5q44 0 87.5 16.5t78.5 49t58 80t29 106.5z" />
    <glyph glyph-name="Otilde" unicode="&#xd5;" horiz-adv-x="856" 
d="M536 960h85q0 -54 -33.5 -88t-82.5 -34q-15 0 -30.5 2.5t-29 9.5t-33 24.5t-34.5 17.5q-14 0 -23 -11t-9 -33h-85q0 25 11.5 54.5t40.5 49t64 19.5q29 0 49 -7.5t41.5 -27t37.5 -19.5q14 0 22.5 10.5t8.5 32.5zM801 416h-120q-5 44 -21.5 88t-49 80t-79.5 59t-103 23
q-44 0 -87 -16.5t-78.5 -48.5t-58.5 -79.5t-29 -105.5h-120q7 83 40.5 150t86 112.5t117 69t131.5 23.5q66 0 130 -23.5t116 -69t85 -112.5t40 -150zM681 336h120q-5 -62 -28.5 -125.5t-71.5 -114.5t-101.5 -76.5t-96 -33t-73.5 -7.5q-67 0 -131.5 23.5t-110 63t-74.5 86
t-42.5 95.5t-16.5 89h120q6 -59 29 -106.5t58 -80t78 -49t88 -16.5q44 0 87.5 16.5t78.5 49t58 80t29 106.5z" />
    <glyph glyph-name="Odieresis" unicode="&#xd6;" horiz-adv-x="856" 
d="M801 416h-120q-5 44 -21.5 88t-49 80t-79.5 59t-103 23q-44 0 -87 -16.5t-78.5 -48.5t-58.5 -79.5t-29 -105.5h-120q7 83 40.5 150t86 112.5t117 69t131.5 23.5q66 0 130 -23.5t116 -69t85 -112.5t40 -150zM681 336h120q-5 -62 -28.5 -125.5t-71.5 -114.5t-101.5 -76.5
t-96 -33t-73.5 -7.5q-67 0 -131.5 23.5t-110 63t-74.5 86t-42.5 95.5t-16.5 89h120q6 -59 29 -106.5t58 -80t78 -49t88 -16.5q44 0 87.5 16.5t78.5 49t58 80t29 106.5zM627 891q0 -27 -19.5 -46.5t-46.5 -19.5t-46.5 19.5t-19.5 46.5t19.5 46.5t46.5 19.5t46.5 -19.5
t19.5 -46.5zM406 891q0 -27 -19.5 -46.5t-46.5 -19.5t-46.5 19.5t-19.5 46.5t19.5 46.5t46.5 19.5t46.5 -19.5t19.5 -46.5z" />
    <glyph glyph-name="multiply" unicode="&#xd7;" horiz-adv-x="630" 
d="M315 290l-152 -152l-85 85l152 152l-152 152l85 85l152 -152l152 152l85 -85l-152 -152l152 -152l-85 -85z" />
    <glyph glyph-name="Oslash" unicode="&#xd8;" horiz-adv-x="856" 
d="M848 376q0 -79 -30.5 -151.5t-85.5 -127.5t-127.5 -85.5t-151.5 -30.5l-37 2l15 104l21 -1q55 0 105.5 22.5t88.5 62.5t59.5 93.5t21.5 111.5q0 56 -19.5 108t-54.5 90l79 81q54 -53 85 -126.5t31 -152.5zM596 826l99 -46l-388 -856l-99 47zM487 768l-15 -104l-21 1
q-55 0 -105.5 -22.5t-88.5 -62.5t-59.5 -93.5t-21.5 -111.5q0 -56 19.5 -108t54.5 -90l-79 -81q-54 53 -85 126.5t-31 152.5t30.5 151.5t85.5 127.5t127.5 85.5t151.5 30.5z" />
    <glyph glyph-name="Ugrave" unicode="&#xd9;" horiz-adv-x="780" 
d="M270 989l278 -95l-34 -89l-278 95zM700 750v-475q0 -41 -14 -87t-47 -88.5t-86.5 -75.5t-123.5 -42v107q62 13 106.5 64.5t44.5 121.5v475h120zM349 89v-106q-55 7 -105 32.5t-86.5 65t-57 90t-20.5 104.5v475h120v-475q0 -67 43 -119.5t106 -66.5z" />
    <glyph glyph-name="Uacute" unicode="&#xda;" horiz-adv-x="780" 
d="M514 989l34 -89l-278 -95l-34 89zM700 750v-475q0 -41 -14 -87t-47 -88.5t-86.5 -75.5t-123.5 -42v107q62 13 106.5 64.5t44.5 121.5v475h120zM349 89v-106q-55 7 -105 32.5t-86.5 65t-57 90t-20.5 104.5v475h120v-475q0 -67 43 -119.5t106 -66.5z" />
    <glyph glyph-name="Ucircumflex" unicode="&#xdb;" horiz-adv-x="780" 
d="M389 980l179 -90l-45 -83l-134 66l-134 -66l-46 83zM700 750v-475q0 -41 -14 -87t-47 -88.5t-86.5 -75.5t-123.5 -42v107q62 13 106.5 64.5t44.5 121.5v475h120zM349 89v-106q-55 7 -105 32.5t-86.5 65t-57 90t-20.5 104.5v475h120v-475q0 -67 43 -119.5t106 -66.5z" />
    <glyph glyph-name="Udieresis" unicode="&#xdc;" horiz-adv-x="780" 
d="M700 750v-475q0 -41 -14 -87t-47 -88.5t-86.5 -75.5t-123.5 -42v107q62 13 106.5 64.5t44.5 121.5v475h120zM349 89v-106q-55 7 -105 32.5t-86.5 65t-57 90t-20.5 104.5v475h120v-475q0 -67 43 -119.5t106 -66.5zM567 891q0 -27 -19.5 -46.5t-46.5 -19.5t-46.5 19.5
t-19.5 46.5t19.5 46.5t46.5 19.5t46.5 -19.5t19.5 -46.5zM346 891q0 -27 -19.5 -46.5t-46.5 -19.5t-46.5 19.5t-19.5 46.5t19.5 46.5t46.5 19.5t46.5 -19.5t19.5 -46.5z" />
    <glyph glyph-name="Yacute" unicode="&#xdd;" horiz-adv-x="712" 
d="M484 989l34 -89l-278 -95l-34 89zM583 767l99 -64l-265 -394v-309h-120v340zM129 767l196 -293l-99 -64l-196 293z" />
    <glyph glyph-name="Thorn" unicode="&#xde;" horiz-adv-x="616" 
d="M566 375q0 -32 -11 -67.5t-41.5 -72t-74.5 -55.5t-87 -19h-82v105h77q32 0 56.5 18.5t33.5 44t9 46.5t-9 46.5t-33.5 44t-56.5 18.5h-77v105h82q32 0 67.5 -11t72 -41.5t55.5 -74.5t19 -87zM190 750v-750h-120v750h120z" />
    <glyph glyph-name="germandbls" unicode="&#xdf;" horiz-adv-x="624" 
d="M543 556q0 -27 -8 -57.5t-23 -55.5l-142 -245l-96 46l140 245q16 28 16 63q0 45 -28 79t-74 34q-41 0 -72 -30t-31 -82v-208h-195v105h74v103q0 38 12.5 77t41.5 70t72.5 51t96.5 20q47 0 87.5 -17.5t69 -47.5t44 -69.5t15.5 -80.5zM591 128q0 -43 -22.5 -79t-62 -53.5
t-78.5 -17.5q-55 0 -100.5 31t-63.5 89l97 35q5 -13 15 -26.5t23.5 -21t27.5 -7.5q20 0 34 12.5t14 31.5q0 11 -6.5 21t-18.5 16l-19 9l52 90l26 -12q44 -22 63 -53.5t19 -64.5zM105 265h120v-265h-120v265z" />
    <glyph glyph-name="agrave" unicode="&#xe0;" horiz-adv-x="546" 
d="M476 303v-303h-120v288q0 20 -9.5 39t-33.5 29t-55 10q-30 0 -66 -8.5t-62 -21.5l-35 101q35 13 81 22t88 9t79.5 -8.5t67.5 -28t47.5 -52t17.5 -76.5zM267 99l19 -96q-32 -10 -70 -10q-29 0 -59 8.5t-54 28t-39 48.5t-15 64q0 43 22 76t58.5 51t86.5 18q38 0 70 -10
l-19 -96q-29 8 -46 8q-26 0 -41 -15t-15 -35q0 -19 15 -33.5t41 -14.5q21 0 46 8zM194 800l254 -144l-52 -82l-254 144z" />
    <glyph glyph-name="aacute" unicode="&#xe1;" horiz-adv-x="546" 
d="M476 303v-303h-120v288q0 20 -9.5 39t-33.5 29t-55 10q-30 0 -66 -8.5t-62 -21.5l-35 101q35 13 81 22t88 9t79.5 -8.5t67.5 -28t47.5 -52t17.5 -76.5zM267 99l19 -96q-32 -10 -70 -10q-29 0 -59 8.5t-54 28t-39 48.5t-15 64q0 43 22 76t58.5 51t86.5 18q38 0 70 -10
l-19 -96q-29 8 -46 8q-26 0 -41 -15t-15 -35q0 -19 15 -33.5t41 -14.5q21 0 46 8zM396 800l52 -82l-254 -144l-52 82z" />
    <glyph glyph-name="acircumflex" unicode="&#xe2;" horiz-adv-x="546" 
d="M476 303v-303h-120v288q0 20 -9.5 39t-33.5 29t-55 10q-30 0 -66 -8.5t-62 -21.5l-35 101q35 13 81 22t88 9t79.5 -8.5t67.5 -28t47.5 -52t17.5 -76.5zM267 99l19 -96q-32 -10 -70 -10q-29 0 -59 8.5t-54 28t-39 48.5t-15 64q0 43 22 76t58.5 51t86.5 18q38 0 70 -10
l-19 -96q-29 8 -46 8q-26 0 -41 -15t-15 -35q0 -19 15 -33.5t41 -14.5q21 0 46 8zM295 799l180 -155l-66 -71l-114 98l-114 -98l-66 71z" />
    <glyph glyph-name="atilde" unicode="&#xe3;" horiz-adv-x="546" 
d="M476 303v-303h-120v288q0 20 -9.5 39t-33.5 29t-55 10q-30 0 -66 -8.5t-62 -21.5l-35 101q35 13 81 22t88 9t79.5 -8.5t67.5 -28t47.5 -52t17.5 -76.5zM267 99l19 -96q-32 -10 -70 -10q-29 0 -59 8.5t-54 28t-39 48.5t-15 64q0 43 22 76t58.5 51t86.5 18q38 0 70 -10
l-19 -96q-29 8 -46 8q-26 0 -41 -15t-15 -35q0 -19 15 -33.5t41 -14.5q21 0 46 8zM390 750h85q0 -25 -11.5 -54t-40.5 -48.5t-64 -19.5q-29 0 -49 7.5t-41.5 27t-37.5 19.5q-13 0 -22 -11t-9 -33h-85q0 25 11.5 54.5t40.5 49t64 19.5q29 0 49 -7.5t41.5 -27t37.5 -19.5
q13 0 22 11t9 32z" />
    <glyph glyph-name="adieresis" unicode="&#xe4;" horiz-adv-x="546" 
d="M476 303v-303h-120v288q0 20 -9.5 39t-33.5 29t-55 10q-30 0 -66 -8.5t-62 -21.5l-35 101q35 13 81 22t88 9t79.5 -8.5t67.5 -28t47.5 -52t17.5 -76.5zM267 99l19 -96q-32 -10 -70 -10q-29 0 -59 8.5t-54 28t-39 48.5t-15 64q0 43 22 76t58.5 51t86.5 18q38 0 70 -10
l-19 -96q-29 8 -46 8q-26 0 -41 -15t-15 -35q0 -19 15 -33.5t41 -14.5q21 0 46 8zM471 697q0 -27 -19.5 -46.5t-46.5 -19.5t-46.5 19.5t-19.5 46.5t19.5 46.5t46.5 19.5t46.5 -19.5t19.5 -46.5zM250 697q0 -27 -19.5 -46.5t-46.5 -19.5t-46.5 19.5t-19.5 46.5t19.5 46.5
t46.5 19.5t46.5 -19.5t19.5 -46.5z" />
    <glyph glyph-name="aring" unicode="&#xe5;" horiz-adv-x="546" 
d="M476 303v-303h-120v288q0 20 -9.5 39t-33.5 29t-55 10q-30 0 -66 -8.5t-62 -21.5l-35 101q35 13 81 22t88 9t79.5 -8.5t67.5 -28t47.5 -52t17.5 -76.5zM267 99l19 -96q-32 -10 -70 -10q-29 0 -59 8.5t-54 28t-39 48.5t-15 64q0 43 22 76t58.5 51t86.5 18q38 0 70 -10
l-19 -96q-29 8 -46 8q-26 0 -41 -15t-15 -35q0 -19 15 -33.5t41 -14.5q21 0 46 8zM396 677q0 -31 -16.5 -58t-43.5 -41l-34 67q8 4 14 13.5t6 18.5q0 15 -11 26t-26 11t-26 -11t-11 -26q0 -9 6 -18.5t14 -13.5l-34 -67q-27 14 -43.5 41t-16.5 58q0 21 11 47.5t39 45.5t61 19
t61 -19t39 -45.5t11 -47.5z" />
    <glyph glyph-name="ae" unicode="&#xe6;" horiz-adv-x="860" 
d="M829 271l-228 -116l-51 87l127 65q-10 22 -31.5 34.5t-46.5 12.5q-26 0 -50 -12l-56 95q49 25 107 25q78 0 142 -49t87 -142zM709 161l101 -59q-15 -26 -44.5 -53t-74 -43.5t-89.5 -16.5q-49 0 -94 19t-79 53t-53 79t-19 94v45q0 20 -10 41t-34.5 33.5t-54.5 12.5
t-66 -8.5t-62 -21.5l-35 101q35 13 81 22t88 9q41 0 79 -11.5t68 -35.5t47.5 -61.5t17.5 -85.5v-40q0 -58 36.5 -99t87.5 -41q33 0 63.5 17.5t45.5 49.5zM274 120l88 -55q-20 -33 -58 -52.5t-88 -19.5q-29 0 -59 8.5t-54 28t-39 48.5t-15 64q0 43 22 76t58.5 51t86.5 18
q34 0 61 -7v-99q-30 8 -56 8t-41 -15t-15 -35q0 -23 15 -36t36 -13q15 0 31.5 8t26.5 22z" />
    <glyph glyph-name="ccedilla" unicode="&#xe7;" horiz-adv-x="552" 
d="M379 -134q0 -35 -19 -61t-44.5 -35.5t-44.5 -9.5q-31 0 -59 17t-44 50l64 39q7 -11 18.5 -21t23.5 -10t20 9t8 19q0 9 -6 16t-14 7q-14 0 -23 -19l-66 51l101 130l65 -51l-36 -46q27 -13 41.5 -36t14.5 -49zM507 347l-101 -58q-16 34 -46 55t-65 21q-26 0 -54.5 -14.5
t-49.5 -49t-21 -76.5q0 -27 12.5 -59.5t44 -56.5t68.5 -24q35 0 65 21t46 55l101 -59q-23 -40 -61.5 -70t-78.5 -41t-72 -11q-49 0 -94 19t-79 53t-53 79t-19 94t19 94t53 79t79 53t94 19t94.5 -19.5t74 -48.5t43.5 -55z" />
    <glyph glyph-name="egrave" unicode="&#xe8;" horiz-adv-x="553" 
d="M513 271l-228 -116l-51 87l127 65q-10 22 -31.5 34.5t-46.5 12.5q-26 0 -51.5 -13t-40 -34.5t-19.5 -41.5h-122q6 34 22.5 69t50 66.5t77.5 46.5t84 15q78 0 142 -49t87 -142zM393 161l101 -59q-15 -26 -44.5 -53t-74 -43.5t-89.5 -16.5q-41 0 -80 13t-71.5 38.5
t-54.5 62.5t-30 82h122q6 -20 20 -42t39 -35.5t53 -13.5q33 0 63.5 17.5t45.5 49.5zM184 800l254 -144l-52 -82l-254 144z" />
    <glyph glyph-name="eacute" unicode="&#xe9;" horiz-adv-x="553" 
d="M513 271l-228 -116l-51 87l127 65q-10 22 -31.5 34.5t-46.5 12.5q-26 0 -51.5 -13t-40 -34.5t-19.5 -41.5h-122q6 34 22.5 69t50 66.5t77.5 46.5t84 15q78 0 142 -49t87 -142zM393 161l101 -59q-15 -26 -44.5 -53t-74 -43.5t-89.5 -16.5q-41 0 -80 13t-71.5 38.5
t-54.5 62.5t-30 82h122q6 -20 20 -42t39 -35.5t53 -13.5q33 0 63.5 17.5t45.5 49.5zM386 800l52 -82l-254 -144l-52 82z" />
    <glyph glyph-name="ecircumflex" unicode="&#xea;" horiz-adv-x="553" 
d="M513 271l-228 -116l-51 87l127 65q-10 22 -31.5 34.5t-46.5 12.5q-26 0 -51.5 -13t-40 -34.5t-19.5 -41.5h-122q6 34 22.5 69t50 66.5t77.5 46.5t84 15q78 0 142 -49t87 -142zM393 161l101 -59q-15 -26 -44.5 -53t-74 -43.5t-89.5 -16.5q-41 0 -80 13t-71.5 38.5
t-54.5 62.5t-30 82h122q6 -20 20 -42t39 -35.5t53 -13.5q33 0 63.5 17.5t45.5 49.5zM281 799l180 -155l-66 -71l-114 98l-114 -98l-66 71z" />
    <glyph glyph-name="edieresis" unicode="&#xeb;" horiz-adv-x="553" 
d="M513 271l-228 -116l-51 87l127 65q-10 22 -31.5 34.5t-46.5 12.5q-26 0 -51.5 -13t-40 -34.5t-19.5 -41.5h-122q6 34 22.5 69t50 66.5t77.5 46.5t84 15q78 0 142 -49t87 -142zM393 161l101 -59q-15 -26 -44.5 -53t-74 -43.5t-89.5 -16.5q-41 0 -80 13t-71.5 38.5
t-54.5 62.5t-30 82h122q6 -20 20 -42t39 -35.5t53 -13.5q33 0 63.5 17.5t45.5 49.5zM461 697q0 -27 -19.5 -46.5t-46.5 -19.5t-46.5 19.5t-19.5 46.5t19.5 46.5t46.5 19.5t46.5 -19.5t19.5 -46.5zM240 697q0 -27 -19.5 -46.5t-46.5 -19.5t-46.5 19.5t-19.5 46.5t19.5 46.5
t46.5 19.5t46.5 -19.5t19.5 -46.5z" />
    <glyph glyph-name="igrave" unicode="&#xec;" 
d="M190 450v-450h-120v450h120zM29 800l254 -144l-52 -82l-254 144z" />
    <glyph glyph-name="iacute" unicode="&#xed;" 
d="M190 450v-450h-120v450h120zM231 800l52 -82l-254 -144l-52 82z" />
    <glyph glyph-name="icircumflex" unicode="&#xee;" 
d="M190 450v-450h-120v450h120zM128 799l180 -155l-66 -71l-114 98l-114 -98l-66 71z" />
    <glyph glyph-name="idieresis" unicode="&#xef;" 
d="M190 450v-450h-120v450h120zM308 697q0 -27 -19.5 -46.5t-46.5 -19.5t-46.5 19.5t-19.5 46.5t19.5 46.5t46.5 19.5t46.5 -19.5t19.5 -46.5zM87 697q0 -27 -19.5 -46.5t-46.5 -19.5t-46.5 19.5t-19.5 46.5t19.5 46.5t46.5 19.5t46.5 -19.5t19.5 -46.5z" />
    <glyph glyph-name="eth" unicode="&#xf0;" horiz-adv-x="591" 
d="M541 223q0 -34 -12 -74t-46 -82t-85 -64.5t-103 -22.5q-49 0 -94 19t-79 52t-53 77.5t-19 92.5q0 40 13 78t37 69t57 53.5t71 32.5l26 -96q-28 -10 -49.5 -33.5t-29.5 -51t-8 -48.5q0 -27 12.5 -59.5t44 -56.5t68.5 -24q26 0 54.5 14.5t49.5 49t21 76.5t-20 76l-136 232
l-111 -67l-54 81l115 70l-56 95l100 59l55 -93l113 67l53 -80l-116 -72l148 -251q16 -27 24.5 -59t8.5 -60z" />
    <glyph glyph-name="ntilde" unicode="&#xf1;" horiz-adv-x="570" 
d="M500 318v-318h-120v293q0 17 -7 32.5t-24.5 24t-38.5 8.5q-13 0 -33 -5l-20 97q38 9 67 9q30 0 62.5 -7.5t58 -25t40.5 -44.5t15 -64zM190 450v-450h-120v450h120zM380 750h85q0 -25 -11.5 -54t-40.5 -48.5t-64 -19.5q-29 0 -49 7.5t-41.5 27t-37.5 19.5q-13 0 -22 -11
t-9 -33h-85q0 25 11.5 54.5t40.5 49t64 19.5q29 0 49 -7.5t41.5 -27t37.5 -19.5q13 0 22 11t9 32z" />
    <glyph glyph-name="ograve" unicode="&#xf2;" horiz-adv-x="595" 
d="M194 800l254 -144l-52 -82l-254 144zM545 225q0 -39 -14 -78t-41.5 -71.5t-66.5 -54.5t-86 -30v115q21 5 42.5 21t34 43t12.5 55t-12.5 55t-34 43t-42.5 21v115q35 -6 71.5 -22.5t66.5 -46.5t50 -72.5t20 -92.5zM257 106v-115q-35 6 -71 22.5t-66 46.5t-50 72.5t-20 92.5
q0 39 14 78t41 71.5t66 54.5t86 30v-115q-20 -5 -41.5 -21t-34 -43t-12.5 -55t12.5 -55t34 -43t41.5 -21z" />
    <glyph glyph-name="oacute" unicode="&#xf3;" horiz-adv-x="595" 
d="M396 800l52 -82l-254 -144l-52 82zM545 225q0 -39 -14 -78t-41.5 -71.5t-66.5 -54.5t-86 -30v115q21 5 42.5 21t34 43t12.5 55t-12.5 55t-34 43t-42.5 21v115q35 -6 71.5 -22.5t66.5 -46.5t50 -72.5t20 -92.5zM257 106v-115q-35 6 -71 22.5t-66 46.5t-50 72.5t-20 92.5
q0 39 14 78t41 71.5t66 54.5t86 30v-115q-20 -5 -41.5 -21t-34 -43t-12.5 -55t12.5 -55t34 -43t41.5 -21z" />
    <glyph glyph-name="ocircumflex" unicode="&#xf4;" horiz-adv-x="595" 
d="M545 225q0 -39 -14 -78t-41.5 -71.5t-66.5 -54.5t-86 -30v115q21 5 42.5 21t34 43t12.5 55t-12.5 55t-34 43t-42.5 21v115q35 -6 71.5 -22.5t66.5 -46.5t50 -72.5t20 -92.5zM257 106v-115q-35 6 -71 22.5t-66 46.5t-50 72.5t-20 92.5q0 39 14 78t41 71.5t66 54.5t86 30
v-115q-20 -5 -41.5 -21t-34 -43t-12.5 -55t12.5 -55t34 -43t41.5 -21zM295 799l180 -155l-66 -71l-114 98l-114 -98l-66 71z" />
    <glyph glyph-name="otilde" unicode="&#xf5;" horiz-adv-x="595" 
d="M390 750h85q0 -25 -11.5 -54t-40.5 -48.5t-64 -19.5q-29 0 -49 7.5t-41.5 27t-37.5 19.5q-13 0 -22 -11t-9 -33h-85q0 25 11.5 54.5t40.5 49t64 19.5q29 0 49 -7.5t41.5 -27t37.5 -19.5q13 0 22 11t9 32zM545 225q0 -39 -14 -78t-41.5 -71.5t-66.5 -54.5t-86 -30v115
q21 5 42.5 21t34 43t12.5 55t-12.5 55t-34 43t-42.5 21v115q35 -6 71.5 -22.5t66.5 -46.5t50 -72.5t20 -92.5zM257 106v-115q-35 6 -71 22.5t-66 46.5t-50 72.5t-20 92.5q0 39 14 78t41 71.5t66 54.5t86 30v-115q-20 -5 -41.5 -21t-34 -43t-12.5 -55t12.5 -55t34 -43
t41.5 -21z" />
    <glyph glyph-name="odieresis" unicode="&#xf6;" horiz-adv-x="595" 
d="M471 697q0 -27 -19.5 -46.5t-46.5 -19.5t-46.5 19.5t-19.5 46.5t19.5 46.5t46.5 19.5t46.5 -19.5t19.5 -46.5zM250 697q0 -27 -19.5 -46.5t-46.5 -19.5t-46.5 19.5t-19.5 46.5t19.5 46.5t46.5 19.5t46.5 -19.5t19.5 -46.5zM545 225q0 -39 -14 -78t-41.5 -71.5
t-66.5 -54.5t-86 -30v115q21 5 42.5 21t34 43t12.5 55t-12.5 55t-34 43t-42.5 21v115q35 -6 71.5 -22.5t66.5 -46.5t50 -72.5t20 -92.5zM257 106v-115q-35 6 -71 22.5t-66 46.5t-50 72.5t-20 92.5q0 39 14 78t41 71.5t66 54.5t86 30v-115q-20 -5 -41.5 -21t-34 -43
t-12.5 -55t12.5 -55t34 -43t41.5 -21z" />
    <glyph glyph-name="divide" unicode="&#xf7;" horiz-adv-x="630" 
d="M390 585q0 -30 -22 -52t-52 -22q-31 0 -53 22t-22 52q0 31 22 53t53 22q30 0 52 -22t22 -53zM590 427v-105h-550v105h550zM390 165q0 -30 -22 -52t-52 -22q-31 0 -53 22t-22 52q0 31 22 53t53 22q30 0 52 -22t22 -53z" />
    <glyph glyph-name="oslash" unicode="&#xf8;" horiz-adv-x="595" 
d="M545 223q0 -69 -41 -128.5t-106 -87.5l-46 103q33 13 53.5 45.5t20.5 69.5q0 38 -19 69l92 67q46 -63 46 -138zM372 526l99 -47l-253 -555l-99 47zM197 442l46 -102q-33 -13 -54 -45.5t-21 -69.5t20 -69l-92 -67q-46 63 -46 138q0 70 40.5 129t106.5 86z" />
    <glyph glyph-name="ugrave" unicode="&#xf9;" horiz-adv-x="570" 
d="M500 449v-450h-120v450h120zM293 97l20 -98q-34 -8 -67 -8q-49 0 -90 16t-63.5 47.5t-22.5 76.5v318h120v-293q0 -17 7 -32.5t24 -23.5t39 -8q13 0 33 5zM184 800l254 -144l-52 -82l-254 144z" />
    <glyph glyph-name="uacute" unicode="&#xfa;" horiz-adv-x="570" 
d="M500 449v-450h-120v450h120zM293 97l20 -98q-34 -8 -67 -8q-49 0 -90 16t-63.5 47.5t-22.5 76.5v318h120v-293q0 -17 7 -32.5t24 -23.5t39 -8q13 0 33 5zM396 800l52 -82l-254 -144l-52 82z" />
    <glyph glyph-name="ucircumflex" unicode="&#xfb;" horiz-adv-x="570" 
d="M500 449v-450h-120v450h120zM293 97l20 -98q-34 -8 -67 -8q-49 0 -90 16t-63.5 47.5t-22.5 76.5v318h120v-293q0 -17 7 -32.5t24 -23.5t39 -8q13 0 33 5zM288 799l180 -155l-66 -71l-114 98l-114 -98l-66 71z" />
    <glyph glyph-name="udieresis" unicode="&#xfc;" horiz-adv-x="570" 
d="M500 449v-450h-120v450h120zM293 97l20 -98q-34 -8 -67 -8q-49 0 -90 16t-63.5 47.5t-22.5 76.5v318h120v-293q0 -17 7 -32.5t24 -23.5t39 -8q13 0 33 5zM471 697q0 -27 -19.5 -46.5t-46.5 -19.5t-46.5 19.5t-19.5 46.5t19.5 46.5t46.5 19.5t46.5 -19.5t19.5 -46.5z
M250 697q0 -27 -19.5 -46.5t-46.5 -19.5t-46.5 19.5t-19.5 46.5t19.5 46.5t46.5 19.5t46.5 -19.5t19.5 -46.5z" />
    <glyph glyph-name="yacute" unicode="&#xfd;" horiz-adv-x="535" 
d="M412 469l103 -53l-123 -271l-103 53zM129 470l203 -456l-131 -289l-103 53l107 235l-185 415zM376 800l52 -82l-254 -144l-52 82z" />
    <glyph glyph-name="thorn" unicode="&#xfe;" horiz-adv-x="610" 
d="M560 225q0 -44 -15.5 -85.5t-46 -74.5t-77 -52t-103.5 -19q-21 0 -48 5v108q8 -3 22 -6t23 -3q30 0 59 13t47.5 45t18.5 69q0 23 -9.5 49.5t-29 45t-42 25.5t-44.5 7q-9 0 -23 -3t-22 -6v108q27 5 48 5q57 0 103.5 -19.5t77 -52t46 -74.5t15.5 -85zM190 750v-1020h-120
v1020h120z" />
    <glyph glyph-name="ydieresis" unicode="&#xff;" horiz-adv-x="535" 
d="M412 469l103 -53l-123 -271l-103 53zM129 470l203 -456l-131 -289l-103 53l107 235l-185 415zM451 697q0 -27 -19.5 -46.5t-46.5 -19.5t-46.5 19.5t-19.5 46.5t19.5 46.5t46.5 19.5t46.5 -19.5t19.5 -46.5zM230 697q0 -27 -19.5 -46.5t-46.5 -19.5t-46.5 19.5t-19.5 46.5
t19.5 46.5t46.5 19.5t46.5 -19.5t19.5 -46.5z" />
    <glyph glyph-name="Lslash" unicode="&#x141;" horiz-adv-x="580" 
d="M268 515l45 -87l-123 -75v-353h-120v279l-78 -47l-45 87l123 75v356h120v-282zM525 105v-105h-255v105h255z" />
    <glyph glyph-name="lslash" unicode="&#x142;" horiz-adv-x="366" 
d="M321 515l45 -87l-123 -75v-353h-120v279l-78 -47l-45 87l123 75v356h120v-282z" />
    <glyph glyph-name="OE" unicode="&#x152;" horiz-adv-x="1226" 
d="M1126 427v-105h-206v105h206zM1156 105v-105h-366v105h366zM1155 750v-105h-315v-274q0 -79 -30.5 -151t-85.5 -126t-127.5 -84t-151.5 -30t-151.5 30.5t-127.5 85.5t-85.5 127.5t-30.5 151.5t30.5 151.5t85.5 127.5t127.5 85.5t151.5 30.5q119 0 216 -64l-58 -93
q-33 25 -74 38.5t-83 13.5q-55 0 -105.5 -22.5t-88.5 -62.5t-59.5 -93.5t-21.5 -111.5t21.5 -111.5t59.5 -93.5t88.5 -62.5t105.5 -22.5t105.5 22.5t88.5 62.5t59 93.5t21 111.5v375h435z" />
    <glyph glyph-name="oe" unicode="&#x153;" horiz-adv-x="903" 
d="M763 161l101 -59q-15 -26 -44.5 -53t-74 -43.5t-89.5 -16.5q-34 0 -71 11t-65 29l60 93q15 -13 35 -20.5t39 -7.5q33 0 63.5 17.5t45.5 49.5zM883 271l-228 -116l-51 87l127 65q-10 22 -32 34.5t-48 12.5q-29 0 -55.5 -13t-42.5 -46t-19 -75q-6 -75 -41 -129.5
t-86.5 -82.5t-116.5 -28q-49 0 -94 19t-79 53t-53 79t-19 94t19 94t53 79t79 53t94 19q33 0 68.5 -10.5t61.5 -27.5l-60 -91q-32 24 -70 24q-26 0 -54.5 -14.5t-49.5 -49t-21 -76.5q0 -27 12.5 -59.5t44 -56.5t68.5 -24q39 0 65.5 19t42.5 54t19 79q8 99 71.5 162t163.5 63
q79 0 143.5 -49t87.5 -142z" />
    <glyph glyph-name="Scaron" unicode="&#x160;" horiz-adv-x="631" 
d="M467 980l45 -83l-179 -90l-180 90l46 83l134 -66zM574 578l-97 -38q-11 39 -34.5 66t-58 43.5t-73.5 16.5q-54 0 -93 -31.5t-39 -83.5q0 -25 12 -48t32 -35.5t38 -16.5l30 -7l-29 -106l-27 6q-30 7 -60.5 22.5t-55 41.5t-40.5 62t-16 78q0 39 14 78.5t46 71t80.5 52
t108.5 20.5q54 0 110.5 -21t96.5 -67t55 -104zM581 217q0 -44 -17.5 -86.5t-51 -76.5t-83.5 -54t-111 -20q-42 0 -84.5 11.5t-80.5 35t-67.5 59.5t-45.5 83l101 42q20 -62 68.5 -94.5t104.5 -32.5q28 0 63.5 11.5t61.5 42t26 73.5q0 35 -25 63.5t-72 39.5l-24 6l29 106
l39 -9q82 -19 125.5 -74.5t43.5 -125.5z" />
    <glyph glyph-name="scaron" unicode="&#x161;" horiz-adv-x="473" 
d="M433 349l-96 -42q-12 31 -40 48t-58 17q-27 0 -46 -13.5t-19 -36.5q0 -13 9.5 -22.5t27.5 -13.5l6 -1l-27 -100q-67 16 -98.5 49t-31.5 89q0 35 14.5 63t40.5 47t59 28t65 9q64 0 119.5 -32t74.5 -89zM433 131q0 -44 -26 -80.5t-71.5 -54t-91.5 -17.5q-49 0 -96 19.5
t-72.5 51t-35.5 63.5l96 35q15 -33 45 -51t62 -18q30 0 52 15t22 39q0 11 -9.5 20t-27.5 13l-8 1l27 100q70 -16 102 -48t32 -88zM359 799l66 -71l-180 -155l-180 155l66 71l114 -98z" />
    <glyph glyph-name="Ydieresis" unicode="&#x178;" horiz-adv-x="712" 
d="M583 767l99 -64l-265 -394v-309h-120v340zM129 767l196 -293l-99 -64l-196 293zM537 891q0 -27 -19.5 -46.5t-46.5 -19.5t-46.5 19.5t-19.5 46.5t19.5 46.5t46.5 19.5t46.5 -19.5t19.5 -46.5zM316 891q0 -27 -19.5 -46.5t-46.5 -19.5t-46.5 19.5t-19.5 46.5t19.5 46.5
t46.5 19.5t46.5 -19.5t19.5 -46.5z" />
    <glyph glyph-name="Zcaron" unicode="&#x17d;" horiz-adv-x="650" 
d="M467 980l45 -83l-179 -90l-180 90l46 83l134 -66zM580 750v-105h-520v105h520zM423 603l93 -62l-297 -405l-93 63zM580 105v-105h-520v105h520z" />
    <glyph glyph-name="zcaron" unicode="&#x17e;" horiz-adv-x="527" 
d="M258 450v-105h-195v105h195zM414 465l85 -74l-382 -408l-85 74zM472 105v-105h-195v105h195zM389 799l66 -71l-180 -155l-180 155l66 71l114 -98z" />
    <glyph glyph-name="circumflex" unicode="&#x2c6;" horiz-adv-x="590" 
d="M295 799l180 -155l-66 -71l-114 98l-114 -98l-66 71z" />
    <glyph glyph-name="caron" unicode="&#x2c7;" horiz-adv-x="590" 
d="M409 799l66 -71l-180 -155l-180 155l66 71l114 -98z" />
    <glyph glyph-name="breve" unicode="&#x2d8;" horiz-adv-x="589" 
d="M391 765l83 -47q-29 -52 -76 -82.5t-103 -30.5q-55 0 -102 30.5t-76 82.5l82 47q15 -29 39.5 -48.5t56.5 -19.5q24 0 50.5 15.5t45.5 52.5z" />
    <glyph glyph-name="dotaccent" unicode="&#x2d9;" horiz-adv-x="590" 
d="M367 774v-130h-120v130h120z" />
    <glyph glyph-name="ring" unicode="&#x2da;" horiz-adv-x="590" 
d="M406 677q0 -31 -16.5 -58t-43.5 -41l-34 67q8 4 14 13.5t6 18.5q0 15 -11 26t-26 11t-26 -11t-11 -26q0 -9 6 -18.5t14 -13.5l-34 -67q-27 14 -43.5 41t-16.5 58q0 21 11 47.5t39 45.5t61 19t61 -19t39 -45.5t11 -47.5z" />
    <glyph glyph-name="ogonek" unicode="&#x2db;" horiz-adv-x="580" 
d="M330 -186l-48 -82q-51 29 -81.5 76t-30.5 102q0 56 30.5 103t81.5 76l48 -83q-29 -14 -48.5 -39t-19.5 -57t19.5 -56.5t48.5 -39.5z" />
    <glyph glyph-name="tilde" unicode="&#x2dc;" horiz-adv-x="590" 
d="M390 750h85q0 -25 -11.5 -54t-40.5 -48.5t-64 -19.5q-29 0 -49 7.5t-41.5 27t-37.5 19.5q-13 0 -22 -11t-9 -33h-85q0 25 11.5 54.5t40.5 49t64 19.5q29 0 49 -7.5t41.5 -27t37.5 -19.5q13 0 22 11t9 32z" />
    <glyph glyph-name="hungarumlaut" unicode="&#x2dd;" horiz-adv-x="598" 
d="M457 815l87 -61l-126 -179l-87 60zM197 815l87 -61l-126 -179l-87 60z" />
    <glyph glyph-name="endash" unicode="&#x2013;" horiz-adv-x="535" 
d="M475 327v-105h-415v105h415z" />
    <glyph glyph-name="emdash" unicode="&#x2014;" horiz-adv-x="870" 
d="M810 327v-105h-750v105h750z" />
    <glyph glyph-name="quoteleft" unicode="&#x2018;" horiz-adv-x="305" 
d="M144 770l131 -295l-114 -46l-131 295z" />
    <glyph glyph-name="quoteright" unicode="&#x2019;" horiz-adv-x="305" 
d="M161 770l114 -46l-131 -295l-114 46z" />
    <glyph glyph-name="quotesinglbase" unicode="&#x201a;" horiz-adv-x="287" 
d="M123 191l114 -46l-131 -295l-114 46z" />
    <glyph glyph-name="quotedblleft" unicode="&#x201c;" horiz-adv-x="535" 
d="M374 770l131 -295l-114 -46l-131 295zM144 770l131 -295l-114 -46l-131 295z" />
    <glyph glyph-name="quotedblright" unicode="&#x201d;" horiz-adv-x="535" 
d="M391 770l114 -46l-131 -295l-114 46zM161 770l114 -46l-131 -295l-114 46z" />
    <glyph glyph-name="quotedblbase" unicode="&#x201e;" horiz-adv-x="516" 
d="M352 192l114 -46l-131 -295l-114 46zM122 192l114 -46l-131 -295l-114 46z" />
    <glyph glyph-name="dagger" unicode="&#x2020;" horiz-adv-x="520" 
d="M470 450v-105h-150v-445h-120v445h-150v105h150v200h120v-200h150z" />
    <glyph glyph-name="daggerdbl" unicode="&#x2021;" horiz-adv-x="520" 
d="M470 205v-105h-150v-200h-120v200h-150v105h150v140h-150v105h150v200h120v-200h150v-105h-150v-140h150z" />
    <glyph glyph-name="bullet" unicode="&#x2022;" horiz-adv-x="466" 
d="M426 374q0 -29 -10 -61t-34 -61t-62.5 -50t-86.5 -21q-29 0 -61.5 10t-65 37.5t-49.5 67.5t-17 78q0 49 25.5 95.5t72 72t95.5 25.5q38 0 69.5 -13t56.5 -34t46 -59t21 -87z" />
    <glyph glyph-name="ellipsis" unicode="&#x2026;" horiz-adv-x="820" 
d="M769 60q0 -32 -23.5 -55.5t-55.5 -23.5t-55.5 23.5t-23.5 55.5t23.5 55.5t55.5 23.5t55.5 -23.5t23.5 -55.5zM489 60q0 -32 -23.5 -55.5t-55.5 -23.5t-55.5 23.5t-23.5 55.5t23.5 55.5t55.5 23.5t55.5 -23.5t23.5 -55.5zM209 60q0 -32 -23.5 -55.5t-55.5 -23.5
t-55.5 23.5t-23.5 55.5t23.5 55.5t55.5 23.5t55.5 -23.5t23.5 -55.5z" />
    <glyph glyph-name="perthousand" unicode="&#x2030;" horiz-adv-x="1344" 
d="M1299 213h-99q-11 27 -36 45t-54 18t-54 -18t-36 -45h-99q14 66 67 109.5t122 43.5t122 -43.5t67 -109.5zM1200 133h99q-9 -40 -33.5 -73.5t-64.5 -56.5t-91 -23q-34 0 -72 14t-72 51.5t-45 87.5h99q11 -27 36 -45t54 -18t54 18t36 45zM859 213h-99q-11 27 -36 45t-54 18
t-54 -18t-36 -45h-99q14 66 67 109.5t122 43.5t122 -43.5t67 -109.5zM422 616h-99q-11 27 -36 45t-54 18t-54 -18t-36 -45h-99q14 66 67 109.5t122 43.5t122 -43.5t67 -109.5zM617 770l92 -52l-426 -738l-92 52zM760 133h99q-9 -40 -33.5 -73.5t-64.5 -56.5t-91 -23
q-34 0 -72 14t-72 51.5t-45 87.5h99q11 -27 36 -45t54 -18t54 18t36 45zM323 536h99q-9 -40 -33.5 -73.5t-64.5 -56.5t-91 -23q-34 0 -72 14t-72 51.5t-45 87.5h99q11 -27 36 -45t54 -18t54 18t36 45z" />
    <glyph glyph-name="guilsinglleft" unicode="&#x2039;" horiz-adv-x="319" 
d="M179 250l110 -111l-74 -74l-185 184l185 185l74 -74z" />
    <glyph glyph-name="guilsinglright" unicode="&#x203a;" horiz-adv-x="319" 
d="M104 434l185 -185l-185 -184l-74 74l110 110l-110 111z" />
    <glyph glyph-name="fraction" unicode="&#x2044;" horiz-adv-x="504" 
d="M395 821l109 -51l-395 -846l-109 51z" />
    <glyph glyph-name="Euro" unicode="&#x20ac;" horiz-adv-x="949" 
d="M904 526l-108 -45q-11 29 -31.5 60.5t-52 59t-75.5 46t-97 18.5q-63 0 -120 -29.5t-95 -79.5l-87 75q40 47 95 80.5t109.5 46t96.5 12.5q121 0 220.5 -68t144.5 -176zM95 522h406v-104h-406v104zM796 269l108 -45q-45 -108 -144.5 -176t-220.5 -68q-42 0 -96.5 12.5
t-109.5 46t-95 80.5l87 75q37 -50 94.5 -79.5t120.5 -29.5q31 0 67.5 9t76 34t68.5 63t44 78zM95 332h406v-104h-406v104z" />
    <glyph glyph-name="trademark" unicode="&#x2122;" horiz-adv-x="956" 
d="M828 770l78 -90l-231 -211l-229 211l78 90l152 -140zM896 506v-206h-120v206h120zM392 750v-105h-342v105h342zM574 506v-206h-120v206h120zM281 565v-265h-120v265h120z" />
    <glyph glyph-name="minus" unicode="&#x2212;" horiz-adv-x="630" 
d="M590 427v-105h-550v105h550z" />
    <glyph glyph-name="uniF8FF" unicode="&#xf8ff;" horiz-adv-x="1000" 
 />
    <glyph glyph-name="glyph218" horiz-adv-x="553" 
d="M513 271l-228 -116l-51 87l127 65q-10 22 -31.5 34.5t-46.5 12.5q-33 0 -57.5 -15.5t-41 -45.5t-16.5 -68q0 -24 10 -54.5t37.5 -53.5t68.5 -23q33 0 63.5 17.5t45.5 49.5l101 -59q-15 -26 -44.5 -53t-74 -43.5t-89.5 -16.5q-50 0 -93.5 17.5t-76 49.5t-50.5 76t-18 93
q0 48 18 91.5t50 76t75.5 51t92.5 18.5q78 0 142 -49t87 -142z" />
    <glyph glyph-name="glyph219" horiz-adv-x="553" 
d="M513 271l-228 -116l-51 87l127 65q-10 22 -31.5 34.5t-46.5 12.5q-33 0 -57.5 -15.5t-41 -45.5t-16.5 -68q0 -24 10 -54.5t37.5 -53.5t68.5 -23q33 0 63.5 17.5t45.5 49.5l101 -59q-15 -26 -44.5 -53t-74 -43.5t-89.5 -16.5q-50 0 -93.5 17.5t-76 49.5t-50.5 76t-18 93
q0 48 18 91.5t50 76t75.5 51t92.5 18.5q78 0 142 -49t87 -142zM396 800l52 -82l-254 -144l-52 82z" />
    <glyph glyph-name="glyph220" horiz-adv-x="553" 
d="M513 271l-228 -116l-51 87l127 65q-10 22 -31.5 34.5t-46.5 12.5q-33 0 -57.5 -15.5t-41 -45.5t-16.5 -68q0 -24 10 -54.5t37.5 -53.5t68.5 -23q33 0 63.5 17.5t45.5 49.5l101 -59q-15 -26 -44.5 -53t-74 -43.5t-89.5 -16.5q-50 0 -93.5 17.5t-76 49.5t-50.5 76t-18 93
q0 48 18 91.5t50 76t75.5 51t92.5 18.5q78 0 142 -49t87 -142zM194 800l254 -144l-52 -82l-254 144z" />
    <glyph glyph-name="glyph221" horiz-adv-x="553" 
d="M513 271l-228 -116l-51 87l127 65q-10 22 -31.5 34.5t-46.5 12.5q-33 0 -57.5 -15.5t-41 -45.5t-16.5 -68q0 -24 10 -54.5t37.5 -53.5t68.5 -23q33 0 63.5 17.5t45.5 49.5l101 -59q-15 -26 -44.5 -53t-74 -43.5t-89.5 -16.5q-50 0 -93.5 17.5t-76 49.5t-50.5 76t-18 93
q0 48 18 91.5t50 76t75.5 51t92.5 18.5q78 0 142 -49t87 -142zM285 799l180 -155l-66 -71l-114 98l-114 -98l-66 71z" />
    <glyph glyph-name="glyph222" horiz-adv-x="553" 
d="M513 271l-228 -116l-51 87l127 65q-10 22 -31.5 34.5t-46.5 12.5q-33 0 -57.5 -15.5t-41 -45.5t-16.5 -68q0 -24 10 -54.5t37.5 -53.5t68.5 -23q33 0 63.5 17.5t45.5 49.5l101 -59q-15 -26 -44.5 -53t-74 -43.5t-89.5 -16.5q-50 0 -93.5 17.5t-76 49.5t-50.5 76t-18 93
q0 48 18 91.5t50 76t75.5 51t92.5 18.5q78 0 142 -49t87 -142zM461 697q0 -27 -19.5 -46.5t-46.5 -19.5t-46.5 19.5t-19.5 46.5t19.5 46.5t46.5 19.5t46.5 -19.5t19.5 -46.5zM240 697q0 -27 -19.5 -46.5t-46.5 -19.5t-46.5 19.5t-19.5 46.5t19.5 46.5t46.5 19.5t46.5 -19.5
t19.5 -46.5z" />
    </font>
</defs>
</svg>
